<?xml version="1.0" standalone="yes"?>
<svg xmlns="http://www.w3.org/2000/svg" width="2200" height="1074">
<path style="fill:#ffffff; stroke:none;" d="M0 0L0 1074L2200 1074L2200 1072L3 1072L3 0L0 0z"/>
<path style="fill:#e8ed71; stroke:none;" d="M3 0L3 997C5.70071 990.564 4 980.951 4 974L4 924L4 750L4 218L4 65L4 21C4 14.5797 5.49714 5.95105 3 0z"/>
<path style="fill:#e1e643; stroke:none;" d="M4 0L4 995C6.70071 988.564 5 978.951 5 972L5 922L5 748L5 217L5 64L5 20C5 13.8459 6.39486 5.70728 4 0z"/>
<path style="fill:#e2e749; stroke:none;" d="M5 0L5 681L5 894L5 961C5 972.282 6.62117 984.99 4 996L152 996L192 996C196.283 996 203.738 997.419 207.468 994.972C209.808 993.437 210.768 990.382 211.963 988L219.963 972C229.298 953.331 238.841 934.757 248 916C257.694 934.49 266.917 953.272 276.142 972C278.776 977.348 281.438 982.687 284.142 988C285.318 990.312 286.307 993.458 288.557 994.972C292.92 997.908 302.907 996 308 996L360 996C362.342 988.023 367.135 980.409 370.895 973C375.957 963.024 380.627 952.811 386 943C391.408 955.988 398.492 968.457 404.858 981C407.069 985.356 409.486 992.329 414.376 994.411C417.684 995.82 422.477 995 426 995L450 995L534 995L826 995L2200 995L2200 0L5 0z"/>
<path style="fill:#e4e949; stroke:none;" d="M707 120C710.145 136.94 708 155.792 708 173L708 274L708 588L708 700L708 726C708 730.903 708.69 735.386 705 739C709.222 739.948 708.977 735.168 708.999 732C709.059 723.334 709 714.666 709 706L709 596L709 245L709 154L709 131C709 126.999 709.477 123.27 707 120z"/>
<path style="fill:#e7ed4b; stroke:none;" d="M704 121L704 739C705.769 734.785 705 729.536 705 725L705 698L705 604L705 275L705 167L705 136C705 131.191 705.875 125.469 704 121z"/>
<path style="fill:#d9dd47; stroke:none;" d="M705 121L705 739C706.769 734.785 706 729.536 706 725L706 698L706 604L706 275L706 167L706 136C706 131.191 706.875 125.469 705 121z"/>
<path style="fill:#1f1f0a; stroke:none;" d="M706 121L706 739C707.769 734.785 707 729.536 707 725L707 698L707 604L707 275L707 167L707 136C707 131.191 707.875 125.469 706 121z"/>
<path style="fill:#f1f54e; stroke:none;" d="M707 122L707 738C708.769 733.785 708 728.535 708 724L708 697L708 603L708 275L708 168L708 137C708 132.191 708.875 126.469 707 122z"/>
<path style="fill:#858738; stroke:none;" d="M247.667 916.333C247.222 916.778 248.278 916.722 248.333 916.667C248.778 916.222 247.722 916.278 247.667 916.333z"/>
<path style="fill:#41422c; stroke:none;" d="M247.667 917.333C247.222 917.778 248.278 917.722 248.333 917.667C248.778 917.222 247.722 917.278 247.667 917.333z"/>
<path style="fill:#272727; stroke:none;" d="M247 918C237.52 935.709 229.023 954.028 220.037 972C216.047 979.98 209.489 988.954 209 998L5 998L5 1070L2200 1070L2200 999L976 999L592 999L472 999L434 999C426.719 999 419.12 999.695 412 998C411.616 992.331 407.803 987.119 405.424 982C399.643 969.562 393.471 957.088 387 945L385 945C378.19 956.921 372.412 969.663 366.373 982C364.069 986.709 361.755 994.321 356.906 996.972C353.338 998.923 347.925 998 344 998L316 998L296 998C293.216 997.994 289.888 998.38 287.637 996.397C281.691 991.155 280.364 980.827 277.124 974C268.209 955.215 258.986 936.234 249 918L247 918z"/>
<path style="fill:#a7aa3e; stroke:none;" d="M250 920L251 921L250 920z"/>
<path style="fill:#6a6c34; stroke:none;" d="M244.333 922.667C244.278 922.722 244.222 923.778 244.667 923.333C244.722 923.278 244.778 922.222 244.333 922.667z"/>
<path style="fill:#51522f; stroke:none;" d="M251.333 922.667C251.278 922.722 251.222 923.778 251.667 923.333C251.722 923.278 251.778 922.222 251.333 922.667z"/>
<path style="fill:#adb03f; stroke:none;" d="M243 924L244 925L243 924z"/>
<path style="fill:#90933a; stroke:none;" d="M252 924L253 925L252 924z"/>
<path style="fill:#5b5a2f; stroke:none;" d="M243 925L244 926L243 925z"/>
<path style="fill:#a8ab3d; stroke:none;" d="M254 928L255 929L254 928z"/>
<path style="fill:#6b6d34; stroke:none;" d="M240.333 930.667C240.278 930.722 240.222 931.778 240.667 931.333C240.722 931.278 240.778 930.222 240.333 930.667z"/>
<path style="fill:#505130; stroke:none;" d="M255.333 930.667C255.278 930.722 255.222 931.778 255.667 931.333C255.722 931.278 255.778 930.222 255.333 930.667z"/>
<path style="fill:#adb03f; stroke:none;" d="M239 932L240 933L239 932z"/>
<path style="fill:#8c8f39; stroke:none;" d="M256 932L257 933L256 932z"/>
<path style="fill:#5d5d2f; stroke:none;" d="M239 933L240 934L239 933z"/>
<path style="fill:#abae3f; stroke:none;" d="M258 936L259 937L258 936z"/>
<path style="fill:#6a6a34; stroke:none;" d="M236.333 938.667C236.278 938.722 236.222 939.778 236.667 939.333C236.722 939.278 236.778 938.222 236.333 938.667z"/>
<path style="fill:#505030; stroke:none;" d="M259.333 938.667C259.278 938.722 259.222 939.778 259.667 939.333C259.722 939.278 259.778 938.222 259.333 938.667z"/>
<path style="fill:#a9ad3e; stroke:none;" d="M235 940L236 941L235 940z"/>
<path style="fill:#8c8f3a; stroke:none;" d="M260 940L261 941L260 940z"/>
<path style="fill:#5b5c2f; stroke:none;" d="M235 941L236 942L235 941z"/>
<path style="fill:#55562f; stroke:none;" d="M385.333 943.667C385.278 943.722 385.222 944.778 385.667 944.333C385.722 944.278 385.778 943.222 385.333 943.667z"/>
<path style="fill:#aeb13f; stroke:none;" d="M262 944L263 945L262 944z"/>
<path style="fill:#8d8f39; stroke:none;" d="M386 944L387 945L386 944z"/>
<path style="fill:#afb340; stroke:none;" d="M384 945L385 946L384 945z"/>
<path style="fill:#6b6c34; stroke:none;" d="M232.333 946.667C232.278 946.722 232.222 947.778 232.667 947.333C232.722 947.278 232.778 946.222 232.333 946.667z"/>
<path style="fill:#4e4f2f; stroke:none;" d="M263.333 946.667C263.278 946.722 263.222 947.778 263.667 947.333C263.722 947.278 263.778 946.222 263.333 946.667z"/>
<path style="fill:#a9ad3e; stroke:none;" d="M231 948L232 949L231 948z"/>
<path style="fill:#8a8d39; stroke:none;" d="M264 948L265 949L264 948z"/>
<path style="fill:#5c5e31; stroke:none;" d="M231 949L232 950L231 949z"/>
<path style="fill:#94963a; stroke:none;" d="M382 949L383 950L382 949z"/>
<path style="fill:#8c8e3a; stroke:none;" d="M389 950L390 951L389 950z"/>
<path style="fill:#5c5e31; stroke:none;" d="M381.333 951.667C381.278 951.722 381.222 952.778 381.667 952.333C381.722 952.278 381.778 951.222 381.333 951.667z"/>
<path style="fill:#aeb13f; stroke:none;" d="M266 952L267 953L266 952z"/>
<path style="fill:#94963b; stroke:none;" d="M390 952L391 953L390 952z"/>
<path style="fill:#acaf3e; stroke:none;" d="M380 953L381 954L380 953z"/>
<path style="fill:#6b6c34; stroke:none;" d="M228.333 954.667C228.278 954.722 228.222 955.778 228.667 955.333C228.722 955.278 228.778 954.222 228.333 954.667z"/>
<path style="fill:#4e4f2f; stroke:none;" d="M267.333 954.667C267.278 954.722 267.222 955.778 267.667 955.333C267.722 955.278 267.778 954.222 267.333 954.667z"/>
<path style="fill:#a6aa3e; stroke:none;" d="M227 956L228 957L227 956z"/>
<path style="fill:#898d39; stroke:none;" d="M268 956L269 957L268 956z"/>
<path style="fill:#5c5e31; stroke:none;" d="M227 957L228 958L227 957z"/>
<path style="fill:#97993c; stroke:none;" d="M378 957L379 958L378 957z"/>
<path style="fill:#8a8c38; stroke:none;" d="M393 958L394 959L393 958z"/>
<path style="fill:#5d5f31; stroke:none;" d="M377.333 959.667C377.278 959.722 377.222 960.778 377.667 960.333C377.722 960.278 377.778 959.222 377.333 959.667z"/>
<path style="fill:#b0b340; stroke:none;" d="M270 960L271 961L270 960z"/>
<path style="fill:#93963b; stroke:none;" d="M394 960L395 961L394 960z"/>
<path style="fill:#acb040; stroke:none;" d="M376 961L377 962L376 961z"/>
<path style="fill:#696a34; stroke:none;" d="M224.333 962.667C224.278 962.722 224.222 963.778 224.667 963.333C224.722 963.278 224.778 962.222 224.333 962.667z"/>
<path style="fill:#4d4e2f; stroke:none;" d="M271.333 962.667C271.278 962.722 271.222 963.778 271.667 963.333C271.722 963.278 271.778 962.222 271.333 962.667z"/>
<path style="fill:#a6aa3e; stroke:none;" d="M223 964L224 965L223 964z"/>
<path style="fill:#878939; stroke:none;" d="M272 964L273 965L272 964z"/>
<path style="fill:#5f6131; stroke:none;" d="M223 965L224 966L223 965z"/>
<path style="fill:#9a9b3c; stroke:none;" d="M374 965L375 966L374 965z"/>
<path style="fill:#8a8c3a; stroke:none;" d="M397 966L398 967L397 966z"/>
<path style="fill:#5c5d31; stroke:none;" d="M373.333 967.667C373.278 967.722 373.222 968.778 373.667 968.333C373.722 968.278 373.778 967.222 373.333 967.667z"/>
<path style="fill:#b2b540; stroke:none;" d="M274 968L275 969L274 968z"/>
<path style="fill:#96973b; stroke:none;" d="M398 968L399 969L398 968z"/>
<path style="fill:#a8ac3e; stroke:none;" d="M372 969L373 970L372 969z"/>
<path style="fill:#6b6c34; stroke:none;" d="M220.333 970.667C220.278 970.722 220.222 971.778 220.667 971.333C220.722 971.278 220.778 970.222 220.333 970.667z"/>
<path style="fill:#4d4e2f; stroke:none;" d="M275.333 970.667C275.278 970.722 275.222 971.778 275.667 971.333C275.722 971.278 275.778 970.222 275.333 970.667z"/>
<path style="fill:#a3a63c; stroke:none;" d="M219 972L220 973L219 972z"/>
<path style="fill:#888839; stroke:none;" d="M276 972L277 973L276 972z"/>
<path style="fill:#616031; stroke:none;" d="M219 973L220 974L219 973z"/>
<path style="fill:#9a9d3c; stroke:none;" d="M370 973L371 974L370 973z"/>
<path style="fill:#868938; stroke:none;" d="M401 974L402 975L401 974z"/>
<path style="fill:#5d5e31; stroke:none;" d="M369.333 975.667C369.278 975.722 369.222 976.778 369.667 976.333C369.722 976.278 369.778 975.222 369.333 975.667z"/>
<path style="fill:#96983b; stroke:none;" d="M402.333 975.667C402.278 975.722 402.222 976.778 402.667 976.333C402.722 976.278 402.778 975.222 402.333 975.667z"/>
<path style="fill:#b3b740; stroke:none;" d="M278 976L279 977L278 976z"/>
<path style="fill:#a8ac3e; stroke:none;" d="M368 977L369 978L368 977z"/>
<path style="fill:#676932; stroke:none;" d="M216.333 978.667C216.278 978.722 216.222 979.778 216.667 979.333C216.722 979.278 216.778 978.222 216.333 978.667z"/>
<path style="fill:#4e4f2f; stroke:none;" d="M279.333 978.667C279.278 978.722 279.222 979.778 279.667 979.333C279.722 979.278 279.778 978.222 279.333 978.667z"/>
<path style="fill:#a5a63d; stroke:none;" d="M215 980L216 981L215 980z"/>
<path style="fill:#191725; stroke:none;" d="M279 980C280.392 984.831 283.362 993.987 287.637 996.972C291.873 999.93 302.003 998 307 998L358 998C353.031 995.915 346.35 997 341 997L306 997C301.388 997 294.509 998.265 290.213 996.397C284.624 993.965 283.269 984.224 279 980z"/>
<path style="fill:#848638; stroke:none;" d="M280 980L281 981L280 980z"/>
<path style="fill:#626332; stroke:none;" d="M215 981L216 982L215 981z"/>
<path style="fill:#9ca03c; stroke:none;" d="M366 981L367 982L366 981z"/>
<path style="fill:#b3b641; stroke:none;" d="M281 982L282 983L281 982z"/>
<path style="fill:#868938; stroke:none;" d="M405 982L406 983L405 982z"/>
<path style="fill:#5e5d31; stroke:none;" d="M365.333 983.667C365.278 983.722 365.222 984.778 365.667 984.333C365.722 984.278 365.778 983.222 365.333 983.667z"/>
<path style="fill:#979a3b; stroke:none;" d="M406.333 983.667C406.278 983.722 406.222 984.778 406.667 984.333C406.722 984.278 406.778 983.222 406.333 983.667z"/>
<path style="fill:#a5aa3e; stroke:none;" d="M364 985L365 986L364 985z"/>
<path style="fill:#686a32; stroke:none;" d="M212.333 986.667C212.278 986.722 212.222 987.778 212.667 987.333C212.722 987.278 212.778 986.222 212.333 986.667z"/>
<path style="fill:#7f8138; stroke:none;" d="M283 986L284 987L283 986z"/>
<path style="fill:#646531; stroke:none;" d="M407 986L408 987L407 986z"/>
<path style="fill:#a4a83c; stroke:none;" d="M211 988L212 989L211 988z"/>
<path style="fill:#848738; stroke:none;" d="M284 988L285 989L284 988z"/>
<path style="fill:#656532; stroke:none;" d="M211 989L212 990L211 989z"/>
<path style="fill:#9ea03d; stroke:none;" d="M362 989L363 990L362 989z"/>
<path style="fill:#b3b741; stroke:none;" d="M285 990L286 991L285 990z"/>
<path style="fill:#848638; stroke:none;" d="M409 990L410 991L409 990z"/>
<path style="fill:#5e5d31; stroke:none;" d="M361.333 991.667C361.278 991.722 361.222 992.778 361.667 992.333C361.722 992.278 361.778 991.222 361.333 991.667z"/>
<path style="fill:#96983b; stroke:none;" d="M410.333 991.667C410.278 991.722 410.222 992.778 410.667 992.333C410.722 992.278 410.778 991.222 410.333 991.667z"/>
<path style="fill:#e9ee4a; stroke:none;" d="M411 991C412.806 999.277 428.266 996 435 996L510 996L832 996L2200 996C2196.3 994.448 2191.98 995 2188 995L2165 995L2086 995L1810 995L853 995L524 995L442 995C432.567 995 418.107 998.035 411 991z"/>
<path style="fill:#a5aa3e; stroke:none;" d="M360 993L361 994L360 993z"/>
<path style="fill:#676733; stroke:none;" d="M208.333 994.667C208.278 994.722 208.222 995.778 208.667 995.333C208.722 995.278 208.778 994.222 208.333 994.667z"/>
<path style="fill:#818338; stroke:none;" d="M287 994L288 995L287 994z"/>
<path style="fill:#666633; stroke:none;" d="M411 994L412 995L411 994z"/>
<path style="fill:#c3c843; stroke:none;" d="M4 996C9.46247 998.292 17.113 997 23 997L64 997L207 997C201.538 994.708 193.887 996 188 996L147 996L4 996z"/>
<path style="fill:#898d39; stroke:none;" d="M207 996L208 997L207 996z"/>
<path style="fill:#191725; stroke:none;" d="M208 996C200.848 998.114 192.427 997 185 997L143 997L4 997C7.43342 998.978 12.9837 998 17 998L48 998L160 998L197 998C199.323 998 209.302 999.154 208 996z"/>
<path style="fill:#717436; stroke:none;" d="M288 996L289 997L288 996z"/>
<path style="fill:#c3c843; stroke:none;" d="M289 996C295.194 998.599 304.314 997 311 997L359 997C352.806 994.401 343.686 996 337 996L289 996M413 996C417.469 997.875 423.191 997 428 997L458 997L564 997L930 997L2200 997C2195.53 995.125 2189.81 996 2185 996L2155 996L2049 996L1683 996L413 996z"/>
<path style="fill:#575757; stroke:none;" d="M3 997L3 1072C5.18893 1066.78 4 1059.62 4 1054L4 1017C4 1010.85 5.39487 1002.71 3 997z"/>
<path style="fill:#191725; stroke:none;" d="M412 997C416.469 998.875 422.191 998 427 998L457 998L563 998L929 998L2200 998C2195.53 996.125 2189.81 997 2185 997L2155 997L2049 997L1683 997L412 997z"/>
<path style="fill:#232323; stroke:none;" d="M4 998L4 1071L2200 1071C2194.78 1068.81 2187.62 1070 2182 1070L2145 1070L2015 1070L1565 1070L5 1070L5 1021C5 1014.05 6.70071 1004.44 4 998z"/>
<path style="fill:#252627; stroke:none;" d="M413 998C417.469 999.875 423.191 999 428 999L458 999L564 999L930 999L2200 999C2195.53 997.125 2189.81 998 2185 998L2155 998L2049 998L1683 998L413 998z"/>
<path style="fill:#1b1b1b; stroke:none;" d="M4 1071C9.21648 1073.19 16.3809 1072 22 1072L59 1072L189 1072L639 1072L2200 1072C2194.78 1069.81 2187.62 1071 2182 1071L2145 1071L2015 1071L1565 1071L4 1071z"/>
</svg>
