<!DOCTYPE svg PUBLIC "-//W3C//DTD SVG 20010904//EN" "http://www.w3.org/TR/2001/REC-SVG-20010904/DTD/svg10.dtd">
<svg version="1.0" xmlns="http://www.w3.org/2000/svg" width="1200px" height="622px" viewBox="0 0 12000 6220" preserveAspectRatio="xMidYMid meet">
<g id="layer101" fill="#232323" stroke="none">
<path d="M0 3110 l0 -3110 6000 0 6000 0 0 3110 0 3110 -6000 0 -6000 0 0 -3110z"/>
</g>
<g id="layer102" fill="#2b2b2b" stroke="none">
<path d="M0 3275 l0 -2945 135 0 135 0 0 -90 0 -90 370 0 370 0 0 90 0 90 1110 0 c978 0 1111 -2 1116 -15 8 -19 24 -19 24 0 0 13 57 15 415 17 228 2 415 1 415 -2 0 -3 57 -4 127 -2 83 2 128 0 133 -8 4 -6 23 -12 44 -14 20 -2 39 -6 43 -10 15 -14 91 -5 116 14 25 20 37 20 1169 20 629 0 2298 0 3711 0 l2567 0 0 2945 0 2945 -6000 0 -6000 0 0 -2945z m8797 370 c258 -53 459 -156 634 -327 119 -116 188 -207 254 -338 156 -309 173 -676 49 -1002 -14 -38 -27 -68 -30 -68 -4 0 -22 10 -159 90 -49 29 -95 53 -101 53 -7 0 -6 10 3 29 25 49 51 154 64 254 24 190 -28 432 -122 572 -16 24 -29 46 -29 49 0 11 -112 137 -154 174 -382 334 -947 308 -1295 -59 l-74 -79 -66 35 c-55 29 -186 106 -200 118 -9 8 119 151 180 203 96 82 102 86 164 126 147 93 351 163 555 189 63 8 246 -3 327 -19z m-1247 -529 c0 -3 -5 -8 -12 -12 -7 -4 -8 -3 -4 4 7 12 16 16 16 8z m-50 -80 c0 -3 -5 -8 -12 -12 -7 -4 -8 -3 -4 4 7 12 16 16 16 8z m320 -90 c0 -3 -5 -8 -12 -12 -7 -4 -8 -3 -4 4 7 12 16 16 16 8z m-413 -103 c-4 -3 -7 0 -7 7 0 7 3 10 7 7 3 -4 3 -10 0 -14z m-10 -40 c-4 -3 -7 0 -7 7 0 7 3 10 7 7 3 -4 3 -10 0 -14z m-10 -30 c-4 -3 -7 0 -7 7 0 7 3 10 7 7 3 -4 3 -10 0 -14z m-10 -30 c-4 -3 -7 0 -7 7 0 7 3 10 7 7 3 -4 3 -10 0 -14z m-10 -45 c-3 -8 -6 -5 -6 6 -1 11 2 17 5 13 3 -3 4 -12 1 -19z m330 -15 c-4 -3 -7 0 -7 7 0 7 3 10 7 7 3 -4 3 -10 0 -14z m-340 -30 c-4 -3 -7 0 -7 7 0 7 3 10 7 7 3 -4 3 -10 0 -14z m330 -5 c-3 -8 -6 -5 -6 6 -1 11 2 17 5 13 3 -3 4 -12 1 -19z m-340 -50 c-3 -8 -6 -5 -6 6 -1 11 2 17 5 13 3 -3 4 -12 1 -19z m-10 -85 c-3 -10 -5 -4 -5 12 0 17 2 24 5 18 2 -7 2 -21 0 -30z m330 0 c-3 -10 -5 -4 -5 12 0 17 2 24 5 18 2 -7 2 -21 0 -30z m0 -175 c-3 -7 -5 -2 -5 12 0 14 2 19 5 13 2 -7 2 -19 0 -25z m-330 -35 c-3 -10 -5 -2 -5 17 0 19 2 27 5 18 2 -10 2 -26 0 -35z m10 -65 c-3 -8 -6 -5 -6 6 -1 11 2 17 5 13 3 -3 4 -12 1 -19z m340 -25 c-4 -3 -7 0 -7 7 0 7 3 10 7 7 3 -4 3 -10 0 -14z m-330 -30 c-4 -3 -7 0 -7 7 0 7 3 10 7 7 3 -4 3 -10 0 -14z m10 -55 c-3 -7 -5 -2 -5 12 0 14 2 19 5 13 2 -7 2 -19 0 -25z m2003 -202 c0 -3 -5 -8 -12 -12 -7 -4 -8 -3 -4 4 7 12 16 16 16 8z m-1525 -36 c3 -5 4 -10 1 -10 -3 0 -8 5 -11 10 -3 6 -4 10 -1 10 3 0 8 -4 11 -10z m30 -40 c3 -5 4 -10 1 -10 -3 0 -8 5 -11 10 -3 6 -4 10 -1 10 3 0 8 -4 11 -10z m1415 -24 c0 -3 -5 -8 -12 -12 -7 -4 -8 -3 -4 4 7 12 16 16 16 8z m360 -40 c0 -3 -5 -8 -12 -12 -7 -4 -8 -3 -4 4 7 12 16 16 16 8z m-2115 -36 c3 -5 4 -10 1 -10 -3 0 -8 5 -11 10 -3 6 -4 10 -1 10 3 0 8 -4 11 -10z m1685 6 c0 -3 -5 -8 -12 -12 -7 -4 -8 -3 -4 4 7 12 16 16 16 8z m410 0 c0 -3 -5 -8 -12 -12 -7 -4 -8 -3 -4 4 7 12 16 16 16 8z m-1615 -46 c3 -5 4 -10 1 -10 -3 0 -8 5 -11 10 -3 6 -4 10 -1 10 3 0 8 -4 11 -10z m-400 -70 c3 -5 4 -10 1 -10 -3 0 -8 5 -11 10 -3 6 -4 10 -1 10 3 0 8 -4 11 -10z m1405 -24 c0 -3 -5 -8 -12 -12 -7 -4 -8 -3 -4 4 7 12 16 16 16 8z m490 -19 c0 -1 -26 -27 -57 -57 l-58 -55 55 58 c50 53 60 62 60 54z m-1839 -24 c13 -16 12 -17 -3 -4 -10 7 -18 15 -18 17 0 8 8 3 21 -13z m606 -10 c-4 -3 -10 -3 -14 0 -3 4 0 7 7 7 7 0 10 -3 7 -7z m-551 -45 l29 -33 -32 29 c-18 17 -33 31 -33 33 0 8 8 1 36 -29z m1121 25 c-4 -3 -10 -3 -14 0 -3 4 0 7 7 7 7 0 10 -3 7 -7z m-470 -10 c-4 -3 -10 -3 -14 0 -3 4 0 7 7 7 7 0 10 -3 7 -7z m440 0 c-4 -3 -10 -3 -14 0 -3 4 0 7 7 7 7 0 10 -3 7 -7z m-400 -10 c-4 -3 -10 -3 -14 0 -3 4 0 7 7 7 7 0 10 -3 7 -7z m360 0 c-4 -3 -10 -3 -14 0 -3 4 0 7 7 7 7 0 10 -3 7 -7z m-300 -9 c-3 -3 -12 -4 -19 -1 -8 3 -5 6 6 6 11 1 17 -2 13 -5z m250 0 c-3 -3 -12 -4 -19 -1 -8 3 -5 6 6 6 11 1 17 -2 13 -5z m-932 -54 c3 -5 4 -10 1 -10 -3 0 -8 5 -11 10 -3 6 -4 10 -1 10 3 0 8 -4 11 -10z m80 -60 c3 -5 4 -10 1 -10 -3 0 -8 5 -11 10 -3 6 -4 10 -1 10 3 0 8 -4 11 -10z m1355 -34 c0 -3 -5 -8 -12 -12 -7 -4 -8 -3 -4 4 7 12 16 16 16 8z m-1255 -26 c3 -6 -1 -7 -9 -4 -18 7 -21 14 -7 14 6 0 13 -4 16 -10z m182 -87 c-4 -3 -10 -3 -14 0 -3 4 0 7 7 7 7 0 10 -3 7 -7z m70 -20 c-4 -3 -10 -3 -14 0 -3 4 0 7 7 7 7 0 10 -3 7 -7z m30 -10 c-4 -3 -10 -3 -14 0 -3 4 0 7 7 7 7 0 10 -3 7 -7z m30 -10 c-4 -3 -10 -3 -14 0 -3 4 0 7 7 7 7 0 10 -3 7 -7z m590 0 c-4 -3 -10 -3 -14 0 -3 4 0 7 7 7 7 0 10 -3 7 -7z m-550 -10 c-4 -3 -10 -3 -14 0 -3 4 0 7 7 7 7 0 10 -3 7 -7z m510 0 c-4 -3 -10 -3 -14 0 -3 4 0 7 7 7 7 0 10 -3 7 -7z m-430 -9 c-3 -3 -12 -4 -19 -1 -8 3 -5 6 6 6 11 1 17 -2 13 -5z m360 0 c-3 -3 -12 -4 -19 -1 -8 3 -5 6 6 6 11 1 17 -2 13 -5z m-279 -11 c-10 -2 -26 -2 -35 0 -10 3 -2 5 17 5 19 0 27 -2 18 -5z m210 0 c-10 -2 -26 -2 -35 0 -10 3 -2 5 17 5 19 0 27 -2 18 -5z m-4321 -740 c-4 -3 -10 -3 -14 0 -3 4 0 7 7 7 7 0 10 -3 7 -7z m174 -13 c-13 -11 -34 -20 -47 -20 -22 0 -23 3 -14 20 8 15 21 20 48 20 l37 -1 -24 -19z"/>
<path d="M4465 250 c3 -5 11 -10 16 -10 6 0 7 5 4 10 -3 6 -11 10 -16 10 -6 0 -7 -4 -4 -10z"/>
</g>
<g id="layer103" fill="#363636" stroke="none">
<path d="M2261 6216 c2 -2 38 -23 79 -46 106 -60 121 -68 260 -150 69 -40 172 -100 230 -133 58 -33 202 -116 320 -185 253 -147 638 -370 870 -504 91 -53 181 -105 200 -116 19 -12 78 -45 130 -75 52 -30 151 -87 220 -127 111 -65 256 -149 345 -200 17 -9 86 -50 155 -90 69 -40 172 -100 230 -133 58 -33 202 -116 320 -185 118 -68 314 -182 435 -252 121 -70 301 -175 400 -232 99 -58 200 -116 225 -130 54 -31 189 -109 360 -208 145 -85 297 -172 358 -207 24 -13 69 -40 100 -59 31 -18 60 -34 63 -34 4 0 34 34 69 75 67 82 191 190 284 249 125 79 315 151 466 177 97 17 294 17 390 0 394 -68 737 -318 912 -666 159 -314 178 -678 52 -1008 -14 -37 -29 -67 -33 -67 -3 0 -38 19 -76 43 -115 71 -182 106 -189 100 -3 -4 1 8 10 25 26 53 52 159 65 262 23 190 -28 429 -122 568 -16 24 -29 46 -29 49 0 11 -112 137 -154 174 -376 329 -923 309 -1280 -46 l-91 -91 -65 34 c-36 19 -93 52 -127 73 -34 22 -66 39 -70 39 -21 0 -130 -199 -165 -300 -53 -155 -62 -216 -62 -420 0 -170 3 -206 22 -280 100 -379 329 -664 667 -829 172 -85 344 -124 540 -124 336 0 637 125 875 363 93 93 155 175 220 292 18 32 35 58 38 58 9 0 125 -65 315 -177 62 -36 157 -91 212 -122 55 -32 186 -107 290 -168 374 -218 622 -361 725 -420 58 -33 161 -93 230 -133 151 -88 159 -93 285 -165 55 -31 105 -60 110 -64 6 -4 36 -22 68 -40 l57 -32 0 1840 0 1841 -184 0 c-104 0 -186 4 -188 9 -2 5 -125 12 -278 16 -151 4 -322 11 -380 16 -57 5 -107 6 -111 1 -4 -4 -11 -62 -15 -129 -4 -68 -10 -123 -14 -123 -4 0 -10 -102 -14 -227 -3 -126 -10 -268 -15 -318 -5 -49 -12 -127 -16 -172 -6 -65 -11 -82 -25 -86 -37 -9 -575 29 -601 43 -15 8 -18 19 -14 53 13 132 25 287 30 392 3 66 10 158 15 205 6 47 13 160 16 251 l6 167 -108 1 c-60 1 -118 4 -129 7 -22 5 -129 14 -495 44 -135 11 -299 25 -365 31 -66 7 -130 12 -142 13 -20 1 -21 5 -17 41 2 22 9 87 15 145 6 58 14 141 20 185 5 44 12 110 15 148 l7 67 101 0 c55 -1 135 -5 176 -10 75 -10 654 -48 866 -57 l110 -5 13 223 c7 123 17 256 22 294 6 39 16 162 24 275 8 113 17 220 21 238 8 37 2 36 164 22 58 -6 185 -16 283 -24 98 -7 179 -15 182 -17 2 -2 -1 -74 -6 -159 -23 -405 -47 -876 -43 -881 2 -3 56 -9 121 -13 65 -3 183 -10 263 -16 346 -23 462 -29 573 -30 l117 0 0 670 0 670 -4872 0 c-2679 0 -4869 -2 -4867 -4z m5559 -3270 c0 -3 -5 -8 -12 -12 -7 -4 -8 -3 -4 4 7 12 16 16 16 8z m-103 -203 c-4 -3 -7 0 -7 7 0 7 3 10 7 7 3 -4 3 -10 0 -14z m-20 -60 c-4 -3 -7 0 -7 7 0 7 3 10 7 7 3 -4 3 -10 0 -14z m-10 -35 c-3 -8 -6 -5 -6 6 -1 11 2 17 5 13 3 -3 4 -12 1 -19z m-10 -65 c-4 -3 -7 0 -7 7 0 7 3 10 7 7 3 -4 3 -10 0 -14z m-10 -70 c-3 -10 -5 -4 -5 12 0 17 2 24 5 18 2 -7 2 -21 0 -30z m0 -175 c-3 -7 -5 -2 -5 12 0 14 2 19 5 13 2 -7 2 -19 0 -25z m10 -65 c-4 -3 -7 0 -7 7 0 7 3 10 7 7 3 -4 3 -10 0 -14z m10 -60 c-4 -3 -7 0 -7 7 0 7 3 10 7 7 3 -4 3 -10 0 -14z m30 -100 c-4 -3 -7 0 -7 7 0 7 3 10 7 7 3 -4 3 -10 0 -14z m1683 -137 c0 -3 -5 -8 -12 -12 -7 -4 -8 -3 -4 4 7 12 16 16 16 8z m-30 -50 c0 -3 -5 -8 -12 -12 -7 -4 -8 -3 -4 4 7 12 16 16 16 8z m-1525 -36 c3 -5 4 -10 1 -10 -3 0 -8 5 -11 10 -3 6 -4 10 -1 10 3 0 8 -4 11 -10z m30 -40 c3 -5 4 -10 1 -10 -3 0 -8 5 -11 10 -3 6 -4 10 -1 10 3 0 8 -4 11 -10z m1435 -3 c0 -2 -12 -14 -27 -28 l-28 -24 24 28 c23 25 31 32 31 24z m-80 -80 c0 -2 -12 -14 -27 -28 l-28 -24 24 28 c23 25 31 32 31 24z m-1219 -54 c13 -16 12 -17 -3 -4 -10 7 -18 15 -18 17 0 8 8 3 21 -13z m94 -63 c3 -5 4 -10 1 -10 -3 0 -8 5 -11 10 -3 6 -4 10 -1 10 3 0 8 -4 11 -10z m985 6 c0 -3 -5 -8 -12 -12 -7 -4 -8 -3 -4 4 7 12 16 16 16 8z m-30 -20 c0 -3 -5 -8 -12 -12 -7 -4 -8 -3 -4 4 7 12 16 16 16 8z m-40 -20 c0 -3 -5 -8 -12 -12 -7 -4 -8 -3 -4 4 7 12 16 16 16 8z m-793 -33 c-4 -3 -10 -3 -14 0 -3 4 0 7 7 7 7 0 10 -3 7 -7z m740 0 c-4 -3 -10 -3 -14 0 -3 4 0 7 7 7 7 0 10 -3 7 -7z m-690 -20 c-4 -3 -10 -3 -14 0 -3 4 0 7 7 7 7 0 10 -3 7 -7z m610 -10 c-4 -3 -10 -3 -14 0 -3 4 0 7 7 7 7 0 10 -3 7 -7z m-540 -10 c-4 -3 -10 -3 -14 0 -3 4 0 7 7 7 7 0 10 -3 7 -7z m500 0 c-4 -3 -10 -3 -14 0 -3 4 0 7 7 7 7 0 10 -3 7 -7z m-470 -10 c-4 -3 -10 -3 -14 0 -3 4 0 7 7 7 7 0 10 -3 7 -7z m440 0 c-4 -3 -10 -3 -14 0 -3 4 0 7 7 7 7 0 10 -3 7 -7z m-400 -10 c-4 -3 -10 -3 -14 0 -3 4 0 7 7 7 7 0 10 -3 7 -7z m360 0 c-4 -3 -10 -3 -14 0 -3 4 0 7 7 7 7 0 10 -3 7 -7z m-269 -10 c-10 -2 -28 -2 -40 0 -13 2 -5 4 17 4 22 1 32 -1 23 -4z m205 0 c-13 -2 -33 -2 -45 0 -13 2 -3 4 22 4 25 0 35 -2 23 -4z"/>
<path d="M5622 2151 c2 -7 134 -158 223 -255 36 -40 238 -266 330 -371 136 -154 402 -453 459 -516 28 -30 65 -71 82 -90 88 -99 202 -227 227 -253 15 -17 27 -34 27 -38 0 -5 9 -8 21 -8 18 0 13 8 -28 54 -26 30 -113 127 -192 217 -80 90 -152 171 -161 179 -9 8 -81 89 -161 179 -79 90 -186 211 -238 270 -51 58 -128 144 -171 191 -42 47 -117 130 -165 185 -205 231 -268 295 -253 256z"/>
<path d="M4621 1388 c-30 -57 -73 -138 -95 -180 l-41 -77 -40 23 c-22 13 -80 45 -130 71 -49 27 -114 64 -143 83 -29 19 -54 33 -55 31 -22 -40 -117 -242 -117 -249 0 -6 4 -10 9 -10 5 0 86 -43 180 -96 l170 -96 -85 -165 c-48 -90 -85 -165 -83 -167 33 -24 279 -149 284 -144 1 2 38 73 80 158 42 85 79 157 81 159 2 2 70 -35 152 -83 82 -47 153 -86 158 -86 5 0 42 51 81 113 69 106 72 113 54 127 -10 8 -84 51 -164 95 -81 44 -147 83 -147 88 0 4 40 87 89 186 83 164 88 179 73 193 -9 8 -23 24 -30 34 -11 17 -11 17 -2 -3 6 -13 8 -23 5 -23 -4 0 -54 27 -113 60 -59 33 -110 60 -112 60 -3 0 -30 -46 -59 -102z"/>
<path d="M4944 1449 c-3 -6 -2 -15 3 -20 5 -5 9 -1 9 11 0 23 -2 24 -12 9z"/>
<path d="M4975 1400 c3 -5 8 -10 11 -10 3 0 2 5 -1 10 -3 6 -8 10 -11 10 -3 0 -2 -4 1 -10z"/>
<path d="M4183 1353 c4 -3 10 -3 14 0 3 4 0 7 -7 7 -7 0 -10 -3 -7 -7z"/>
<path d="M3090 994 c0 -17 37 -192 100 -474 11 -47 25 -111 31 -142 13 -62 24 -86 35 -76 8 8 -6 80 -87 441 -11 50 -27 124 -35 162 -8 39 -17 78 -20 88 -7 22 -24 22 -24 1z"/>
<path d="M569 614 c-17 -21 0 -49 32 -49 18 0 25 6 27 24 6 38 -34 55 -59 25z"/>
<path d="M703 623 c-24 -5 -53 -38 -53 -60 0 -18 50 -16 71 3 18 16 43 11 37 -8 -2 -6 -24 -19 -48 -28 -77 -30 -80 -105 -6 -130 31 -10 42 -9 74 7 24 11 38 26 40 41 3 19 -1 22 -31 22 -22 0 -37 -6 -41 -16 -3 -8 -10 -12 -16 -9 -20 12 -9 26 35 45 56 24 75 58 54 96 -20 38 -54 49 -116 37z"/>
<path d="M849 614 c-17 -21 0 -49 32 -49 18 0 25 6 27 24 6 38 -34 55 -59 25z"/>
<path d="M400 510 l0 -110 70 0 c68 0 70 1 70 25 0 23 -4 25 -40 25 -29 0 -40 4 -40 15 0 10 11 15 35 15 31 0 35 3 35 25 0 22 -4 25 -35 25 -31 0 -35 3 -35 25 0 23 4 25 40 25 33 0 40 3 40 20 0 18 -7 20 -70 20 l-70 0 0 -110z"/>
<path d="M5120 790 c0 -7 3 -10 7 -7 3 4 3 10 0 14 -4 3 -7 0 -7 -7z"/>
<path d="M5143 753 c4 -3 10 -3 14 0 3 4 0 7 -7 7 -7 0 -10 -3 -7 -7z"/>
<path d="M4144 528 c-4 -7 -3 -8 4 -4 12 7 16 16 8 16 -3 0 -8 -5 -12 -12z"/>
<path d="M6848 323 c7 -3 16 -2 19 1 4 3 -2 6 -13 5 -11 0 -14 -3 -6 -6z"/>
<path d="M4443 293 c4 -3 10 -3 14 0 3 4 0 7 -7 7 -7 0 -10 -3 -7 -7z"/>
<path d="M4374 278 c-4 -7 -3 -8 4 -4 7 4 12 9 12 12 0 8 -9 4 -16 -8z"/>
</g>
<g id="layer104" fill="#e2e749" stroke="none">
<path d="M0 5464 l0 -756 28 17 c30 20 1258 873 1795 1247 26 18 70 49 97 68 27 19 72 51 100 70 28 19 74 52 102 73 l52 37 -1087 0 -1087 0 0 -756z"/>
<path d="M2261 6216 c2 -2 38 -23 79 -46 106 -60 121 -68 260 -150 69 -40 172 -100 230 -133 58 -33 202 -116 320 -185 253 -147 638 -370 870 -504 91 -53 181 -105 200 -116 19 -12 78 -45 130 -75 52 -30 151 -87 220 -127 111 -65 256 -149 345 -200 17 -9 86 -50 155 -90 69 -40 172 -100 230 -133 58 -33 202 -116 320 -185 118 -68 314 -182 435 -252 121 -70 301 -175 400 -232 99 -58 200 -116 225 -130 54 -31 189 -109 360 -208 131 -77 291 -169 350 -202 19 -11 66 -39 104 -61 l69 -41 26 34 c50 68 157 173 235 233 182 139 399 224 637 248 370 38 752 -106 1015 -383 161 -170 258 -352 316 -593 18 -74 22 -120 22 -260 0 -184 -15 -278 -69 -421 -15 -38 -29 -76 -32 -85 -3 -12 10 -25 49 -46 78 -43 135 -76 261 -150 62 -36 157 -91 212 -122 55 -32 186 -107 290 -168 374 -218 622 -361 725 -420 58 -33 161 -93 230 -133 151 -88 159 -93 285 -165 55 -31 105 -60 110 -64 6 -4 36 -22 68 -40 l57 -32 0 1840 0 1841 -184 0 c-104 0 -186 4 -188 9 -2 5 -125 12 -278 16 -151 4 -322 11 -380 16 -57 5 -107 6 -111 1 -4 -4 -11 -62 -15 -129 -4 -68 -10 -123 -14 -123 -4 0 -10 -102 -14 -227 -3 -126 -10 -268 -15 -318 -5 -49 -12 -127 -16 -172 -6 -65 -11 -82 -25 -86 -37 -9 -575 29 -601 43 -15 8 -18 19 -14 53 13 132 25 287 30 392 3 66 10 158 15 205 6 47 13 160 16 251 l6 167 -108 1 c-60 1 -118 4 -129 7 -22 5 -129 14 -495 44 -135 11 -299 25 -365 31 -66 7 -130 12 -142 13 -20 1 -21 5 -17 41 2 22 9 87 15 145 6 58 14 141 20 185 5 44 12 110 15 148 4 38 11 67 18 68 49 3 204 -4 270 -12 78 -9 617 -44 857 -56 l115 -5 13 223 c7 123 17 256 22 294 6 39 16 162 24 275 8 113 17 220 21 238 8 37 2 36 164 22 58 -6 185 -16 283 -24 98 -7 179 -15 182 -17 2 -2 -1 -74 -6 -159 -23 -405 -47 -876 -43 -881 2 -3 56 -9 121 -13 65 -3 183 -10 263 -16 346 -23 462 -29 573 -30 l117 0 0 670 0 670 -4872 0 c-2679 0 -4869 -2 -4867 -4z"/>
<path d="M8360 3334 c-193 -51 -357 -154 -482 -303 l-37 -43 -78 43 c-43 23 -101 58 -130 76 -29 18 -56 33 -60 33 -21 0 -130 -199 -165 -300 -53 -155 -62 -216 -62 -420 0 -170 3 -206 22 -280 100 -379 329 -664 667 -829 172 -85 344 -124 540 -124 256 0 481 69 700 214 98 66 254 220 316 314 47 70 109 177 109 187 0 6 -149 97 -207 127 -23 11 -44 25 -47 29 -3 5 5 38 18 73 35 98 51 194 50 309 -1 251 -89 465 -264 641 -134 136 -256 207 -434 253 -138 36 -319 36 -456 0z m-387 -425 c67 -40 131 -77 142 -83 34 -19 409 -237 425 -247 8 -5 121 -70 250 -145 672 -388 649 -374 642 -392 -50 -119 -168 -264 -288 -353 -314 -232 -733 -245 -1059 -34 -147 96 -275 245 -347 403 -100 220 -106 494 -16 722 35 90 101 200 119 200 5 0 64 -32 132 -71z"/>
</g>
<g id="layer105" fill="#ffffff" stroke="none">
<path d="M7534 3093 c-75 -114 -126 -237 -166 -393 -19 -73 -22 -113 -22 -280 0 -170 3 -206 22 -280 100 -379 329 -664 667 -829 172 -85 344 -124 540 -124 256 0 481 69 700 214 98 66 254 220 316 314 47 70 109 177 109 187 0 6 -101 69 -192 119 l-67 37 -32 -62 c-155 -298 -481 -492 -824 -490 -363 2 -696 219 -847 552 -130 286 -97 660 79 899 l23 32 -78 42 c-42 24 -100 58 -129 76 -29 18 -56 33 -60 33 -5 0 -22 -21 -39 -47z"/>
<path d="M5622 2151 c3 -8 127 -149 383 -434 44 -49 121 -135 170 -192 50 -56 180 -202 290 -325 110 -123 240 -269 289 -324 176 -199 231 -256 244 -256 7 0 -8 24 -35 54 -26 30 -113 127 -192 217 -80 90 -152 171 -161 179 -9 8 -81 89 -161 179 -79 90 -186 211 -238 270 -51 58 -128 144 -171 191 -42 47 -117 130 -165 185 -205 232 -268 295 -253 256z"/>
<path d="M2152 1992 c-63 -23 -124 -78 -158 -144 -35 -69 -34 -185 2 -254 35 -67 69 -100 134 -132 144 -71 317 -7 386 142 45 96 26 225 -44 307 -74 86 -209 120 -320 81z m172 -151 c92 -57 89 -188 -5 -241 -125 -70 -261 76 -183 196 41 62 127 82 188 45z"/>
<path d="M4621 1388 c-30 -57 -73 -138 -95 -180 l-41 -77 -40 23 c-22 13 -80 45 -130 71 -49 27 -112 61 -138 77 -26 15 -51 28 -55 28 -8 0 -122 -224 -122 -240 0 -6 4 -10 9 -10 5 0 86 -43 180 -96 l170 -96 -85 -165 c-48 -90 -85 -165 -83 -167 33 -24 279 -149 284 -144 1 2 38 73 80 158 42 85 79 157 81 159 2 2 70 -35 152 -83 82 -47 153 -86 158 -86 5 0 42 51 81 113 69 106 72 113 54 127 -10 8 -84 51 -164 95 -81 44 -147 83 -147 88 0 4 40 87 89 185 l88 177 -132 73 c-72 39 -134 72 -136 72 -2 0 -29 -46 -58 -102z"/>
<path d="M3095 973 c5 -31 122 -570 140 -651 6 -23 25 -31 25 -9 0 11 -31 156 -90 417 -19 88 -48 218 -56 258 -8 40 -27 25 -19 -15z"/>
<path d="M270 520 l0 -370 365 0 365 0 0 370 0 370 -365 0 -365 0 0 -370z m700 -5 l0 -335 -335 0 -335 0 0 335 0 335 335 0 335 0 0 -335z"/>
<path d="M583 623 c-7 -2 -13 -16 -13 -29 0 -19 5 -24 25 -24 30 0 43 24 25 45 -13 16 -17 17 -37 8z"/>
<path d="M863 623 c-7 -2 -13 -16 -13 -29 0 -19 5 -24 25 -24 30 0 43 24 25 45 -13 16 -17 17 -37 8z"/>
<path d="M400 510 l0 -110 71 0 c67 0 70 1 67 23 -2 18 -10 23 -40 25 -30 3 -38 7 -38 23 0 15 7 19 35 19 28 0 35 4 35 20 0 16 -7 20 -35 20 -31 0 -35 3 -35 25 0 23 4 25 40 25 33 0 40 3 40 20 0 18 -7 20 -70 20 l-70 0 0 -110z"/>
<path d="M670 593 l-22 -28 27 -3 c15 -2 32 1 38 7 17 17 47 13 47 -7 0 -12 -14 -22 -42 -32 -26 -9 -48 -25 -57 -42 -14 -25 -14 -29 5 -55 28 -38 98 -44 132 -13 12 11 22 25 22 30 0 14 -54 12 -67 -1 -13 -13 -43 -5 -43 11 0 6 17 18 38 27 52 21 72 42 72 73 0 39 -29 60 -83 60 -38 0 -49 -5 -67 -27z"/>
<path d="M6853 323 c4 -3 10 -3 14 0 3 4 0 7 -7 7 -7 0 -10 -3 -7 -7z"/>
</g>


</svg>