<?xml version="1.0" encoding="UTF-8"?>
<svg xmlns="http://www.w3.org/2000/svg" xmlns:xlink="http://www.w3.org/1999/xlink" width="100pt" height="52pt" viewBox="0 0 100 52" version="1.1">
<g id="surface1">
<path style=" stroke:none;fill-rule:nonzero;fill:rgb(100%,100%,100%);fill-opacity:1;" d="M 0 0 L 0 52 L 100 52 L 100 51.902344 L 0.136719 51.902344 L 0.136719 0 Z M 0 0 "/>
<path style=" stroke:none;fill-rule:nonzero;fill:rgb(90.980392%,92.941176%,44.313725%);fill-opacity:1;" d="M 0.136719 0 L 0.136719 48.273438 C 0.257812 47.960938 0.183594 47.496094 0.183594 47.160156 L 0.183594 1.015625 C 0.183594 0.707031 0.25 0.289062 0.136719 0 Z M 0.136719 0 "/>
<path style=" stroke:none;fill-rule:nonzero;fill:rgb(88.235294%,90.196078%,26.27451%);fill-opacity:1;" d="M 0.183594 0 L 0.183594 48.175781 C 0.304688 47.863281 0.226562 47.398438 0.226562 47.0625 L 0.226562 0.96875 C 0.226562 0.671875 0.289062 0.277344 0.183594 0 Z M 0.183594 0 "/>
<path style=" stroke:none;fill-rule:nonzero;fill:rgb(88.627451%,90.588235%,28.627451%);fill-opacity:1;" d="M 0.226562 0 L 0.226562 46.527344 C 0.226562 47.074219 0.300781 47.691406 0.183594 48.222656 L 8.726562 48.222656 C 8.921875 48.222656 9.261719 48.292969 9.429688 48.171875 C 9.535156 48.097656 9.582031 47.953125 9.632812 47.835938 L 10 47.0625 C 10.421875 46.15625 10.855469 45.257812 11.273438 44.351562 C 11.714844 45.246094 12.132812 46.15625 12.550781 47.0625 C 12.671875 47.320312 12.792969 47.578125 12.914062 47.835938 C 12.96875 47.949219 13.015625 48.101562 13.117188 48.171875 C 13.316406 48.316406 13.769531 48.222656 14 48.222656 L 16.363281 48.222656 C 16.46875 47.835938 16.6875 47.46875 16.859375 47.109375 C 17.089844 46.625 17.300781 46.132812 17.546875 45.65625 C 17.792969 46.285156 18.113281 46.890625 18.402344 47.496094 C 18.503906 47.707031 18.613281 48.046875 18.835938 48.148438 C 18.984375 48.214844 19.203125 48.175781 19.363281 48.175781 L 100 48.175781 L 100 0 Z M 0.226562 0 "/>
<path style=" stroke:none;fill-rule:nonzero;fill:rgb(89.411765%,91.372549%,28.627451%);fill-opacity:1;" d="M 32.136719 5.808594 C 32.28125 6.628906 32.183594 7.542969 32.183594 8.375 L 32.183594 35.152344 C 32.183594 35.386719 32.214844 35.605469 32.046875 35.78125 C 32.238281 35.824219 32.226562 35.59375 32.226562 35.441406 C 32.230469 35.023438 32.226562 34.601562 32.226562 34.183594 L 32.226562 6.34375 C 32.226562 6.148438 32.25 5.96875 32.136719 5.808594 Z M 32.136719 5.808594 "/>
<path style=" stroke:none;fill-rule:nonzero;fill:rgb(90.588235%,92.941176%,29.411765%);fill-opacity:1;" d="M 32 5.859375 L 32 35.78125 C 32.082031 35.578125 32.046875 35.320312 32.046875 35.101562 L 32.046875 6.585938 C 32.046875 6.351562 32.085938 6.074219 32 5.859375 Z M 32 5.859375 "/>
<path style=" stroke:none;fill-rule:nonzero;fill:rgb(85.098039%,86.666667%,27.843137%);fill-opacity:1;" d="M 32.046875 5.859375 L 32.046875 35.78125 C 32.125 35.578125 32.089844 35.320312 32.089844 35.101562 L 32.089844 6.585938 C 32.089844 6.351562 32.128906 6.074219 32.046875 5.859375 Z M 32.046875 5.859375 "/>
<path style=" stroke:none;fill-rule:nonzero;fill:rgb(12.156863%,12.156863%,3.921569%);fill-opacity:1;" d="M 32.089844 5.859375 L 32.089844 35.78125 C 32.171875 35.578125 32.136719 35.320312 32.136719 35.101562 L 32.136719 6.585938 C 32.136719 6.351562 32.175781 6.074219 32.089844 5.859375 Z M 32.089844 5.859375 "/>
<path style=" stroke:none;fill-rule:nonzero;fill:rgb(94.509804%,96.078431%,30.588235%);fill-opacity:1;" d="M 32.136719 5.90625 L 32.136719 35.730469 C 32.214844 35.527344 32.183594 35.273438 32.183594 35.054688 L 32.183594 6.632812 C 32.183594 6.398438 32.222656 6.125 32.136719 5.90625 Z M 32.136719 5.90625 "/>
<path style=" stroke:none;fill-rule:nonzero;fill:rgb(52.156863%,52.941176%,21.960784%);fill-opacity:1;" d="M 11.257812 44.367188 C 11.238281 44.386719 11.285156 44.386719 11.289062 44.382812 C 11.308594 44.359375 11.261719 44.363281 11.257812 44.367188 Z M 11.257812 44.367188 "/>
<path style=" stroke:none;fill-rule:nonzero;fill:rgb(25.490196%,25.882353%,17.254902%);fill-opacity:1;" d="M 11.257812 44.414062 C 11.238281 44.4375 11.285156 44.433594 11.289062 44.429688 C 11.308594 44.410156 11.261719 44.410156 11.257812 44.414062 Z M 11.257812 44.414062 "/>
<path style=" stroke:none;fill-rule:nonzero;fill:rgb(15.294118%,15.294118%,15.294118%);fill-opacity:1;" d="M 11.226562 44.445312 C 10.796875 45.304688 10.410156 46.191406 10 47.0625 C 9.820312 47.449219 9.523438 47.882812 9.5 48.320312 L 0.226562 48.320312 L 0.226562 51.804688 L 100 51.804688 L 100 48.367188 L 19.726562 48.367188 C 19.394531 48.367188 19.050781 48.402344 18.726562 48.320312 C 18.710938 48.046875 18.535156 47.792969 18.429688 47.546875 C 18.164062 46.945312 17.886719 46.339844 17.589844 45.753906 L 17.5 45.753906 C 17.191406 46.332031 16.929688 46.949219 16.652344 47.546875 C 16.546875 47.773438 16.445312 48.140625 16.222656 48.269531 C 16.0625 48.363281 15.816406 48.320312 15.636719 48.320312 L 13.453125 48.320312 C 13.328125 48.320312 13.175781 48.339844 13.074219 48.242188 C 12.804688 47.988281 12.742188 47.488281 12.597656 47.160156 C 12.191406 46.25 11.773438 45.328125 11.316406 44.445312 Z M 11.226562 44.445312 "/>
<path style=" stroke:none;fill-rule:nonzero;fill:rgb(65.490196%,66.666667%,24.313725%);fill-opacity:1;" d="M 11.363281 44.542969 L 11.410156 44.59375 Z M 11.363281 44.542969 "/>
<path style=" stroke:none;fill-rule:nonzero;fill:rgb(41.568627%,42.352941%,20.392157%);fill-opacity:1;" d="M 11.105469 44.671875 C 11.105469 44.675781 11.101562 44.726562 11.121094 44.707031 C 11.125 44.703125 11.125 44.652344 11.105469 44.671875 Z M 11.105469 44.671875 "/>
<path style=" stroke:none;fill-rule:nonzero;fill:rgb(31.764706%,32.156863%,18.431373%);fill-opacity:1;" d="M 11.425781 44.671875 C 11.421875 44.675781 11.417969 44.726562 11.4375 44.707031 C 11.441406 44.703125 11.445312 44.652344 11.425781 44.671875 Z M 11.425781 44.671875 "/>
<path style=" stroke:none;fill-rule:nonzero;fill:rgb(67.843137%,69.019608%,24.705882%);fill-opacity:1;" d="M 11.046875 44.738281 L 11.089844 44.785156 Z M 11.046875 44.738281 "/>
<path style=" stroke:none;fill-rule:nonzero;fill:rgb(56.470588%,57.647059%,22.745098%);fill-opacity:1;" d="M 11.453125 44.738281 L 11.5 44.785156 Z M 11.453125 44.738281 "/>
<path style=" stroke:none;fill-rule:nonzero;fill:rgb(35.686275%,35.294118%,18.431373%);fill-opacity:1;" d="M 11.046875 44.785156 L 11.089844 44.835938 Z M 11.046875 44.785156 "/>
<path style=" stroke:none;fill-rule:nonzero;fill:rgb(65.882353%,67.058824%,23.921569%);fill-opacity:1;" d="M 11.546875 44.929688 L 11.589844 44.980469 Z M 11.546875 44.929688 "/>
<path style=" stroke:none;fill-rule:nonzero;fill:rgb(41.960784%,42.745098%,20.392157%);fill-opacity:1;" d="M 10.925781 45.058594 C 10.921875 45.0625 10.917969 45.113281 10.9375 45.09375 C 10.941406 45.089844 10.945312 45.039062 10.925781 45.058594 Z M 10.925781 45.058594 "/>
<path style=" stroke:none;fill-rule:nonzero;fill:rgb(31.372549%,31.764706%,18.823529%);fill-opacity:1;" d="M 11.605469 45.058594 C 11.605469 45.0625 11.601562 45.113281 11.621094 45.09375 C 11.625 45.089844 11.625 45.039062 11.605469 45.058594 Z M 11.605469 45.058594 "/>
<path style=" stroke:none;fill-rule:nonzero;fill:rgb(67.843137%,69.019608%,24.705882%);fill-opacity:1;" d="M 10.863281 45.125 L 10.910156 45.171875 Z M 10.863281 45.125 "/>
<path style=" stroke:none;fill-rule:nonzero;fill:rgb(54.901961%,56.078431%,22.352941%);fill-opacity:1;" d="M 11.636719 45.125 L 11.683594 45.171875 Z M 11.636719 45.125 "/>
<path style=" stroke:none;fill-rule:nonzero;fill:rgb(36.470588%,36.470588%,18.431373%);fill-opacity:1;" d="M 10.863281 45.171875 L 10.910156 45.222656 Z M 10.863281 45.171875 "/>
<path style=" stroke:none;fill-rule:nonzero;fill:rgb(67.058824%,68.235294%,24.705882%);fill-opacity:1;" d="M 11.726562 45.320312 L 11.773438 45.367188 Z M 11.726562 45.320312 "/>
<path style=" stroke:none;fill-rule:nonzero;fill:rgb(41.568627%,41.568627%,20.392157%);fill-opacity:1;" d="M 10.742188 45.449219 C 10.738281 45.449219 10.738281 45.5 10.757812 45.480469 C 10.761719 45.476562 10.761719 45.425781 10.742188 45.449219 Z M 10.742188 45.449219 "/>
<path style=" stroke:none;fill-rule:nonzero;fill:rgb(31.372549%,31.372549%,18.823529%);fill-opacity:1;" d="M 11.789062 45.449219 C 11.785156 45.449219 11.78125 45.5 11.804688 45.480469 C 11.804688 45.476562 11.808594 45.425781 11.789062 45.449219 Z M 11.789062 45.449219 "/>
<path style=" stroke:none;fill-rule:nonzero;fill:rgb(66.27451%,67.843137%,24.313725%);fill-opacity:1;" d="M 10.683594 45.511719 L 10.726562 45.558594 Z M 10.683594 45.511719 "/>
<path style=" stroke:none;fill-rule:nonzero;fill:rgb(54.901961%,56.078431%,22.745098%);fill-opacity:1;" d="M 11.816406 45.511719 L 11.863281 45.558594 Z M 11.816406 45.511719 "/>
<path style=" stroke:none;fill-rule:nonzero;fill:rgb(35.686275%,36.078431%,18.431373%);fill-opacity:1;" d="M 10.683594 45.558594 L 10.726562 45.609375 Z M 10.683594 45.558594 "/>
<path style=" stroke:none;fill-rule:nonzero;fill:rgb(33.333333%,33.72549%,18.431373%);fill-opacity:1;" d="M 17.515625 45.691406 C 17.511719 45.691406 17.511719 45.742188 17.53125 45.722656 C 17.53125 45.71875 17.535156 45.667969 17.515625 45.691406 Z M 17.515625 45.691406 "/>
<path style=" stroke:none;fill-rule:nonzero;fill:rgb(68.235294%,69.411765%,24.705882%);fill-opacity:1;" d="M 11.910156 45.707031 L 11.953125 45.753906 Z M 11.910156 45.707031 "/>
<path style=" stroke:none;fill-rule:nonzero;fill:rgb(55.294118%,56.078431%,22.352941%);fill-opacity:1;" d="M 17.546875 45.707031 L 17.589844 45.753906 Z M 17.546875 45.707031 "/>
<path style=" stroke:none;fill-rule:nonzero;fill:rgb(68.627451%,70.196078%,25.098039%);fill-opacity:1;" d="M 17.453125 45.753906 L 17.5 45.800781 Z M 17.453125 45.753906 "/>
<path style=" stroke:none;fill-rule:nonzero;fill:rgb(41.960784%,42.352941%,20.392157%);fill-opacity:1;" d="M 10.5625 45.835938 C 10.558594 45.835938 10.554688 45.890625 10.574219 45.867188 C 10.578125 45.863281 10.582031 45.8125 10.5625 45.835938 Z M 10.5625 45.835938 "/>
<path style=" stroke:none;fill-rule:nonzero;fill:rgb(30.588235%,30.980392%,18.431373%);fill-opacity:1;" d="M 11.96875 45.835938 C 11.96875 45.835938 11.964844 45.890625 11.984375 45.867188 C 11.988281 45.863281 11.988281 45.8125 11.96875 45.835938 Z M 11.96875 45.835938 "/>
<path style=" stroke:none;fill-rule:nonzero;fill:rgb(66.27451%,67.843137%,24.313725%);fill-opacity:1;" d="M 10.5 45.898438 L 10.546875 45.949219 Z M 10.5 45.898438 "/>
<path style=" stroke:none;fill-rule:nonzero;fill:rgb(54.117647%,55.294118%,22.352941%);fill-opacity:1;" d="M 12 45.898438 L 12.046875 45.949219 Z M 12 45.898438 "/>
<path style=" stroke:none;fill-rule:nonzero;fill:rgb(36.078431%,36.862745%,19.215686%);fill-opacity:1;" d="M 10.5 45.949219 L 10.546875 45.996094 Z M 10.5 45.949219 "/>
<path style=" stroke:none;fill-rule:nonzero;fill:rgb(58.039216%,58.823529%,22.745098%);fill-opacity:1;" d="M 17.363281 45.949219 L 17.410156 45.996094 Z M 17.363281 45.949219 "/>
<path style=" stroke:none;fill-rule:nonzero;fill:rgb(54.901961%,55.686275%,22.745098%);fill-opacity:1;" d="M 17.683594 45.996094 L 17.726562 46.042969 Z M 17.683594 45.996094 "/>
<path style=" stroke:none;fill-rule:nonzero;fill:rgb(36.078431%,36.862745%,19.215686%);fill-opacity:1;" d="M 17.332031 46.078125 C 17.332031 46.078125 17.328125 46.128906 17.347656 46.109375 C 17.351562 46.105469 17.355469 46.054688 17.332031 46.078125 Z M 17.332031 46.078125 "/>
<path style=" stroke:none;fill-rule:nonzero;fill:rgb(68.235294%,69.411765%,24.705882%);fill-opacity:1;" d="M 12.089844 46.09375 L 12.136719 46.140625 Z M 12.089844 46.09375 "/>
<path style=" stroke:none;fill-rule:nonzero;fill:rgb(58.039216%,58.823529%,23.137255%);fill-opacity:1;" d="M 17.726562 46.09375 L 17.773438 46.140625 Z M 17.726562 46.09375 "/>
<path style=" stroke:none;fill-rule:nonzero;fill:rgb(67.45098%,68.627451%,24.313725%);fill-opacity:1;" d="M 17.273438 46.140625 L 17.316406 46.191406 Z M 17.273438 46.140625 "/>
<path style=" stroke:none;fill-rule:nonzero;fill:rgb(41.960784%,42.352941%,20.392157%);fill-opacity:1;" d="M 10.378906 46.222656 C 10.375 46.226562 10.375 46.277344 10.394531 46.253906 C 10.394531 46.25 10.398438 46.199219 10.378906 46.222656 Z M 10.378906 46.222656 "/>
<path style=" stroke:none;fill-rule:nonzero;fill:rgb(30.588235%,30.980392%,18.431373%);fill-opacity:1;" d="M 12.152344 46.222656 C 12.148438 46.226562 12.144531 46.277344 12.167969 46.253906 C 12.167969 46.25 12.171875 46.199219 12.152344 46.222656 Z M 12.152344 46.222656 "/>
<path style=" stroke:none;fill-rule:nonzero;fill:rgb(65.098039%,66.666667%,24.313725%);fill-opacity:1;" d="M 10.316406 46.285156 L 10.363281 46.335938 Z M 10.316406 46.285156 "/>
<path style=" stroke:none;fill-rule:nonzero;fill:rgb(53.72549%,55.294118%,22.352941%);fill-opacity:1;" d="M 12.183594 46.285156 L 12.226562 46.335938 Z M 12.183594 46.285156 "/>
<path style=" stroke:none;fill-rule:nonzero;fill:rgb(36.078431%,36.862745%,19.215686%);fill-opacity:1;" d="M 10.316406 46.335938 L 10.363281 46.382812 Z M 10.316406 46.335938 "/>
<path style=" stroke:none;fill-rule:nonzero;fill:rgb(59.215686%,60%,23.529412%);fill-opacity:1;" d="M 17.183594 46.335938 L 17.226562 46.382812 Z M 17.183594 46.335938 "/>
<path style=" stroke:none;fill-rule:nonzero;fill:rgb(54.117647%,54.901961%,21.960784%);fill-opacity:1;" d="M 17.863281 46.382812 L 17.910156 46.433594 Z M 17.863281 46.382812 "/>
<path style=" stroke:none;fill-rule:nonzero;fill:rgb(36.470588%,37.254902%,19.215686%);fill-opacity:1;" d="M 17.152344 46.464844 C 17.148438 46.46875 17.144531 46.519531 17.167969 46.496094 C 17.167969 46.492188 17.171875 46.441406 17.152344 46.464844 Z M 17.152344 46.464844 "/>
<path style=" stroke:none;fill-rule:nonzero;fill:rgb(69.019608%,70.196078%,25.098039%);fill-opacity:1;" d="M 12.273438 46.480469 L 12.316406 46.527344 Z M 12.273438 46.480469 "/>
<path style=" stroke:none;fill-rule:nonzero;fill:rgb(57.647059%,58.823529%,23.137255%);fill-opacity:1;" d="M 17.910156 46.480469 L 17.953125 46.527344 Z M 17.910156 46.480469 "/>
<path style=" stroke:none;fill-rule:nonzero;fill:rgb(67.45098%,69.019608%,25.098039%);fill-opacity:1;" d="M 17.089844 46.527344 L 17.136719 46.578125 Z M 17.089844 46.527344 "/>
<path style=" stroke:none;fill-rule:nonzero;fill:rgb(41.176471%,41.568627%,20.392157%);fill-opacity:1;" d="M 10.195312 46.609375 C 10.195312 46.613281 10.191406 46.664062 10.210938 46.640625 C 10.214844 46.640625 10.21875 46.589844 10.195312 46.609375 Z M 10.195312 46.609375 "/>
<path style=" stroke:none;fill-rule:nonzero;fill:rgb(30.196078%,30.588235%,18.431373%);fill-opacity:1;" d="M 12.332031 46.609375 C 12.332031 46.613281 12.328125 46.664062 12.347656 46.640625 C 12.351562 46.640625 12.355469 46.589844 12.332031 46.609375 Z M 12.332031 46.609375 "/>
<path style=" stroke:none;fill-rule:nonzero;fill:rgb(65.098039%,66.666667%,24.313725%);fill-opacity:1;" d="M 10.136719 46.675781 L 10.183594 46.722656 Z M 10.136719 46.675781 "/>
<path style=" stroke:none;fill-rule:nonzero;fill:rgb(52.941176%,53.72549%,22.352941%);fill-opacity:1;" d="M 12.363281 46.675781 L 12.410156 46.722656 Z M 12.363281 46.675781 "/>
<path style=" stroke:none;fill-rule:nonzero;fill:rgb(37.254902%,38.039216%,19.215686%);fill-opacity:1;" d="M 10.136719 46.722656 L 10.183594 46.769531 Z M 10.136719 46.722656 "/>
<path style=" stroke:none;fill-rule:nonzero;fill:rgb(60.392157%,60.784314%,23.529412%);fill-opacity:1;" d="M 17 46.722656 L 17.046875 46.769531 Z M 17 46.722656 "/>
<path style=" stroke:none;fill-rule:nonzero;fill:rgb(54.117647%,54.901961%,22.745098%);fill-opacity:1;" d="M 18.046875 46.769531 L 18.089844 46.820312 Z M 18.046875 46.769531 "/>
<path style=" stroke:none;fill-rule:nonzero;fill:rgb(36.078431%,36.470588%,19.215686%);fill-opacity:1;" d="M 16.96875 46.851562 C 16.96875 46.855469 16.964844 46.90625 16.984375 46.882812 C 16.988281 46.882812 16.988281 46.832031 16.96875 46.851562 Z M 16.96875 46.851562 "/>
<path style=" stroke:none;fill-rule:nonzero;fill:rgb(69.803922%,70.980392%,25.098039%);fill-opacity:1;" d="M 12.453125 46.867188 L 12.5 46.917969 Z M 12.453125 46.867188 "/>
<path style=" stroke:none;fill-rule:nonzero;fill:rgb(58.823529%,59.215686%,23.137255%);fill-opacity:1;" d="M 18.089844 46.867188 L 18.136719 46.917969 Z M 18.089844 46.867188 "/>
<path style=" stroke:none;fill-rule:nonzero;fill:rgb(65.882353%,67.45098%,24.313725%);fill-opacity:1;" d="M 16.910156 46.917969 L 16.953125 46.964844 Z M 16.910156 46.917969 "/>
<path style=" stroke:none;fill-rule:nonzero;fill:rgb(41.960784%,42.352941%,20.392157%);fill-opacity:1;" d="M 10.015625 46.996094 C 10.011719 47 10.011719 47.050781 10.03125 47.027344 C 10.03125 47.027344 10.035156 46.976562 10.015625 46.996094 Z M 10.015625 46.996094 "/>
<path style=" stroke:none;fill-rule:nonzero;fill:rgb(30.196078%,30.588235%,18.431373%);fill-opacity:1;" d="M 12.515625 46.996094 C 12.511719 47 12.511719 47.050781 12.53125 47.027344 C 12.53125 47.027344 12.535156 46.976562 12.515625 46.996094 Z M 12.515625 46.996094 "/>
<path style=" stroke:none;fill-rule:nonzero;fill:rgb(63.921569%,65.098039%,23.529412%);fill-opacity:1;" d="M 9.953125 47.0625 L 10 47.109375 Z M 9.953125 47.0625 "/>
<path style=" stroke:none;fill-rule:nonzero;fill:rgb(53.333333%,53.333333%,22.352941%);fill-opacity:1;" d="M 12.546875 47.0625 L 12.589844 47.109375 Z M 12.546875 47.0625 "/>
<path style=" stroke:none;fill-rule:nonzero;fill:rgb(38.039216%,37.647059%,19.215686%);fill-opacity:1;" d="M 9.953125 47.109375 L 10 47.160156 Z M 9.953125 47.109375 "/>
<path style=" stroke:none;fill-rule:nonzero;fill:rgb(60.392157%,61.568627%,23.529412%);fill-opacity:1;" d="M 16.816406 47.109375 L 16.863281 47.160156 Z M 16.816406 47.109375 "/>
<path style=" stroke:none;fill-rule:nonzero;fill:rgb(52.54902%,53.72549%,21.960784%);fill-opacity:1;" d="M 18.226562 47.160156 L 18.273438 47.207031 Z M 18.226562 47.160156 "/>
<path style=" stroke:none;fill-rule:nonzero;fill:rgb(36.470588%,36.862745%,19.215686%);fill-opacity:1;" d="M 16.789062 47.238281 C 16.785156 47.242188 16.78125 47.292969 16.804688 47.269531 C 16.804688 47.269531 16.808594 47.21875 16.789062 47.238281 Z M 16.789062 47.238281 "/>
<path style=" stroke:none;fill-rule:nonzero;fill:rgb(58.823529%,59.607843%,23.137255%);fill-opacity:1;" d="M 18.289062 47.238281 C 18.285156 47.242188 18.28125 47.292969 18.304688 47.269531 C 18.304688 47.269531 18.308594 47.21875 18.289062 47.238281 Z M 18.289062 47.238281 "/>
<path style=" stroke:none;fill-rule:nonzero;fill:rgb(70.196078%,71.764706%,25.098039%);fill-opacity:1;" d="M 12.636719 47.253906 L 12.683594 47.304688 Z M 12.636719 47.253906 "/>
<path style=" stroke:none;fill-rule:nonzero;fill:rgb(65.882353%,67.45098%,24.313725%);fill-opacity:1;" d="M 16.726562 47.304688 L 16.773438 47.351562 Z M 16.726562 47.304688 "/>
<path style=" stroke:none;fill-rule:nonzero;fill:rgb(40.392157%,41.176471%,19.607843%);fill-opacity:1;" d="M 9.832031 47.382812 C 9.832031 47.386719 9.828125 47.4375 9.847656 47.417969 C 9.851562 47.414062 9.855469 47.363281 9.832031 47.382812 Z M 9.832031 47.382812 "/>
<path style=" stroke:none;fill-rule:nonzero;fill:rgb(30.588235%,30.980392%,18.431373%);fill-opacity:1;" d="M 12.695312 47.382812 C 12.695312 47.386719 12.691406 47.4375 12.710938 47.417969 C 12.714844 47.414062 12.71875 47.363281 12.695312 47.382812 Z M 12.695312 47.382812 "/>
<path style=" stroke:none;fill-rule:nonzero;fill:rgb(64.705882%,65.098039%,23.921569%);fill-opacity:1;" d="M 9.773438 47.449219 L 9.816406 47.496094 Z M 9.773438 47.449219 "/>
<path style=" stroke:none;fill-rule:nonzero;fill:rgb(9.803922%,9.019608%,14.509804%);fill-opacity:1;" d="M 12.683594 47.449219 C 12.746094 47.683594 12.878906 48.125 13.074219 48.269531 C 13.265625 48.414062 13.726562 48.320312 13.953125 48.320312 L 16.273438 48.320312 C 16.046875 48.21875 15.742188 48.273438 15.5 48.273438 L 13.910156 48.273438 C 13.699219 48.273438 13.386719 48.332031 13.191406 48.242188 C 12.9375 48.125 12.875 47.652344 12.683594 47.449219 Z M 12.683594 47.449219 "/>
<path style=" stroke:none;fill-rule:nonzero;fill:rgb(51.764706%,52.54902%,21.960784%);fill-opacity:1;" d="M 12.726562 47.449219 L 12.773438 47.496094 Z M 12.726562 47.449219 "/>
<path style=" stroke:none;fill-rule:nonzero;fill:rgb(38.431373%,38.823529%,19.607843%);fill-opacity:1;" d="M 9.773438 47.496094 L 9.816406 47.546875 Z M 9.773438 47.496094 "/>
<path style=" stroke:none;fill-rule:nonzero;fill:rgb(61.176471%,62.745098%,23.529412%);fill-opacity:1;" d="M 16.636719 47.496094 L 16.683594 47.546875 Z M 16.636719 47.496094 "/>
<path style=" stroke:none;fill-rule:nonzero;fill:rgb(70.196078%,71.372549%,25.490196%);fill-opacity:1;" d="M 12.773438 47.546875 L 12.816406 47.59375 Z M 12.773438 47.546875 "/>
<path style=" stroke:none;fill-rule:nonzero;fill:rgb(52.54902%,53.72549%,21.960784%);fill-opacity:1;" d="M 18.410156 47.546875 L 18.453125 47.59375 Z M 18.410156 47.546875 "/>
<path style=" stroke:none;fill-rule:nonzero;fill:rgb(36.862745%,36.470588%,19.215686%);fill-opacity:1;" d="M 16.605469 47.625 C 16.605469 47.628906 16.601562 47.679688 16.621094 47.660156 C 16.625 47.65625 16.625 47.605469 16.605469 47.625 Z M 16.605469 47.625 "/>
<path style=" stroke:none;fill-rule:nonzero;fill:rgb(59.215686%,60.392157%,23.137255%);fill-opacity:1;" d="M 18.46875 47.625 C 18.46875 47.628906 18.464844 47.679688 18.484375 47.660156 C 18.488281 47.65625 18.488281 47.605469 18.46875 47.625 Z M 18.46875 47.625 "/>
<path style=" stroke:none;fill-rule:nonzero;fill:rgb(64.705882%,66.666667%,24.313725%);fill-opacity:1;" d="M 16.546875 47.691406 L 16.589844 47.738281 Z M 16.546875 47.691406 "/>
<path style=" stroke:none;fill-rule:nonzero;fill:rgb(40.784314%,41.568627%,19.607843%);fill-opacity:1;" d="M 9.652344 47.773438 C 9.648438 47.773438 9.644531 47.824219 9.667969 47.804688 C 9.667969 47.800781 9.671875 47.75 9.652344 47.773438 Z M 9.652344 47.773438 "/>
<path style=" stroke:none;fill-rule:nonzero;fill:rgb(49.803922%,50.588235%,21.960784%);fill-opacity:1;" d="M 12.863281 47.738281 L 12.910156 47.789062 Z M 12.863281 47.738281 "/>
<path style=" stroke:none;fill-rule:nonzero;fill:rgb(39.215686%,39.607843%,19.215686%);fill-opacity:1;" d="M 18.5 47.738281 L 18.546875 47.789062 Z M 18.5 47.738281 "/>
<path style=" stroke:none;fill-rule:nonzero;fill:rgb(64.313725%,65.882353%,23.529412%);fill-opacity:1;" d="M 9.589844 47.835938 L 9.636719 47.882812 Z M 9.589844 47.835938 "/>
<path style=" stroke:none;fill-rule:nonzero;fill:rgb(51.764706%,52.941176%,21.960784%);fill-opacity:1;" d="M 12.910156 47.835938 L 12.953125 47.882812 Z M 12.910156 47.835938 "/>
<path style=" stroke:none;fill-rule:nonzero;fill:rgb(39.607843%,39.607843%,19.607843%);fill-opacity:1;" d="M 9.589844 47.882812 L 9.636719 47.933594 Z M 9.589844 47.882812 "/>
<path style=" stroke:none;fill-rule:nonzero;fill:rgb(61.960784%,62.745098%,23.921569%);fill-opacity:1;" d="M 16.453125 47.882812 L 16.5 47.933594 Z M 16.453125 47.882812 "/>
<path style=" stroke:none;fill-rule:nonzero;fill:rgb(70.196078%,71.764706%,25.490196%);fill-opacity:1;" d="M 12.953125 47.933594 L 13 47.980469 Z M 12.953125 47.933594 "/>
<path style=" stroke:none;fill-rule:nonzero;fill:rgb(51.764706%,52.54902%,21.960784%);fill-opacity:1;" d="M 18.589844 47.933594 L 18.636719 47.980469 Z M 18.589844 47.933594 "/>
<path style=" stroke:none;fill-rule:nonzero;fill:rgb(36.862745%,36.470588%,19.215686%);fill-opacity:1;" d="M 16.425781 48.015625 C 16.421875 48.015625 16.417969 48.066406 16.4375 48.046875 C 16.441406 48.042969 16.445312 47.992188 16.425781 48.015625 Z M 16.425781 48.015625 "/>
<path style=" stroke:none;fill-rule:nonzero;fill:rgb(58.823529%,59.607843%,23.137255%);fill-opacity:1;" d="M 18.652344 48.015625 C 18.648438 48.015625 18.644531 48.066406 18.667969 48.046875 C 18.667969 48.042969 18.671875 47.992188 18.652344 48.015625 Z M 18.652344 48.015625 "/>
<path style=" stroke:none;fill-rule:nonzero;fill:rgb(91.372549%,93.333333%,29.019608%);fill-opacity:1;" d="M 18.683594 47.980469 C 18.765625 48.382812 19.464844 48.222656 19.773438 48.222656 L 100 48.222656 C 99.832031 48.148438 99.636719 48.175781 99.453125 48.175781 L 20.089844 48.175781 C 19.664062 48.175781 19.003906 48.320312 18.683594 47.980469 Z M 18.683594 47.980469 "/>
<path style=" stroke:none;fill-rule:nonzero;fill:rgb(64.705882%,66.666667%,24.313725%);fill-opacity:1;" d="M 16.363281 48.078125 L 16.410156 48.125 Z M 16.363281 48.078125 "/>
<path style=" stroke:none;fill-rule:nonzero;fill:rgb(40.392157%,40.392157%,20%);fill-opacity:1;" d="M 9.46875 48.160156 C 9.46875 48.160156 9.464844 48.210938 9.484375 48.191406 C 9.488281 48.1875 9.488281 48.136719 9.46875 48.160156 Z M 9.46875 48.160156 "/>
<path style=" stroke:none;fill-rule:nonzero;fill:rgb(50.588235%,51.372549%,21.960784%);fill-opacity:1;" d="M 13.046875 48.125 L 13.089844 48.175781 Z M 13.046875 48.125 "/>
<path style=" stroke:none;fill-rule:nonzero;fill:rgb(40%,40%,20%);fill-opacity:1;" d="M 18.683594 48.125 L 18.726562 48.175781 Z M 18.683594 48.125 "/>
<path style=" stroke:none;fill-rule:nonzero;fill:rgb(76.470588%,78.431373%,26.27451%);fill-opacity:1;" d="M 0.183594 48.222656 C 0.429688 48.335938 0.777344 48.273438 1.046875 48.273438 L 9.410156 48.273438 C 9.160156 48.160156 8.8125 48.222656 8.546875 48.222656 Z M 0.183594 48.222656 "/>
<path style=" stroke:none;fill-rule:nonzero;fill:rgb(53.72549%,55.294118%,22.352941%);fill-opacity:1;" d="M 9.410156 48.222656 L 9.453125 48.273438 Z M 9.410156 48.222656 "/>
<path style=" stroke:none;fill-rule:nonzero;fill:rgb(9.803922%,9.019608%,14.509804%);fill-opacity:1;" d="M 9.453125 48.222656 C 9.128906 48.324219 8.746094 48.273438 8.410156 48.273438 L 0.183594 48.273438 C 0.335938 48.367188 0.589844 48.320312 0.773438 48.320312 L 8.953125 48.320312 C 9.058594 48.320312 9.515625 48.375 9.453125 48.222656 Z M 9.453125 48.222656 "/>
<path style=" stroke:none;fill-rule:nonzero;fill:rgb(44.313725%,45.490196%,21.176471%);fill-opacity:1;" d="M 13.089844 48.222656 L 13.136719 48.273438 Z M 13.089844 48.222656 "/>
<path style=" stroke:none;fill-rule:nonzero;fill:rgb(76.470588%,78.431373%,26.27451%);fill-opacity:1;" d="M 13.136719 48.222656 C 13.417969 48.347656 13.832031 48.273438 14.136719 48.273438 L 16.316406 48.273438 C 16.035156 48.144531 15.621094 48.222656 15.316406 48.222656 L 13.136719 48.222656 M 18.773438 48.222656 C 18.976562 48.3125 19.234375 48.273438 19.453125 48.273438 L 100 48.273438 C 99.796875 48.179688 99.535156 48.222656 99.316406 48.222656 Z M 18.773438 48.222656 "/>
<path style=" stroke:none;fill-rule:nonzero;fill:rgb(34.117647%,34.117647%,34.117647%);fill-opacity:1;" d="M 0.136719 48.273438 L 0.136719 51.902344 C 0.234375 51.652344 0.183594 51.304688 0.183594 51.03125 L 0.183594 49.238281 C 0.183594 48.941406 0.246094 48.546875 0.136719 48.273438 Z M 0.136719 48.273438 "/>
<path style=" stroke:none;fill-rule:nonzero;fill:rgb(9.803922%,9.019608%,14.509804%);fill-opacity:1;" d="M 18.726562 48.273438 C 18.929688 48.363281 19.191406 48.320312 19.410156 48.320312 L 100 48.320312 C 99.796875 48.230469 99.535156 48.273438 99.316406 48.273438 Z M 18.726562 48.273438 "/>
<path style=" stroke:none;fill-rule:nonzero;fill:rgb(13.72549%,13.72549%,13.72549%);fill-opacity:1;" d="M 0.183594 48.320312 L 0.183594 51.855469 L 100 51.855469 C 99.761719 51.75 99.4375 51.804688 99.183594 51.804688 L 0.226562 51.804688 L 0.226562 49.433594 C 0.226562 49.097656 0.304688 48.632812 0.183594 48.320312 Z M 0.183594 48.320312 "/>
<path style=" stroke:none;fill-rule:nonzero;fill:rgb(14.509804%,14.901961%,15.294118%);fill-opacity:1;" d="M 18.773438 48.320312 C 18.976562 48.410156 19.234375 48.367188 19.453125 48.367188 L 100 48.367188 C 99.796875 48.277344 99.535156 48.320312 99.316406 48.320312 Z M 18.773438 48.320312 "/>
<path style=" stroke:none;fill-rule:nonzero;fill:rgb(10.588235%,10.588235%,10.588235%);fill-opacity:1;" d="M 0.183594 51.855469 C 0.417969 51.960938 0.746094 51.902344 1 51.902344 L 100 51.902344 C 99.761719 51.796875 99.4375 51.855469 99.183594 51.855469 Z M 0.183594 51.855469 "/>
</g>
</svg>
