<?xml version="1.0" encoding="UTF-8"?>
<svg xmlns="http://www.w3.org/2000/svg" xmlns:xlink="http://www.w3.org/1999/xlink" width="100pt" height="52pt" viewBox="0 0 100 52" version="1.1">
<g id="surface1">
<path style=" stroke:none;fill-rule:nonzero;fill:rgb(14.117647%,14.117647%,14.117647%);fill-opacity:1;" d="M 0 26 L 0 0 L 100 0 L 100 52 L 0 52 Z M 0 26 "/>
<path style=" stroke:none;fill-rule:nonzero;fill:rgb(88.627451%,90.588235%,28.627451%);fill-opacity:1;" d="M 0 45.441406 L 0 38.878906 L 0.316406 39.128906 C 0.484375 39.261719 4.089844 41.785156 8.332031 44.738281 C 12.574219 47.691406 16.609375 50.507812 17.292969 50.980469 C 17.984375 51.464844 18.582031 51.859375 18.625 51.859375 C 18.699219 51.859375 20.917969 50.597656 23.207031 49.246094 C 23.574219 49.027344 24.101562 48.726562 24.375 48.570312 C 24.648438 48.410156 24.941406 48.253906 25.015625 48.203125 C 25.089844 48.160156 25.257812 48.058594 25.390625 47.984375 C 25.515625 47.910156 26.074219 47.59375 26.625 47.277344 C 27.175781 46.949219 28.265625 46.316406 29.042969 45.863281 C 29.824219 45.414062 30.667969 44.929688 30.917969 44.78125 C 32.523438 43.84375 36.035156 41.816406 36.457031 41.566406 C 36.925781 41.300781 38.285156 40.515625 39.875 39.589844 C 40.75 39.078125 41.890625 38.417969 42.417969 38.109375 C 42.941406 37.8125 43.433594 37.527344 43.5 37.484375 C 43.566406 37.433594 43.910156 37.242188 44.25 37.050781 C 44.589844 36.859375 45.175781 36.523438 45.542969 36.308594 C 45.910156 36.089844 47.425781 35.207031 48.917969 34.347656 C 50.410156 33.480469 52.058594 32.527344 52.582031 32.21875 C 53.109375 31.910156 53.800781 31.507812 54.109375 31.332031 C 54.425781 31.148438 54.800781 30.941406 54.941406 30.847656 C 55.339844 30.617188 58.234375 28.9375 59.457031 28.238281 C 60.058594 27.894531 60.75 27.484375 61 27.335938 C 61.933594 26.777344 62.941406 26.207031 63.007812 26.207031 C 63.042969 26.207031 63.300781 26.492188 63.582031 26.84375 C 64.824219 28.34375 66.757812 29.589844 68.667969 30.105469 C 73.492188 31.410156 78.5 29.15625 80.691406 24.691406 C 81.359375 23.320312 81.648438 22.175781 81.726562 20.609375 C 81.792969 19.15625 81.5 17.371094 81.007812 16.277344 C 80.917969 16.074219 80.859375 15.882812 80.882812 15.851562 C 80.898438 15.816406 81.074219 15.699219 81.273438 15.589844 C 81.464844 15.476562 82.808594 14.699219 84.25 13.855469 C 86.640625 12.460938 87.484375 11.976562 88.265625 11.535156 C 88.417969 11.441406 89.726562 10.691406 91.167969 9.847656 C 94.601562 7.847656 95.183594 7.511719 95.226562 7.511719 C 95.242188 7.511719 95.410156 7.410156 95.609375 7.285156 C 95.898438 7.101562 96.726562 6.617188 98.25 5.742188 C 98.410156 5.652344 98.785156 5.433594 99.082031 5.257812 C 99.382812 5.089844 99.707031 4.898438 99.816406 4.847656 L 100 4.75 L 100 35.375 L 98.691406 35.414062 C 97.535156 35.457031 94.25 35.617188 91.316406 35.773438 L 90.351562 35.832031 L 90.308594 35.464844 C 90.160156 34.164062 90.074219 32.984375 89.992188 31.050781 C 89.910156 28.914062 89.734375 27.160156 89.589844 27.019531 C 89.535156 26.960938 85.316406 27.160156 84.699219 27.261719 L 84.441406 27.292969 L 84.476562 27.945312 C 84.492188 28.296875 84.523438 28.664062 84.550781 28.753906 C 84.574219 28.847656 84.625 29.613281 84.675781 30.464844 C 84.714844 31.316406 84.792969 32.328125 84.832031 32.71875 C 84.875 33.113281 84.941406 34.054688 84.964844 34.832031 L 85.023438 36.226562 L 84.492188 36.226562 C 83.976562 36.226562 81.707031 36.398438 80.082031 36.566406 C 79.648438 36.609375 78.824219 36.667969 78.25 36.691406 C 77.675781 36.726562 77.191406 36.777344 77.167969 36.808594 C 77.140625 36.84375 76.574219 36.902344 75.898438 36.941406 C 75.226562 36.984375 74.648438 37.050781 74.617188 37.074219 C 74.542969 37.152344 74.910156 40.855469 75.066406 41.617188 L 75.132812 41.933594 L 75.957031 41.910156 C 76.417969 41.902344 77.074219 41.851562 77.417969 41.808594 C 78.007812 41.734375 82.398438 41.441406 84.507812 41.339844 L 85.464844 41.300781 L 85.566406 43.078125 C 85.625 44.0625 85.707031 45.222656 85.75 45.65625 C 85.792969 46.089844 85.867188 46.957031 85.917969 47.578125 C 86.015625 48.820312 86.148438 50.097656 86.183594 50.121094 C 86.199219 50.128906 86.792969 50.089844 87.5 50.03125 C 88.207031 49.972656 89.382812 49.878906 90.101562 49.820312 L 91.417969 49.722656 L 91.367188 48.835938 C 91.339844 48.351562 91.273438 47.367188 91.207031 46.65625 C 91.066406 45.070312 90.882812 41.273438 90.941406 41.125 C 90.976562 41.039062 91.265625 40.992188 91.976562 40.949219 C 92.515625 40.925781 93.5 40.855469 94.167969 40.816406 C 97.234375 40.613281 98.023438 40.574219 98.984375 40.566406 L 100 40.566406 L 100 52 L 0 52 Z M 0 45.441406 "/>
<path style=" stroke:none;fill-rule:nonzero;fill:rgb(88.627451%,90.588235%,28.627451%);fill-opacity:1;" d="M 33.734375 34.539062 C 33.558594 34.4375 33.417969 34.328125 33.417969 34.296875 C 33.417969 34.253906 33.507812 34.128906 33.617188 33.996094 C 33.808594 33.769531 33.824219 33.769531 33.976562 33.914062 C 34.199219 34.113281 34.839844 34.105469 35.023438 33.90625 C 35.109375 33.820312 35.167969 33.644531 35.167969 33.511719 C 35.167969 33.285156 35.160156 33.277344 35 33.429688 C 34.609375 33.777344 33.734375 33.636719 33.382812 33.160156 C 33.160156 32.851562 33.117188 32.234375 33.292969 31.859375 C 33.515625 31.382812 33.898438 31.191406 34.484375 31.25 C 34.742188 31.285156 35.175781 31.300781 35.441406 31.300781 L 35.917969 31.292969 L 35.917969 32.511719 C 35.917969 33.886719 35.839844 34.164062 35.410156 34.480469 C 35 34.765625 34.160156 34.796875 33.734375 34.539062 Z M 35.050781 32.878906 C 35.117188 32.820312 35.167969 32.628906 35.167969 32.417969 C 35.167969 32 34.957031 31.800781 34.523438 31.800781 C 33.933594 31.800781 33.683594 32.527344 34.140625 32.886719 C 34.390625 33.078125 34.816406 33.078125 35.050781 32.878906 Z M 35.050781 32.878906 "/>
<path style=" stroke:none;fill-rule:nonzero;fill:rgb(88.627451%,90.588235%,28.627451%);fill-opacity:1;" d="M 13.648438 33.203125 C 13.523438 32.910156 13.300781 32.367188 13.132812 31.992188 L 12.839844 31.300781 L 13.199219 31.300781 C 13.558594 31.300781 13.566406 31.300781 13.765625 31.785156 L 13.976562 32.261719 L 14.117188 31.925781 C 14.191406 31.742188 14.242188 31.527344 14.214844 31.449219 C 14.191406 31.324219 14.242188 31.300781 14.5 31.300781 C 14.800781 31.300781 14.816406 31.316406 15 31.765625 C 15.109375 32.019531 15.214844 32.203125 15.25 32.160156 C 15.285156 32.125 15.375 31.917969 15.457031 31.699219 C 15.601562 31.308594 15.617188 31.300781 15.964844 31.300781 L 16.324219 31.300781 L 16.035156 31.992188 C 15.867188 32.367188 15.632812 32.910156 15.515625 33.203125 L 15.300781 33.730469 L 14.917969 32.96875 L 14.535156 32.210938 L 14.214844 32.96875 C 14.042969 33.378906 13.890625 33.722656 13.882812 33.722656 C 13.875 33.722656 13.765625 33.488281 13.648438 33.203125 Z M 13.648438 33.203125 "/>
<path style=" stroke:none;fill-rule:nonzero;fill:rgb(88.627451%,90.588235%,28.627451%);fill-opacity:1;" d="M 3.101562 33.480469 C 2.859375 33.394531 2.640625 33.304688 2.609375 33.269531 C 2.535156 33.203125 2.808594 32.636719 2.910156 32.636719 C 2.957031 32.636719 3.015625 32.667969 3.042969 32.71875 C 3.125 32.851562 3.742188 32.984375 4.015625 32.929688 C 4.292969 32.859375 4.441406 32.59375 4.316406 32.359375 C 4.273438 32.285156 3.984375 32.085938 3.675781 31.925781 C 3.359375 31.765625 3.023438 31.542969 2.925781 31.417969 C 2.550781 30.941406 2.800781 30.074219 3.375 29.832031 C 3.792969 29.664062 4.433594 29.679688 4.875 29.890625 L 5.242188 30.066406 L 5.109375 30.347656 C 4.957031 30.664062 4.890625 30.683594 4.582031 30.507812 C 4.160156 30.265625 3.5 30.421875 3.5 30.773438 C 3.5 30.917969 3.867188 31.191406 4.316406 31.382812 C 4.910156 31.640625 5.167969 31.960938 5.167969 32.445312 C 5.167969 32.929688 4.957031 33.269531 4.542969 33.46875 C 4.117188 33.679688 3.675781 33.679688 3.101562 33.480469 Z M 3.101562 33.480469 "/>
<path style=" stroke:none;fill-rule:nonzero;fill:rgb(88.627451%,90.588235%,28.627451%);fill-opacity:1;" d="M 6.25 33.488281 C 5.464844 33.09375 5.433594 31.84375 6.191406 31.382812 C 6.382812 31.265625 6.609375 31.214844 6.976562 31.214844 C 7.433594 31.214844 7.523438 31.242188 7.785156 31.46875 C 8.476562 32.078125 8.332031 33.1875 7.535156 33.519531 C 7.148438 33.679688 6.601562 33.664062 6.25 33.488281 Z M 7.292969 32.84375 C 7.542969 32.59375 7.558594 32.308594 7.324219 32.019531 C 6.976562 31.574219 6.375 31.84375 6.390625 32.453125 C 6.410156 33.003906 6.917969 33.226562 7.292969 32.84375 Z M 7.292969 32.84375 "/>
<path style=" stroke:none;fill-rule:nonzero;fill:rgb(88.627451%,90.588235%,28.627451%);fill-opacity:1;" d="M 17.101562 33.496094 C 16.742188 33.320312 16.582031 33.003906 16.582031 32.46875 C 16.582031 31.683594 16.992188 31.214844 17.683594 31.214844 C 17.917969 31.214844 18.175781 31.273438 18.292969 31.351562 C 18.417969 31.433594 18.5 31.449219 18.5 31.390625 C 18.5 31.34375 18.640625 31.300781 18.832031 31.300781 L 19.167969 31.300781 L 19.167969 33.554688 L 18.792969 33.554688 C 18.582031 33.554688 18.417969 33.519531 18.417969 33.480469 C 18.417969 33.429688 18.316406 33.453125 18.191406 33.519531 C 17.882812 33.671875 17.441406 33.664062 17.101562 33.496094 Z M 18.234375 32.917969 C 18.382812 32.820312 18.417969 32.710938 18.417969 32.386719 C 18.417969 31.933594 18.292969 31.800781 17.867188 31.800781 C 17.324219 31.800781 17.117188 32.535156 17.550781 32.878906 C 17.816406 33.085938 17.984375 33.09375 18.234375 32.917969 Z M 18.234375 32.917969 "/>
<path style=" stroke:none;fill-rule:nonzero;fill:rgb(88.627451%,90.588235%,28.627451%);fill-opacity:1;" d="M 22.507812 33.488281 C 21.949219 33.1875 21.75 32.375 22.082031 31.816406 C 22.582031 31 23.875 31 24.300781 31.808594 C 24.507812 32.21875 24.433594 32.292969 23.589844 32.570312 C 23.066406 32.734375 22.839844 32.84375 22.898438 32.902344 C 23 33.003906 23.308594 33.027344 23.550781 32.945312 C 23.683594 32.894531 23.75 32.9375 23.839844 33.113281 C 23.898438 33.246094 23.964844 33.371094 23.984375 33.394531 C 24.023438 33.488281 23.492188 33.636719 23.132812 33.636719 C 22.941406 33.636719 22.660156 33.570312 22.507812 33.488281 Z M 23.242188 32.210938 C 23.625 32.09375 23.683594 31.917969 23.375 31.800781 C 23.125 31.710938 22.792969 31.808594 22.714844 32.007812 C 22.632812 32.242188 22.660156 32.402344 22.785156 32.359375 C 22.851562 32.335938 23.050781 32.269531 23.242188 32.210938 Z M 23.242188 32.210938 "/>
<path style=" stroke:none;fill-rule:nonzero;fill:rgb(88.627451%,90.588235%,28.627451%);fill-opacity:1;" d="M 41.757812 33.488281 C 40.925781 33.070312 40.875 31.933594 41.660156 31.410156 C 41.875 31.265625 42.058594 31.214844 42.433594 31.214844 C 42.867188 31.214844 42.949219 31.25 43.207031 31.492188 C 43.375 31.632812 43.535156 31.882812 43.574219 32.027344 L 43.660156 32.300781 L 42.816406 32.558594 C 42.265625 32.734375 42.007812 32.84375 42.066406 32.902344 C 42.167969 33.003906 42.484375 33.019531 42.726562 32.9375 C 42.875 32.886719 42.933594 32.917969 43.035156 33.128906 C 43.207031 33.453125 43.207031 33.4375 42.910156 33.546875 C 42.523438 33.679688 42.082031 33.652344 41.757812 33.488281 Z M 42.484375 32.191406 C 42.808594 32.085938 42.832031 31.910156 42.535156 31.800781 C 42.292969 31.699219 42.050781 31.800781 41.917969 32.050781 C 41.726562 32.410156 41.792969 32.425781 42.484375 32.191406 Z M 42.484375 32.191406 "/>
<path style=" stroke:none;fill-rule:nonzero;fill:rgb(88.627451%,90.588235%,28.627451%);fill-opacity:1;" d="M 44.667969 33.488281 C 43.832031 33.070312 43.785156 31.933594 44.574219 31.410156 C 44.792969 31.265625 44.976562 31.214844 45.351562 31.214844 C 45.785156 31.214844 45.867188 31.25 46.125 31.492188 C 46.292969 31.632812 46.449219 31.882812 46.492188 32.027344 L 46.574219 32.300781 L 45.734375 32.558594 C 45.183594 32.734375 44.925781 32.84375 44.984375 32.902344 C 45.082031 33.003906 45.398438 33.019531 45.640625 32.9375 C 45.792969 32.886719 45.851562 32.917969 45.949219 33.128906 C 46.125 33.453125 46.125 33.4375 45.824219 33.546875 C 45.441406 33.679688 45 33.652344 44.667969 33.488281 Z M 45.398438 32.191406 C 45.726562 32.085938 45.742188 31.910156 45.441406 31.792969 C 45.257812 31.726562 45.175781 31.742188 45.007812 31.867188 C 44.882812 31.953125 44.785156 32.109375 44.765625 32.210938 C 44.734375 32.417969 44.75 32.417969 45.398438 32.191406 Z M 45.398438 32.191406 "/>
<path style=" stroke:none;fill-rule:nonzero;fill:rgb(88.627451%,90.588235%,28.627451%);fill-opacity:1;" d="M 9 32.769531 C 9 32.019531 8.992188 31.976562 8.816406 31.953125 C 8.660156 31.933594 8.617188 31.867188 8.601562 31.617188 C 8.574219 31.324219 8.589844 31.300781 8.785156 31.300781 C 8.992188 31.300781 9 31.285156 9 30.742188 C 9 29.847656 9.316406 29.464844 10.050781 29.464844 C 10.214844 29.464844 10.417969 29.503906 10.507812 29.546875 C 10.660156 29.628906 10.660156 29.65625 10.542969 29.882812 C 10.433594 30.089844 10.375 30.125 10.175781 30.082031 C 9.859375 30.015625 9.75 30.214844 9.75 30.832031 L 9.75 31.300781 L 10.417969 31.300781 L 10.417969 31.96875 L 9.75 31.96875 L 9.75 33.554688 L 9 33.554688 Z M 9 32.769531 "/>
<path style=" stroke:none;fill-rule:nonzero;fill:rgb(88.627451%,90.588235%,28.627451%);fill-opacity:1;" d="M 11.332031 32.726562 C 11.332031 31.925781 11.324219 31.894531 11.148438 31.867188 C 11 31.851562 10.949219 31.777344 10.933594 31.574219 C 10.910156 31.324219 10.925781 31.300781 11.117188 31.300781 C 11.324219 31.300781 11.332031 31.285156 11.332031 30.800781 L 11.332031 30.296875 L 12.082031 30.296875 L 12.082031 31.300781 L 12.332031 31.300781 C 12.566406 31.300781 12.582031 31.324219 12.582031 31.59375 C 12.582031 31.859375 12.566406 31.882812 12.332031 31.882812 L 12.082031 31.882812 L 12.082031 33.554688 L 11.332031 33.554688 Z M 11.332031 32.726562 "/>
<path style=" stroke:none;fill-rule:nonzero;fill:rgb(88.627451%,90.588235%,28.627451%);fill-opacity:1;" d="M 19.917969 32.425781 L 19.917969 31.300781 L 20.242188 31.300781 C 20.515625 31.300781 20.574219 31.332031 20.617188 31.515625 L 20.675781 31.726562 L 20.964844 31.476562 C 21.367188 31.117188 21.5 31.132812 21.5 31.542969 C 21.5 31.84375 21.476562 31.875 21.242188 31.925781 C 20.867188 32.007812 20.667969 32.394531 20.667969 33.035156 L 20.667969 33.554688 L 19.917969 33.554688 Z M 19.917969 32.425781 "/>
<path style=" stroke:none;fill-rule:nonzero;fill:rgb(88.627451%,90.588235%,28.627451%);fill-opacity:1;" d="M 26.832031 31.632812 L 26.832031 29.714844 L 29.5 29.714844 L 29.5 30.464844 L 27.582031 30.464844 L 27.582031 31.300781 L 29.25 31.300781 L 29.25 32.050781 L 27.582031 32.050781 L 27.582031 32.886719 L 29.5 32.886719 L 29.5 33.554688 L 26.832031 33.554688 Z M 26.832031 31.632812 "/>
<path style=" stroke:none;fill-rule:nonzero;fill:rgb(88.627451%,90.588235%,28.627451%);fill-opacity:1;" d="M 30.167969 32.425781 L 30.167969 31.300781 L 30.542969 31.300781 C 30.824219 31.300781 30.917969 31.332031 30.917969 31.433594 C 30.917969 31.542969 30.957031 31.535156 31.132812 31.390625 C 31.457031 31.132812 32.109375 31.148438 32.375 31.425781 C 32.574219 31.617188 32.582031 31.675781 32.582031 32.59375 L 32.582031 33.554688 L 31.832031 33.554688 L 31.832031 32.769531 C 31.832031 31.902344 31.75 31.742188 31.367188 31.835938 C 31.074219 31.910156 30.917969 32.328125 30.917969 33.011719 L 30.917969 33.554688 L 30.167969 33.554688 Z M 30.167969 32.425781 "/>
<path style=" stroke:none;fill-rule:nonzero;fill:rgb(88.627451%,90.588235%,28.627451%);fill-opacity:1;" d="M 36.667969 32.425781 L 36.667969 31.300781 L 37.417969 31.300781 L 37.417969 33.554688 L 36.667969 33.554688 Z M 36.667969 32.425781 "/>
<path style=" stroke:none;fill-rule:nonzero;fill:rgb(88.627451%,90.588235%,28.627451%);fill-opacity:1;" d="M 38.167969 32.425781 L 38.167969 31.300781 L 38.5 31.300781 C 38.792969 31.300781 38.832031 31.324219 38.832031 31.492188 C 38.839844 31.652344 38.851562 31.660156 38.941406 31.542969 C 39.109375 31.324219 39.382812 31.214844 39.785156 31.214844 C 40.082031 31.214844 40.183594 31.257812 40.324219 31.433594 C 40.476562 31.625 40.5 31.777344 40.5 32.601562 L 40.5 33.554688 L 39.75 33.554688 L 39.75 32.777344 C 39.75 31.984375 39.683594 31.800781 39.410156 31.800781 C 39.324219 31.800781 39.183594 31.902344 39.089844 32.019531 C 38.949219 32.203125 38.917969 32.359375 38.917969 32.894531 L 38.917969 33.554688 L 38.167969 33.554688 Z M 38.167969 32.425781 "/>
<path style=" stroke:none;fill-rule:nonzero;fill:rgb(88.627451%,90.588235%,28.627451%);fill-opacity:1;" d="M 47.082031 32.425781 L 47.082031 31.300781 L 47.410156 31.300781 C 47.683594 31.300781 47.742188 31.332031 47.785156 31.515625 L 47.839844 31.726562 L 48.132812 31.476562 C 48.535156 31.117188 48.667969 31.132812 48.667969 31.542969 C 48.667969 31.84375 48.640625 31.875 48.410156 31.925781 C 48.035156 32.007812 47.832031 32.394531 47.832031 33.035156 L 47.832031 33.554688 L 47.082031 33.554688 Z M 47.082031 32.425781 "/>
<path style=" stroke:none;fill-rule:nonzero;fill:rgb(88.627451%,90.588235%,28.627451%);fill-opacity:1;" d="M 36.816406 30.789062 C 36.515625 30.617188 36.683594 30.132812 37.042969 30.132812 C 37.390625 30.132812 37.535156 30.5 37.285156 30.75 C 37.132812 30.898438 37.015625 30.917969 36.816406 30.789062 Z M 36.816406 30.789062 "/>
<path style=" stroke:none;fill-rule:nonzero;fill:rgb(88.627451%,90.588235%,28.627451%);fill-opacity:1;" d="M 6.707031 27.394531 C 6.390625 26.859375 6.082031 26.332031 6.015625 26.234375 C 5.898438 26.042969 5.898438 26.042969 6.351562 26.042969 L 6.800781 26.042969 L 7.042969 26.542969 C 7.175781 26.816406 7.300781 27.042969 7.332031 27.042969 C 7.359375 27.042969 7.464844 26.816406 7.574219 26.542969 L 7.773438 26.042969 L 8.183594 26.042969 C 8.398438 26.042969 8.582031 26.058594 8.582031 26.074219 C 8.582031 26.125 7.410156 28.238281 7.339844 28.3125 C 7.308594 28.355469 7.023438 27.9375 6.707031 27.394531 Z M 6.707031 27.394531 "/>
<path style=" stroke:none;fill-rule:nonzero;fill:rgb(88.627451%,90.588235%,28.627451%);fill-opacity:1;" d="M 9.324219 28.1875 C 8.742188 27.792969 8.699219 26.816406 9.25 26.277344 C 9.523438 25.992188 9.609375 25.957031 9.976562 25.957031 C 10.214844 25.957031 10.457031 26.015625 10.582031 26.101562 C 10.726562 26.199219 10.792969 26.207031 10.816406 26.140625 C 10.832031 26.082031 10.992188 26.042969 11.175781 26.042969 L 11.5 26.042969 L 11.5 28.296875 L 11.125 28.296875 C 10.917969 28.296875 10.75 28.261719 10.75 28.21875 C 10.75 28.171875 10.648438 28.195312 10.523438 28.261719 C 10.175781 28.4375 9.648438 28.414062 9.324219 28.1875 Z M 10.566406 27.660156 C 10.707031 27.570312 10.75 27.453125 10.75 27.195312 C 10.75 26.769531 10.566406 26.542969 10.207031 26.542969 C 9.75 26.542969 9.484375 27.027344 9.699219 27.453125 C 9.890625 27.8125 10.234375 27.902344 10.566406 27.660156 Z M 10.566406 27.660156 "/>
<path style=" stroke:none;fill-rule:nonzero;fill:rgb(88.627451%,90.588235%,28.627451%);fill-opacity:1;" d="M 17.707031 28.328125 C 17.398438 28.253906 16.917969 28.019531 16.917969 27.945312 C 16.917969 27.902344 16.984375 27.769531 17.058594 27.644531 C 17.132812 27.519531 17.207031 27.410156 17.207031 27.402344 C 17.214844 27.386719 17.375 27.453125 17.566406 27.542969 C 17.976562 27.746094 18.316406 27.753906 18.566406 27.578125 C 18.949219 27.308594 18.765625 27.035156 17.976562 26.667969 C 17.351562 26.367188 17.082031 26.050781 17.082031 25.597656 C 17.082031 24.855469 17.648438 24.40625 18.492188 24.472656 C 18.75 24.488281 19.101562 24.574219 19.265625 24.65625 L 19.574219 24.804688 L 19.441406 25.089844 C 19.292969 25.40625 19.226562 25.425781 18.917969 25.25 C 18.492188 25.007812 17.917969 25.140625 17.917969 25.492188 C 17.917969 25.734375 18.101562 25.890625 18.648438 26.125 C 19.242188 26.382812 19.5 26.699219 19.5 27.175781 C 19.5 27.628906 19.339844 27.96875 19.035156 28.171875 C 18.816406 28.3125 18.035156 28.402344 17.707031 28.328125 Z M 17.707031 28.328125 "/>
<path style=" stroke:none;fill-rule:nonzero;fill:rgb(88.627451%,90.588235%,28.627451%);fill-opacity:1;" d="M 20.535156 28.246094 C 20.183594 28.070312 20 27.726562 20 27.210938 C 20 26.417969 20.410156 25.957031 21.109375 25.957031 C 21.390625 25.957031 21.582031 26.007812 21.691406 26.109375 C 21.816406 26.207031 21.867188 26.226562 21.890625 26.148438 C 21.917969 26.082031 22.066406 26.042969 22.257812 26.042969 L 22.582031 26.042969 L 22.582031 28.296875 L 22.257812 28.296875 C 22.074219 28.296875 21.917969 28.253906 21.898438 28.195312 C 21.875 28.128906 21.808594 28.136719 21.667969 28.238281 C 21.417969 28.414062 20.875 28.421875 20.535156 28.246094 Z M 21.75 27.609375 C 21.964844 27.378906 21.964844 26.925781 21.75 26.710938 C 21.382812 26.34375 20.75 26.617188 20.75 27.144531 C 20.75 27.703125 21.382812 28.003906 21.75 27.609375 Z M 21.75 27.609375 "/>
<path style=" stroke:none;fill-rule:nonzero;fill:rgb(88.627451%,90.588235%,28.627451%);fill-opacity:1;" d="M 26.917969 28.269531 C 26.550781 28.085938 26.332031 27.660156 26.332031 27.101562 C 26.332031 26.632812 26.351562 26.585938 26.660156 26.285156 C 26.957031 25.984375 27.015625 25.957031 27.449219 25.957031 C 27.714844 25.957031 28 26 28.089844 26.042969 C 28.242188 26.125 28.25 26.09375 28.25 25.164062 L 28.25 24.207031 L 29 24.207031 L 29 28.296875 L 28.625 28.296875 C 28.417969 28.296875 28.25 28.253906 28.25 28.210938 C 28.25 28.160156 28.140625 28.179688 28 28.253906 C 27.707031 28.402344 27.199219 28.414062 26.917969 28.269531 Z M 28.140625 27.621094 C 28.199219 27.5625 28.25 27.351562 28.25 27.117188 C 28.25 26.660156 28.125 26.542969 27.632812 26.542969 C 27.089844 26.542969 26.890625 27.195312 27.300781 27.601562 C 27.464844 27.769531 27.558594 27.804688 27.765625 27.761719 C 27.910156 27.734375 28.074219 27.667969 28.140625 27.621094 Z M 28.140625 27.621094 "/>
<path style=" stroke:none;fill-rule:nonzero;fill:rgb(88.627451%,90.588235%,28.627451%);fill-opacity:1;" d="M 30.285156 28.296875 C 30.058594 28.203125 29.683594 27.753906 29.617188 27.492188 C 29.542969 27.195312 29.632812 26.710938 29.816406 26.460938 C 30.074219 26.109375 30.484375 25.941406 31.023438 25.984375 C 31.574219 26.015625 31.816406 26.199219 32.042969 26.726562 L 32.167969 27.035156 L 31.324219 27.300781 C 30.558594 27.542969 30.492188 27.585938 30.632812 27.6875 C 30.773438 27.792969 30.957031 27.785156 31.265625 27.667969 C 31.359375 27.628906 31.667969 28.003906 31.667969 28.152344 C 31.667969 28.328125 30.632812 28.4375 30.285156 28.296875 Z M 30.859375 26.984375 C 31.324219 26.816406 31.367188 26.601562 30.925781 26.558594 C 30.617188 26.527344 30.332031 26.726562 30.332031 26.976562 C 30.332031 27.160156 30.359375 27.160156 30.859375 26.984375 Z M 30.859375 26.984375 "/>
<path style=" stroke:none;fill-rule:nonzero;fill:rgb(88.627451%,90.588235%,28.627451%);fill-opacity:1;" d="M 35.035156 28.261719 C 34.683594 28.101562 34.625 27.988281 34.792969 27.792969 C 34.925781 27.644531 34.957031 27.644531 35.175781 27.753906 C 35.449219 27.902344 35.714844 27.910156 35.792969 27.792969 C 35.875 27.660156 35.691406 27.484375 35.417969 27.425781 C 34.765625 27.300781 34.550781 26.644531 35 26.191406 C 35.242188 25.949219 35.285156 25.941406 35.792969 25.976562 C 36.449219 26.015625 36.582031 26.117188 36.382812 26.425781 C 36.273438 26.585938 36.207031 26.617188 36.140625 26.550781 C 36.089844 26.5 35.925781 26.460938 35.765625 26.460938 C 35.367188 26.460938 35.433594 26.71875 35.875 26.859375 C 36.339844 27 36.617188 27.328125 36.550781 27.660156 C 36.433594 28.246094 35.667969 28.546875 35.035156 28.261719 Z M 35.035156 28.261719 "/>
<path style=" stroke:none;fill-rule:nonzero;fill:rgb(88.627451%,90.588235%,28.627451%);fill-opacity:1;" d="M 2.832031 26.375 L 2.832031 24.457031 L 5.5 24.457031 L 5.5 25.207031 L 3.667969 25.207031 L 3.667969 26.042969 L 5.25 26.042969 L 5.25 26.792969 L 3.667969 26.792969 L 3.667969 27.628906 L 5.582031 27.628906 L 5.582031 28.296875 L 2.832031 28.296875 Z M 2.832031 26.375 "/>
<path style=" stroke:none;fill-rule:nonzero;fill:rgb(88.627451%,90.588235%,28.627451%);fill-opacity:1;" d="M 12.25 27.167969 L 12.25 26.042969 L 12.582031 26.042969 C 12.824219 26.042969 12.917969 26.074219 12.917969 26.167969 C 12.917969 26.332031 12.976562 26.324219 13.226562 26.125 C 13.535156 25.882812 14.160156 25.890625 14.398438 26.148438 C 14.566406 26.324219 14.582031 26.433594 14.582031 27.320312 L 14.582031 28.296875 L 13.832031 28.296875 L 13.832031 27.46875 C 13.832031 26.71875 13.816406 26.632812 13.667969 26.585938 C 13.476562 26.527344 13.199219 26.660156 13.082031 26.875 C 13.042969 26.960938 13 27.320312 13 27.660156 L 13 28.296875 L 12.25 28.296875 Z M 12.25 27.167969 "/>
<path style=" stroke:none;fill-rule:nonzero;fill:rgb(88.627451%,90.588235%,28.627451%);fill-opacity:1;" d="M 23.332031 27.167969 L 23.332031 26.042969 L 23.667969 26.042969 C 23.890625 26.042969 24.023438 26.082031 24.050781 26.167969 C 24.089844 26.277344 24.132812 26.265625 24.308594 26.125 C 24.457031 26.007812 24.648438 25.957031 24.910156 25.957031 C 25.609375 25.964844 25.75 26.21875 25.75 27.410156 L 25.75 28.296875 L 25 28.296875 L 25 27.5625 C 25 26.699219 24.898438 26.484375 24.550781 26.574219 C 24.242188 26.652344 24.082031 27.058594 24.082031 27.753906 L 24.082031 28.296875 L 23.332031 28.296875 Z M 23.332031 27.167969 "/>
<path style=" stroke:none;fill-rule:nonzero;fill:rgb(88.627451%,90.588235%,28.627451%);fill-opacity:1;" d="M 32.667969 27.167969 L 32.667969 26.042969 L 32.992188 26.042969 C 33.265625 26.042969 33.324219 26.074219 33.367188 26.257812 L 33.425781 26.46875 L 33.714844 26.21875 C 34.117188 25.859375 34.25 25.875 34.25 26.285156 C 34.25 26.585938 34.226562 26.617188 33.992188 26.667969 C 33.617188 26.75 33.417969 27.136719 33.417969 27.777344 L 33.417969 28.296875 L 32.667969 28.296875 Z M 32.667969 27.167969 "/>
<path style=" stroke:none;fill-rule:nonzero;fill:rgb(88.627451%,90.588235%,28.627451%);fill-opacity:1;" d="M 70.042969 27.804688 C 69.132812 27.601562 68.816406 27.492188 68.042969 27.109375 C 67.140625 26.660156 66.375 26.058594 65.714844 25.289062 C 65.542969 25.082031 65.359375 24.90625 65.324219 24.890625 C 65.285156 24.875 64.765625 25.148438 64.167969 25.5 C 63.566406 25.859375 63.066406 26.132812 63.050781 26.117188 C 62.667969 25.632812 62.101562 24.574219 61.824219 23.8125 C 60.398438 20.015625 61.300781 15.785156 64.140625 12.914062 C 66.183594 10.851562 68.933594 9.757812 71.773438 9.875 C 73.417969 9.941406 74.625 10.25 76.042969 10.960938 C 76.617188 11.242188 77.625 11.867188 77.75 12.011719 C 77.773438 12.035156 78.007812 12.234375 78.265625 12.460938 C 78.773438 12.886719 79.660156 13.914062 80.050781 14.523438 C 80.382812 15.058594 80.742188 15.71875 80.75 15.824219 C 80.75 15.867188 80.609375 15.984375 80.433594 16.074219 C 80.265625 16.160156 79.773438 16.441406 79.359375 16.695312 L 78.589844 17.144531 L 78.714844 17.4375 C 79.257812 18.738281 79.367188 20.765625 78.976562 22.226562 C 78.433594 24.230469 77.191406 25.867188 75.441406 26.902344 C 73.851562 27.828125 71.765625 28.179688 70.042969 27.804688 Z M 66.015625 24.421875 C 66.351562 24.230469 67.242188 23.703125 68 23.269531 C 68.757812 22.828125 69.492188 22.402344 69.640625 22.320312 C 69.785156 22.226562 70.292969 21.933594 70.765625 21.667969 C 71.242188 21.394531 71.925781 21 72.292969 20.773438 C 72.660156 20.558594 73.410156 20.125 73.957031 19.808594 C 77.417969 17.796875 78.308594 17.269531 78.449219 17.167969 C 78.601562 17.0625 78.589844 17.035156 78.332031 16.558594 C 77.542969 15.140625 76.417969 14.054688 75 13.347656 C 73.890625 12.789062 72.75 12.519531 71.5 12.519531 C 70.273438 12.519531 69.214844 12.777344 68.042969 13.363281 C 66.523438 14.121094 65.199219 15.507812 64.492188 17.070312 C 63.714844 18.796875 63.609375 20.933594 64.207031 22.746094 C 64.476562 23.53125 65.167969 24.789062 65.332031 24.789062 C 65.375 24.789062 65.683594 24.621094 66.015625 24.421875 Z M 66.015625 24.421875 "/>
<path style=" stroke:none;fill-rule:nonzero;fill:rgb(88.627451%,90.588235%,28.627451%);fill-opacity:1;" d="M 13.042969 23.8125 C 13.074219 23.730469 13.140625 23.5625 13.183594 23.4375 C 13.242188 23.269531 13.324219 23.203125 13.464844 23.203125 C 13.699219 23.203125 13.699219 23.195312 13.535156 23.621094 C 13.425781 23.886719 13.359375 23.953125 13.191406 23.953125 C 13.023438 23.953125 12.992188 23.921875 13.042969 23.8125 Z M 13.042969 23.8125 "/>
<path style=" stroke:none;fill-rule:nonzero;fill:rgb(88.627451%,90.588235%,28.627451%);fill-opacity:1;" d="M 15.675781 22.695312 C 15.476562 22.167969 15.242188 21.558594 15.160156 21.34375 L 15 20.941406 L 15.300781 20.96875 C 15.601562 20.992188 15.609375 21 15.839844 21.644531 C 15.964844 22.011719 16.089844 22.320312 16.109375 22.335938 C 16.125 22.359375 16.226562 22.167969 16.316406 21.910156 C 16.449219 21.558594 16.476562 21.402344 16.417969 21.234375 C 16.308594 20.949219 16.300781 20.949219 16.566406 20.949219 C 16.785156 20.949219 16.824219 21 17.089844 21.667969 L 17.375 22.378906 L 17.582031 21.683594 C 17.792969 21.015625 17.808594 20.992188 18.066406 20.96875 C 18.214844 20.949219 18.332031 20.957031 18.332031 20.992188 C 18.332031 21.042969 17.410156 23.5625 17.375 23.605469 C 17.367188 23.613281 17.234375 23.304688 17.074219 22.910156 C 16.917969 22.519531 16.773438 22.203125 16.75 22.203125 C 16.726562 22.203125 16.558594 22.527344 16.375 22.929688 L 16.042969 23.644531 Z M 15.675781 22.695312 "/>
<path style=" stroke:none;fill-rule:nonzero;fill:rgb(88.627451%,90.588235%,28.627451%);fill-opacity:1;" d="M 3.214844 23.105469 L 2.484375 22.679688 L 2.839844 22.460938 C 3.042969 22.335938 3.382812 22.136719 3.609375 22.011719 L 4 21.777344 L 4 22.058594 C 4 22.292969 3.949219 22.359375 3.699219 22.511719 L 3.398438 22.679688 L 3.699219 22.851562 C 3.941406 22.996094 4 23.078125 4 23.289062 C 4 23.421875 3.992188 23.539062 3.984375 23.539062 C 3.964844 23.539062 3.625 23.335938 3.214844 23.105469 Z M 3.214844 23.105469 "/>
<path style=" stroke:none;fill-rule:nonzero;fill:rgb(88.627451%,90.588235%,28.627451%);fill-opacity:1;" d="M 4.667969 22.242188 L 4.667969 20.949219 L 5.167969 20.949219 L 5.167969 21.953125 L 6.25 21.953125 L 6.25 20.949219 L 6.832031 20.949219 L 6.832031 23.539062 L 6.25 23.539062 L 6.25 22.453125 L 5.167969 22.453125 L 5.167969 23.539062 L 4.667969 23.539062 Z M 4.667969 22.242188 "/>
<path style=" stroke:none;fill-rule:nonzero;fill:rgb(88.627451%,90.588235%,28.627451%);fill-opacity:1;" d="M 7.558594 23.371094 C 7.273438 23.144531 7.191406 22.71875 7.367188 22.386719 C 7.542969 22.042969 7.757812 21.933594 8.234375 21.96875 C 8.566406 21.992188 8.640625 22.035156 8.808594 22.277344 C 8.910156 22.425781 8.976562 22.585938 8.957031 22.628906 C 8.933594 22.660156 8.683594 22.761719 8.417969 22.835938 C 7.875 22.988281 7.742188 23.164062 8.199219 23.105469 C 8.410156 23.078125 8.507812 23.113281 8.582031 23.230469 C 8.660156 23.363281 8.660156 23.402344 8.566406 23.460938 C 8.359375 23.597656 7.785156 23.546875 7.558594 23.371094 Z M 8.160156 22.609375 C 8.367188 22.535156 8.398438 22.496094 8.324219 22.402344 C 8.199219 22.253906 8.042969 22.253906 7.882812 22.417969 C 7.617188 22.6875 7.726562 22.761719 8.160156 22.609375 Z M 8.160156 22.609375 "/>
<path style=" stroke:none;fill-rule:nonzero;fill:rgb(88.627451%,90.588235%,28.627451%);fill-opacity:1;" d="M 10.332031 22.203125 L 10.332031 20.867188 L 10.832031 20.867188 L 10.832031 23.539062 L 10.332031 23.539062 Z M 10.332031 22.203125 "/>
<path style=" stroke:none;fill-rule:nonzero;fill:rgb(88.627451%,90.588235%,28.627451%);fill-opacity:1;" d="M 11.410156 23.296875 C 10.875 22.761719 11.25 21.953125 12.035156 21.953125 C 12.582031 21.953125 12.875 22.226562 12.875 22.746094 C 12.875 23.070312 12.832031 23.171875 12.640625 23.335938 C 12.292969 23.636719 11.734375 23.621094 11.410156 23.296875 Z M 12.316406 23.019531 C 12.457031 22.878906 12.441406 22.621094 12.273438 22.4375 C 12.109375 22.253906 12.015625 22.242188 11.816406 22.425781 C 11.535156 22.6875 11.675781 23.121094 12.042969 23.121094 C 12.140625 23.121094 12.257812 23.078125 12.316406 23.019531 Z M 12.316406 23.019531 "/>
<path style=" stroke:none;fill-rule:nonzero;fill:rgb(88.627451%,90.588235%,28.627451%);fill-opacity:1;" d="M 18.816406 23.289062 C 18.589844 23.054688 18.566406 22.988281 18.609375 22.679688 C 18.675781 22.1875 18.964844 21.953125 19.5 21.953125 C 19.851562 21.953125 19.933594 21.984375 20.117188 22.210938 C 20.601562 22.785156 20.226562 23.539062 19.457031 23.539062 C 19.132812 23.539062 19.023438 23.496094 18.816406 23.289062 Z M 19.734375 23.019531 C 19.875 22.878906 19.859375 22.621094 19.691406 22.4375 C 19.523438 22.253906 19.433594 22.242188 19.234375 22.425781 C 18.949219 22.6875 19.089844 23.121094 19.457031 23.121094 C 19.558594 23.121094 19.675781 23.078125 19.734375 23.019531 Z M 19.734375 23.019531 "/>
<path style=" stroke:none;fill-rule:nonzero;fill:rgb(88.627451%,90.588235%,28.627451%);fill-opacity:1;" d="M 20.75 22.746094 C 20.75 21.953125 20.75 21.953125 20.957031 21.953125 C 21.117188 21.953125 21.167969 21.992188 21.167969 22.128906 L 21.167969 22.292969 L 21.382812 22.128906 C 21.667969 21.902344 21.75 21.910156 21.75 22.144531 C 21.75 22.261719 21.660156 22.378906 21.5 22.46875 C 21.265625 22.601562 21.25 22.644531 21.25 23.078125 C 21.25 23.53125 21.25 23.539062 21 23.539062 L 20.75 23.539062 Z M 20.75 22.746094 "/>
<path style=" stroke:none;fill-rule:nonzero;fill:rgb(88.627451%,90.588235%,28.627451%);fill-opacity:1;" d="M 22.167969 22.203125 L 22.167969 20.867188 L 22.667969 20.867188 L 22.667969 23.539062 L 22.167969 23.539062 Z M 22.167969 22.203125 "/>
<path style=" stroke:none;fill-rule:nonzero;fill:rgb(88.627451%,90.588235%,28.627451%);fill-opacity:1;" d="M 23.351562 23.480469 C 23.199219 23.421875 23 23.003906 23 22.746094 C 23 22.417969 23.226562 22.042969 23.464844 21.984375 C 23.582031 21.953125 23.824219 21.953125 24.007812 21.976562 L 24.332031 22.019531 L 24.332031 20.867188 L 24.832031 20.867188 L 24.832031 23.539062 L 24.582031 23.539062 C 24.449219 23.539062 24.332031 23.496094 24.332031 23.453125 C 24.332031 23.394531 24.285156 23.394531 24.175781 23.453125 C 24.007812 23.539062 23.542969 23.554688 23.351562 23.480469 Z M 24.273438 22.945312 C 24.515625 22.554688 24.007812 22.101562 23.667969 22.410156 C 23.476562 22.578125 23.457031 22.71875 23.589844 22.960938 C 23.699219 23.164062 24.140625 23.152344 24.273438 22.945312 Z M 24.273438 22.945312 "/>
<path style=" stroke:none;fill-rule:nonzero;fill:rgb(88.627451%,90.588235%,28.627451%);fill-opacity:1;" d="M 25.332031 23.289062 C 25.332031 23.085938 25.390625 22.996094 25.625 22.863281 C 25.949219 22.660156 25.949219 22.601562 25.582031 22.453125 C 25.375 22.371094 25.332031 22.300781 25.332031 22.058594 L 25.332031 21.777344 L 25.859375 22.078125 C 26.140625 22.242188 26.5 22.4375 26.648438 22.511719 L 26.917969 22.652344 L 26.167969 23.09375 C 25.75 23.335938 25.390625 23.539062 25.375 23.539062 C 25.351562 23.539062 25.332031 23.421875 25.332031 23.289062 Z M 25.332031 23.289062 "/>
<path style=" stroke:none;fill-rule:nonzero;fill:rgb(100%,100%,100%);fill-opacity:1;" d="M 33.734375 34.539062 C 33.558594 34.4375 33.417969 34.328125 33.417969 34.296875 C 33.417969 34.273438 33.492188 34.144531 33.589844 34.019531 C 33.757812 33.8125 33.773438 33.804688 33.964844 33.929688 C 34.074219 33.996094 34.324219 34.054688 34.523438 34.054688 C 34.949219 34.054688 35.167969 33.871094 35.167969 33.511719 C 35.167969 33.285156 35.160156 33.277344 35 33.429688 C 34.609375 33.777344 33.734375 33.636719 33.382812 33.160156 C 33 32.636719 33.167969 31.71875 33.707031 31.382812 C 34.035156 31.183594 34.714844 31.160156 34.976562 31.34375 C 35.089844 31.425781 35.175781 31.441406 35.207031 31.382812 C 35.234375 31.34375 35.410156 31.300781 35.589844 31.300781 L 35.933594 31.300781 L 35.898438 32.617188 C 35.875 33.855469 35.867188 33.945312 35.675781 34.195312 C 35.566406 34.347656 35.351562 34.523438 35.199219 34.597656 C 34.808594 34.78125 34.109375 34.753906 33.734375 34.539062 Z M 35.050781 32.878906 C 35.117188 32.820312 35.167969 32.628906 35.167969 32.417969 C 35.167969 32.144531 35.125 32.035156 34.984375 31.933594 C 34.765625 31.785156 34.390625 31.757812 34.160156 31.894531 C 33.785156 32.09375 33.808594 32.761719 34.191406 32.960938 C 34.410156 33.0625 34.875 33.019531 35.050781 32.878906 Z M 35.050781 32.878906 "/>
<path style=" stroke:none;fill-rule:nonzero;fill:rgb(100%,100%,100%);fill-opacity:1;" d="M 13.648438 33.195312 C 13.523438 32.910156 13.300781 32.367188 13.132812 31.992188 L 12.839844 31.300781 L 13.191406 31.300781 C 13.535156 31.308594 13.542969 31.308594 13.757812 31.785156 L 13.976562 32.261719 L 14.117188 31.925781 C 14.191406 31.742188 14.242188 31.527344 14.214844 31.449219 C 14.191406 31.324219 14.242188 31.300781 14.507812 31.300781 C 14.683594 31.300781 14.832031 31.332031 14.832031 31.375 C 14.832031 31.417969 14.917969 31.640625 15.023438 31.882812 L 15.226562 32.328125 L 15.410156 31.808594 C 15.601562 31.300781 15.609375 31.300781 15.933594 31.300781 C 16.214844 31.300781 16.257812 31.324219 16.214844 31.449219 C 16.183594 31.527344 15.964844 32.066406 15.726562 32.652344 L 15.292969 33.710938 L 14.910156 32.953125 L 14.535156 32.203125 L 14.199219 32.960938 L 13.867188 33.722656 Z M 13.648438 33.195312 "/>
<path style=" stroke:none;fill-rule:nonzero;fill:rgb(100%,100%,100%);fill-opacity:1;" d="M 3.101562 33.488281 C 2.859375 33.394531 2.640625 33.304688 2.609375 33.269531 C 2.535156 33.203125 2.808594 32.636719 2.910156 32.636719 C 2.957031 32.636719 3.015625 32.667969 3.042969 32.71875 C 3.125 32.851562 3.742188 32.984375 4.015625 32.929688 C 4.292969 32.859375 4.441406 32.59375 4.316406 32.359375 C 4.273438 32.285156 3.984375 32.085938 3.675781 31.925781 C 2.976562 31.574219 2.75 31.316406 2.75 30.847656 C 2.75 30.140625 3.25 29.714844 4.082031 29.714844 C 4.457031 29.714844 5.167969 29.964844 5.167969 30.097656 C 5.167969 30.191406 4.910156 30.632812 4.851562 30.632812 C 4.816406 30.625 4.699219 30.574219 4.582031 30.507812 C 4.316406 30.355469 3.824219 30.347656 3.632812 30.492188 C 3.542969 30.558594 3.492188 30.683594 3.515625 30.808594 C 3.535156 30.964844 3.675781 31.074219 4.167969 31.308594 C 5.101562 31.757812 5.367188 32.285156 5.035156 32.996094 C 4.757812 33.5625 3.925781 33.777344 3.101562 33.488281 Z M 3.101562 33.488281 "/>
<path style=" stroke:none;fill-rule:nonzero;fill:rgb(100%,100%,100%);fill-opacity:1;" d="M 6.25 33.488281 C 5.464844 33.09375 5.433594 31.84375 6.191406 31.382812 C 6.375 31.265625 6.609375 31.214844 6.964844 31.214844 C 7.417969 31.214844 7.507812 31.242188 7.792969 31.492188 C 8.089844 31.757812 8.117188 31.808594 8.140625 32.308594 C 8.167969 32.746094 8.140625 32.894531 8 33.121094 C 7.691406 33.613281 6.851562 33.796875 6.25 33.488281 Z M 7.292969 32.84375 C 7.542969 32.59375 7.558594 32.308594 7.324219 32.019531 C 7 31.601562 6.449219 31.808594 6.375 32.386719 C 6.351562 32.585938 6.390625 32.703125 6.542969 32.851562 C 6.800781 33.113281 7.035156 33.101562 7.292969 32.84375 Z M 7.292969 32.84375 "/>
<path style=" stroke:none;fill-rule:nonzero;fill:rgb(100%,100%,100%);fill-opacity:1;" d="M 17.101562 33.496094 C 16.742188 33.320312 16.582031 33.003906 16.582031 32.46875 C 16.582031 31.675781 16.992188 31.214844 17.691406 31.214844 C 17.976562 31.214844 18.167969 31.265625 18.273438 31.367188 C 18.398438 31.46875 18.449219 31.484375 18.476562 31.410156 C 18.5 31.34375 18.648438 31.300781 18.839844 31.300781 L 19.167969 31.300781 L 19.167969 33.554688 L 18.792969 33.554688 C 18.582031 33.554688 18.417969 33.511719 18.417969 33.46875 C 18.417969 33.421875 18.308594 33.4375 18.167969 33.511719 C 17.859375 33.671875 17.449219 33.671875 17.101562 33.496094 Z M 18.234375 32.917969 C 18.484375 32.746094 18.5 32.019531 18.257812 31.882812 C 17.707031 31.59375 17.125 32.050781 17.339844 32.609375 C 17.5 33.035156 17.882812 33.167969 18.234375 32.917969 Z M 18.234375 32.917969 "/>
<path style=" stroke:none;fill-rule:nonzero;fill:rgb(100%,100%,100%);fill-opacity:1;" d="M 22.507812 33.488281 C 21.949219 33.1875 21.75 32.375 22.082031 31.816406 C 22.332031 31.410156 22.707031 31.214844 23.265625 31.214844 C 23.699219 31.214844 23.773438 31.242188 24.023438 31.5 C 24.316406 31.785156 24.484375 32.191406 24.359375 32.300781 C 24.324219 32.328125 23.941406 32.460938 23.507812 32.59375 C 22.734375 32.84375 22.734375 32.84375 22.984375 32.945312 C 23.175781 33.019531 23.308594 33.027344 23.464844 32.96875 C 23.589844 32.917969 23.691406 32.894531 23.699219 32.902344 C 23.699219 32.917969 23.773438 33.042969 23.851562 33.195312 L 24 33.453125 L 23.734375 33.546875 C 23.351562 33.679688 22.824219 33.652344 22.507812 33.488281 Z M 23.140625 32.242188 C 23.617188 32.09375 23.707031 31.925781 23.375 31.800781 C 23.023438 31.667969 22.582031 31.941406 22.582031 32.292969 C 22.582031 32.410156 22.617188 32.410156 23.140625 32.242188 Z M 23.140625 32.242188 "/>
<path style=" stroke:none;fill-rule:nonzero;fill:rgb(100%,100%,100%);fill-opacity:1;" d="M 41.757812 33.488281 C 40.925781 33.070312 40.875 31.933594 41.660156 31.410156 C 41.875 31.265625 42.058594 31.214844 42.425781 31.214844 C 42.839844 31.214844 42.949219 31.25 43.167969 31.449219 C 43.300781 31.574219 43.464844 31.816406 43.542969 31.984375 L 43.667969 32.285156 L 42.824219 32.550781 C 42.273438 32.726562 42.015625 32.851562 42.066406 32.902344 C 42.167969 33.003906 42.484375 33.019531 42.707031 32.945312 C 42.839844 32.902344 42.917969 32.945312 43.023438 33.128906 C 43.207031 33.445312 43.207031 33.4375 42.910156 33.546875 C 42.523438 33.679688 42.082031 33.652344 41.757812 33.488281 Z M 42.484375 32.191406 C 42.808594 32.085938 42.832031 31.910156 42.535156 31.800781 C 42.207031 31.675781 41.832031 31.910156 41.832031 32.242188 C 41.832031 32.402344 41.875 32.402344 42.484375 32.191406 Z M 42.484375 32.191406 "/>
<path style=" stroke:none;fill-rule:nonzero;fill:rgb(100%,100%,100%);fill-opacity:1;" d="M 44.667969 33.488281 C 43.832031 33.070312 43.785156 31.933594 44.574219 31.410156 C 44.992188 31.132812 45.726562 31.140625 46.066406 31.425781 C 46.332031 31.652344 46.542969 32.066406 46.476562 32.242188 C 46.449219 32.300781 46.066406 32.460938 45.617188 32.59375 L 44.800781 32.835938 L 45.066406 32.945312 C 45.257812 33.019531 45.390625 33.027344 45.550781 32.96875 C 45.675781 32.917969 45.785156 32.894531 45.792969 32.902344 C 45.984375 33.1875 46.082031 33.351562 46.082031 33.394531 C 46.082031 33.488281 45.582031 33.636719 45.257812 33.636719 C 45.089844 33.636719 44.824219 33.570312 44.667969 33.488281 Z M 45.398438 32.191406 C 45.726562 32.085938 45.75 31.910156 45.449219 31.800781 C 45.125 31.675781 44.75 31.910156 44.75 32.242188 C 44.75 32.402344 44.792969 32.402344 45.398438 32.191406 Z M 45.398438 32.191406 "/>
<path style=" stroke:none;fill-rule:nonzero;fill:rgb(100%,100%,100%);fill-opacity:1;" d="M 9 32.769531 C 9 32.019531 8.992188 31.976562 8.816406 31.953125 C 8.660156 31.933594 8.617188 31.867188 8.601562 31.617188 C 8.574219 31.324219 8.589844 31.300781 8.785156 31.300781 C 8.992188 31.300781 9 31.285156 9 30.742188 C 9 29.847656 9.316406 29.464844 10.050781 29.464844 C 10.214844 29.464844 10.417969 29.503906 10.5 29.546875 C 10.648438 29.628906 10.648438 29.648438 10.515625 29.882812 C 10.410156 30.074219 10.332031 30.113281 10.183594 30.074219 C 9.867188 30 9.75 30.183594 9.75 30.765625 L 9.75 31.300781 L 10.417969 31.300781 L 10.417969 31.96875 L 9.75 31.96875 L 9.75 33.554688 L 9 33.554688 Z M 9 32.769531 "/>
<path style=" stroke:none;fill-rule:nonzero;fill:rgb(100%,100%,100%);fill-opacity:1;" d="M 11.332031 32.726562 C 11.332031 31.925781 11.324219 31.894531 11.148438 31.867188 C 11 31.851562 10.949219 31.777344 10.933594 31.574219 C 10.910156 31.324219 10.925781 31.300781 11.117188 31.300781 C 11.324219 31.300781 11.332031 31.285156 11.332031 30.800781 L 11.332031 30.296875 L 11.992188 30.296875 L 12.015625 30.78125 C 12.042969 31.25 12.042969 31.257812 12.316406 31.285156 C 12.558594 31.308594 12.582031 31.332031 12.582031 31.601562 C 12.582031 31.867188 12.566406 31.882812 12.292969 31.882812 L 12 31.882812 L 12 33.554688 L 11.332031 33.554688 Z M 11.332031 32.726562 "/>
<path style=" stroke:none;fill-rule:nonzero;fill:rgb(100%,100%,100%);fill-opacity:1;" d="M 19.917969 32.425781 L 19.917969 31.300781 L 20.25 31.300781 C 20.566406 31.300781 20.582031 31.308594 20.582031 31.558594 L 20.582031 31.816406 L 20.917969 31.515625 C 21.359375 31.117188 21.5 31.125 21.5 31.542969 C 21.5 31.84375 21.476562 31.875 21.25 31.925781 C 20.832031 32.019531 20.667969 32.320312 20.667969 32.976562 L 20.667969 33.554688 L 19.917969 33.554688 Z M 19.917969 32.425781 "/>
<path style=" stroke:none;fill-rule:nonzero;fill:rgb(100%,100%,100%);fill-opacity:1;" d="M 26.832031 31.632812 L 26.832031 29.714844 L 29.417969 29.714844 L 29.417969 30.464844 L 27.582031 30.464844 L 27.582031 31.300781 L 29.25 31.300781 L 29.25 32.050781 L 27.582031 32.050781 L 27.582031 32.886719 L 29.5 32.886719 L 29.5 33.554688 L 26.832031 33.554688 Z M 26.832031 31.632812 "/>
<path style=" stroke:none;fill-rule:nonzero;fill:rgb(100%,100%,100%);fill-opacity:1;" d="M 30.167969 32.425781 L 30.167969 31.300781 L 30.5 31.300781 C 30.726562 31.300781 30.859375 31.34375 30.882812 31.425781 C 30.925781 31.535156 30.964844 31.527344 31.140625 31.382812 C 31.441406 31.148438 32.074219 31.160156 32.339844 31.390625 C 32.523438 31.550781 32.542969 31.632812 32.574219 32.558594 L 32.601562 33.554688 L 31.832031 33.554688 L 31.832031 32.769531 C 31.832031 31.875 31.742188 31.710938 31.351562 31.851562 C 31.035156 31.960938 30.917969 32.25 30.917969 32.953125 L 30.917969 33.554688 L 30.167969 33.554688 Z M 30.167969 32.425781 "/>
<path style=" stroke:none;fill-rule:nonzero;fill:rgb(100%,100%,100%);fill-opacity:1;" d="M 36.667969 32.425781 L 36.667969 31.300781 L 37.332031 31.300781 L 37.332031 33.554688 L 36.667969 33.554688 Z M 36.667969 32.425781 "/>
<path style=" stroke:none;fill-rule:nonzero;fill:rgb(100%,100%,100%);fill-opacity:1;" d="M 38.167969 32.425781 L 38.167969 31.300781 L 38.464844 31.300781 C 38.699219 31.300781 38.773438 31.34375 38.808594 31.476562 C 38.851562 31.632812 38.875 31.640625 38.949219 31.535156 C 39.226562 31.160156 39.976562 31.101562 40.292969 31.425781 C 40.492188 31.617188 40.5 31.675781 40.5 32.59375 L 40.5 33.554688 L 39.75 33.554688 L 39.75 32.777344 C 39.75 31.984375 39.683594 31.800781 39.417969 31.800781 C 39.339844 31.800781 39.191406 31.902344 39.074219 32.019531 C 38.910156 32.203125 38.875 32.335938 38.839844 32.894531 L 38.816406 33.554688 L 38.167969 33.554688 Z M 38.167969 32.425781 "/>
<path style=" stroke:none;fill-rule:nonzero;fill:rgb(100%,100%,100%);fill-opacity:1;" d="M 47.082031 32.425781 L 47.082031 31.300781 L 47.417969 31.300781 C 47.734375 31.300781 47.75 31.308594 47.75 31.558594 L 47.75 31.816406 L 48.082031 31.515625 C 48.523438 31.117188 48.667969 31.125 48.667969 31.542969 C 48.667969 31.84375 48.640625 31.875 48.417969 31.925781 C 48 32.019531 47.832031 32.320312 47.832031 32.976562 L 47.832031 33.554688 L 47.082031 33.554688 Z M 47.082031 32.425781 "/>
<path style=" stroke:none;fill-rule:nonzero;fill:rgb(100%,100%,100%);fill-opacity:1;" d="M 36.816406 30.789062 C 36.515625 30.617188 36.683594 30.132812 37.042969 30.132812 C 37.398438 30.132812 37.535156 30.5 37.265625 30.742188 C 37.089844 30.898438 37.015625 30.90625 36.816406 30.789062 Z M 36.816406 30.789062 "/>
<path style=" stroke:none;fill-rule:nonzero;fill:rgb(100%,100%,100%);fill-opacity:1;" d="M 6.707031 27.394531 C 6.390625 26.859375 6.082031 26.332031 6.015625 26.226562 L 5.890625 26.035156 L 6.339844 26.058594 L 6.785156 26.082031 L 7.316406 27.152344 L 7.484375 26.769531 C 7.574219 26.558594 7.675781 26.308594 7.707031 26.21875 C 7.75 26.066406 7.824219 26.042969 8.183594 26.042969 L 8.601562 26.042969 L 8.351562 26.484375 C 8.214844 26.71875 7.964844 27.183594 7.792969 27.503906 C 7.257812 28.488281 7.351562 28.496094 6.707031 27.394531 Z M 6.707031 27.394531 "/>
<path style=" stroke:none;fill-rule:nonzero;fill:rgb(100%,100%,100%);fill-opacity:1;" d="M 9.324219 28.1875 C 8.742188 27.792969 8.699219 26.816406 9.25 26.277344 C 9.523438 25.992188 9.609375 25.957031 9.976562 25.957031 C 10.214844 25.957031 10.457031 26.015625 10.582031 26.101562 C 10.726562 26.199219 10.792969 26.207031 10.816406 26.140625 C 10.832031 26.082031 10.992188 26.042969 11.175781 26.042969 L 11.5 26.042969 L 11.5 28.296875 L 11.125 28.296875 C 10.917969 28.296875 10.75 28.253906 10.75 28.210938 C 10.75 28.160156 10.640625 28.179688 10.5 28.253906 C 10.140625 28.4375 9.660156 28.414062 9.324219 28.1875 Z M 10.566406 27.660156 C 10.792969 27.503906 10.824219 26.925781 10.609375 26.691406 C 10.398438 26.460938 9.964844 26.492188 9.757812 26.757812 C 9.523438 27.050781 9.542969 27.335938 9.792969 27.585938 C 10.023438 27.828125 10.300781 27.851562 10.566406 27.660156 Z M 10.566406 27.660156 "/>
<path style=" stroke:none;fill-rule:nonzero;fill:rgb(100%,100%,100%);fill-opacity:1;" d="M 17.707031 28.320312 C 17.417969 28.261719 16.917969 28.019531 16.917969 27.945312 C 16.917969 27.902344 16.984375 27.769531 17.058594 27.644531 C 17.132812 27.519531 17.199219 27.410156 17.207031 27.402344 C 17.214844 27.386719 17.367188 27.453125 17.542969 27.542969 C 17.933594 27.746094 18.316406 27.761719 18.566406 27.578125 C 18.949219 27.308594 18.765625 27.035156 17.976562 26.667969 C 17.351562 26.367188 17.082031 26.050781 17.082031 25.597656 C 17.082031 24.90625 17.601562 24.457031 18.390625 24.457031 C 18.726562 24.457031 19.5 24.707031 19.5 24.816406 C 19.5 24.832031 19.457031 24.964844 19.410156 25.117188 C 19.308594 25.398438 19.226562 25.425781 18.917969 25.25 C 18.441406 24.972656 17.75 25.214844 17.875 25.617188 C 17.917969 25.742188 18.125 25.890625 18.550781 26.082031 C 19.234375 26.390625 19.5 26.710938 19.5 27.195312 C 19.5 28.027344 18.699219 28.539062 17.707031 28.320312 Z M 17.707031 28.320312 "/>
<path style=" stroke:none;fill-rule:nonzero;fill:rgb(100%,100%,100%);fill-opacity:1;" d="M 20.535156 28.246094 C 20.183594 28.070312 20 27.726562 20 27.210938 C 20 26.417969 20.410156 25.957031 21.109375 25.957031 C 21.390625 25.957031 21.582031 26.007812 21.691406 26.109375 C 21.816406 26.207031 21.867188 26.226562 21.890625 26.148438 C 21.917969 26.082031 22.066406 26.042969 22.257812 26.042969 L 22.582031 26.042969 L 22.582031 28.296875 L 22.257812 28.296875 C 22.074219 28.296875 21.917969 28.253906 21.898438 28.195312 C 21.875 28.128906 21.808594 28.136719 21.667969 28.238281 C 21.417969 28.414062 20.875 28.421875 20.535156 28.246094 Z M 21.75 27.609375 C 22.101562 27.226562 21.859375 26.542969 21.367188 26.542969 C 20.890625 26.542969 20.589844 26.925781 20.757812 27.351562 C 20.925781 27.804688 21.441406 27.945312 21.75 27.609375 Z M 21.75 27.609375 "/>
<path style=" stroke:none;fill-rule:nonzero;fill:rgb(100%,100%,100%);fill-opacity:1;" d="M 26.917969 28.269531 C 26.550781 28.085938 26.332031 27.660156 26.332031 27.101562 C 26.332031 26.632812 26.351562 26.585938 26.660156 26.285156 C 26.957031 25.984375 27.015625 25.957031 27.449219 25.957031 C 27.714844 25.957031 28 26 28.089844 26.042969 C 28.242188 26.125 28.25 26.09375 28.25 25.164062 L 28.25 24.207031 L 29 24.207031 L 29 28.296875 L 28.625 28.296875 C 28.417969 28.296875 28.25 28.253906 28.25 28.210938 C 28.25 28.160156 28.140625 28.179688 28 28.253906 C 27.707031 28.402344 27.199219 28.414062 26.917969 28.269531 Z M 28.140625 27.621094 C 28.199219 27.5625 28.25 27.351562 28.25 27.117188 C 28.25 26.660156 28.125 26.542969 27.640625 26.542969 C 27.066406 26.542969 26.839844 27.21875 27.292969 27.609375 C 27.535156 27.820312 27.890625 27.820312 28.140625 27.621094 Z M 28.140625 27.621094 "/>
<path style=" stroke:none;fill-rule:nonzero;fill:rgb(100%,100%,100%);fill-opacity:1;" d="M 30.285156 28.296875 C 30.058594 28.203125 29.683594 27.753906 29.617188 27.492188 C 29.417969 26.710938 30.042969 25.957031 30.890625 25.957031 C 31.390625 25.957031 31.632812 26.074219 31.875 26.449219 C 32.214844 26.960938 32.160156 27.042969 31.207031 27.34375 C 30.398438 27.601562 30.382812 27.609375 30.617188 27.703125 C 30.792969 27.777344 30.933594 27.777344 31.109375 27.710938 C 31.25 27.667969 31.367188 27.636719 31.375 27.644531 C 31.382812 27.660156 31.449219 27.761719 31.523438 27.878906 C 31.714844 28.152344 31.707031 28.179688 31.410156 28.285156 C 31.101562 28.394531 30.535156 28.394531 30.285156 28.296875 Z M 30.859375 26.984375 C 31.324219 26.816406 31.367188 26.601562 30.925781 26.558594 C 30.617188 26.527344 30.332031 26.726562 30.332031 26.976562 C 30.332031 27.160156 30.359375 27.160156 30.859375 26.984375 Z M 30.859375 26.984375 "/>
<path style=" stroke:none;fill-rule:nonzero;fill:rgb(100%,100%,100%);fill-opacity:1;" d="M 35.035156 28.261719 C 34.683594 28.101562 34.625 27.988281 34.792969 27.792969 C 34.925781 27.652344 34.957031 27.644531 35.109375 27.753906 C 35.316406 27.894531 35.714844 27.917969 35.792969 27.792969 C 35.875 27.660156 35.691406 27.484375 35.417969 27.425781 C 34.773438 27.300781 34.550781 26.644531 34.992188 26.199219 C 35.199219 26 35.300781 25.957031 35.667969 25.957031 C 36.015625 25.957031 36.324219 26.042969 36.484375 26.167969 C 36.5 26.183594 36.449219 26.292969 36.375 26.410156 C 36.285156 26.550781 36.191406 26.601562 36.132812 26.558594 C 35.984375 26.441406 35.691406 26.390625 35.582031 26.460938 C 35.417969 26.558594 35.550781 26.785156 35.808594 26.84375 C 35.933594 26.875 36.140625 26.976562 36.273438 27.058594 C 36.582031 27.285156 36.601562 27.835938 36.292969 28.128906 C 36.042969 28.363281 35.410156 28.4375 35.035156 28.261719 Z M 35.035156 28.261719 "/>
<path style=" stroke:none;fill-rule:nonzero;fill:rgb(100%,100%,100%);fill-opacity:1;" d="M 2.832031 26.375 L 2.832031 24.457031 L 5.5 24.457031 L 5.5 25.207031 L 3.582031 25.207031 L 3.582031 26.042969 L 5.25 26.042969 L 5.25 26.792969 L 3.574219 26.792969 L 3.601562 27.195312 L 3.625 27.585938 L 4.609375 27.609375 L 5.582031 27.636719 L 5.582031 28.296875 L 2.832031 28.296875 Z M 2.832031 26.375 "/>
<path style=" stroke:none;fill-rule:nonzero;fill:rgb(100%,100%,100%);fill-opacity:1;" d="M 12.25 27.167969 L 12.25 26.042969 L 12.582031 26.042969 C 12.824219 26.042969 12.917969 26.074219 12.917969 26.167969 C 12.917969 26.332031 12.976562 26.324219 13.226562 26.125 C 13.375 26.007812 13.566406 25.957031 13.839844 25.957031 C 14.167969 25.957031 14.265625 25.992188 14.410156 26.175781 C 14.558594 26.367188 14.582031 26.515625 14.582031 27.34375 L 14.582031 28.296875 L 13.832031 28.296875 L 13.832031 27.46875 C 13.832031 26.71875 13.816406 26.632812 13.667969 26.585938 C 13.476562 26.527344 13.199219 26.660156 13.082031 26.875 C 13.042969 26.960938 13 27.320312 13 27.660156 L 13 28.296875 L 12.25 28.296875 Z M 12.25 27.167969 "/>
<path style=" stroke:none;fill-rule:nonzero;fill:rgb(100%,100%,100%);fill-opacity:1;" d="M 23.332031 27.167969 L 23.332031 26.042969 L 23.667969 26.042969 C 23.910156 26.042969 24 26.074219 24 26.167969 C 24 26.332031 24.058594 26.324219 24.308594 26.125 C 24.617188 25.882812 25.242188 25.890625 25.484375 26.148438 C 25.648438 26.324219 25.667969 26.433594 25.667969 27.320312 L 25.667969 28.296875 L 25 28.296875 L 25 27.578125 C 25 27.183594 24.957031 26.792969 24.917969 26.699219 C 24.792969 26.484375 24.535156 26.5 24.292969 26.75 C 24.109375 26.933594 24.082031 27.019531 24.082031 27.628906 L 24.082031 28.296875 L 23.332031 28.296875 Z M 23.332031 27.167969 "/>
<path style=" stroke:none;fill-rule:nonzero;fill:rgb(100%,100%,100%);fill-opacity:1;" d="M 32.667969 27.167969 L 32.667969 26.042969 L 33 26.042969 C 33.316406 26.042969 33.332031 26.050781 33.332031 26.300781 L 33.332031 26.558594 L 33.667969 26.257812 C 34.109375 25.859375 34.25 25.867188 34.25 26.285156 C 34.25 26.585938 34.226562 26.617188 34 26.667969 C 33.582031 26.757812 33.417969 27.058594 33.417969 27.71875 L 33.417969 28.296875 L 32.667969 28.296875 Z M 32.667969 27.167969 "/>
<path style=" stroke:none;fill-rule:nonzero;fill:rgb(100%,100%,100%);fill-opacity:1;" d="M 62.742188 25.640625 C 60.183594 21.625 60.773438 16.316406 64.140625 12.914062 C 66.183594 10.851562 68.933594 9.757812 71.773438 9.875 C 73.417969 9.941406 74.625 10.25 76.042969 10.960938 C 76.617188 11.242188 77.625 11.867188 77.75 12.011719 C 77.773438 12.035156 78.007812 12.234375 78.265625 12.460938 C 78.773438 12.886719 79.660156 13.914062 80.050781 14.523438 C 80.382812 15.050781 80.742188 15.71875 80.75 15.816406 C 80.75 15.867188 80.609375 15.976562 80.441406 16.066406 C 80.265625 16.160156 79.792969 16.433594 79.390625 16.675781 C 78.984375 16.917969 78.640625 17.109375 78.625 17.09375 C 78.617188 17.078125 78.484375 16.84375 78.332031 16.566406 C 77.558594 15.15625 76.425781 14.054688 75 13.347656 C 73.890625 12.789062 72.75 12.519531 71.5 12.519531 C 70.273438 12.519531 69.214844 12.777344 68.042969 13.363281 C 66.523438 14.121094 65.199219 15.507812 64.492188 17.070312 C 63.648438 18.929688 63.601562 21.234375 64.351562 23.121094 C 64.558594 23.644531 65.042969 24.523438 65.207031 24.699219 C 65.308594 24.804688 65.175781 24.90625 64.226562 25.472656 C 63.617188 25.824219 63.109375 26.125 63.082031 26.125 C 63.058594 26.125 62.910156 25.90625 62.742188 25.640625 Z M 62.742188 25.640625 "/>
<path style=" stroke:none;fill-rule:nonzero;fill:rgb(100%,100%,100%);fill-opacity:1;" d="M 13.042969 23.8125 C 13.074219 23.730469 13.140625 23.5625 13.183594 23.4375 C 13.242188 23.269531 13.324219 23.203125 13.476562 23.203125 C 13.582031 23.203125 13.667969 23.230469 13.648438 23.269531 C 13.632812 23.304688 13.566406 23.472656 13.5 23.644531 C 13.410156 23.878906 13.332031 23.953125 13.183594 23.953125 C 13.023438 23.953125 12.992188 23.921875 13.042969 23.8125 Z M 13.042969 23.8125 "/>
<path style=" stroke:none;fill-rule:nonzero;fill:rgb(100%,100%,100%);fill-opacity:1;" d="M 15.675781 22.6875 C 15.476562 22.167969 15.242188 21.566406 15.160156 21.351562 L 15 20.949219 L 15.285156 20.949219 C 15.550781 20.949219 15.566406 20.976562 15.742188 21.476562 C 15.839844 21.761719 15.964844 22.085938 16.015625 22.203125 C 16.101562 22.410156 16.109375 22.402344 16.265625 22.035156 C 16.449219 21.617188 16.476562 21.410156 16.382812 21.140625 C 16.332031 20.976562 16.351562 20.949219 16.558594 20.949219 C 16.757812 20.949219 16.808594 21.007812 16.941406 21.351562 C 17.023438 21.566406 17.160156 21.894531 17.234375 22.070312 L 17.375 22.394531 L 17.582031 21.691406 C 17.792969 21.007812 17.808594 20.992188 18.074219 20.96875 C 18.285156 20.941406 18.339844 20.96875 18.316406 21.050781 C 18.292969 21.109375 18.074219 21.691406 17.824219 22.34375 C 17.582031 22.996094 17.359375 23.511719 17.332031 23.496094 C 17.308594 23.480469 17.183594 23.1875 17.042969 22.835938 C 16.910156 22.484375 16.765625 22.203125 16.742188 22.203125 C 16.714844 22.203125 16.542969 22.527344 16.367188 22.921875 L 16.035156 23.628906 Z M 15.675781 22.6875 "/>
<path style=" stroke:none;fill-rule:nonzero;fill:rgb(100%,100%,100%);fill-opacity:1;" d="M 3.214844 23.105469 L 2.484375 22.679688 L 2.839844 22.460938 C 3.042969 22.335938 3.382812 22.136719 3.609375 22.011719 L 4 21.777344 L 4 22.050781 C 4 22.277344 3.949219 22.359375 3.699219 22.503906 L 3.390625 22.679688 L 3.699219 22.851562 C 3.941406 22.996094 4 23.078125 4 23.289062 C 4 23.421875 3.992188 23.539062 3.984375 23.539062 C 3.964844 23.539062 3.625 23.335938 3.214844 23.105469 Z M 3.214844 23.105469 "/>
<path style=" stroke:none;fill-rule:nonzero;fill:rgb(100%,100%,100%);fill-opacity:1;" d="M 4.667969 22.242188 L 4.667969 20.949219 L 4.875 20.949219 C 5.074219 20.949219 5.082031 20.976562 5.082031 21.449219 L 5.082031 21.953125 L 6.25 21.953125 L 6.25 20.949219 L 6.75 20.949219 L 6.75 23.539062 L 6.25 23.539062 L 6.25 22.453125 L 5.082031 22.453125 L 5.082031 22.996094 C 5.082031 23.519531 5.074219 23.539062 4.875 23.539062 L 4.667969 23.539062 Z M 4.667969 22.242188 "/>
<path style=" stroke:none;fill-rule:nonzero;fill:rgb(100%,100%,100%);fill-opacity:1;" d="M 7.558594 23.371094 C 7.273438 23.144531 7.191406 22.71875 7.367188 22.386719 C 7.535156 22.058594 7.734375 21.953125 8.167969 21.953125 C 8.425781 21.953125 8.558594 22 8.707031 22.167969 C 9.042969 22.527344 8.984375 22.652344 8.417969 22.828125 C 7.875 22.996094 7.742188 23.164062 8.199219 23.105469 C 8.433594 23.078125 8.507812 23.105469 8.574219 23.253906 C 8.640625 23.394531 8.625 23.453125 8.535156 23.488281 C 8.257812 23.597656 7.765625 23.539062 7.558594 23.371094 Z M 8.160156 22.609375 C 8.367188 22.535156 8.398438 22.496094 8.324219 22.402344 C 8.199219 22.253906 8.042969 22.253906 7.882812 22.417969 C 7.617188 22.6875 7.726562 22.761719 8.160156 22.609375 Z M 8.160156 22.609375 "/>
<path style=" stroke:none;fill-rule:nonzero;fill:rgb(100%,100%,100%);fill-opacity:1;" d="M 9.332031 22.203125 L 9.332031 20.867188 L 9.832031 20.867188 L 9.832031 23.539062 L 9.332031 23.539062 Z M 9.332031 22.203125 "/>
<path style=" stroke:none;fill-rule:nonzero;fill:rgb(100%,100%,100%);fill-opacity:1;" d="M 10.332031 22.203125 L 10.332031 20.867188 L 10.75 20.867188 L 10.75 23.539062 L 10.332031 23.539062 Z M 10.332031 22.203125 "/>
<path style=" stroke:none;fill-rule:nonzero;fill:rgb(100%,100%,100%);fill-opacity:1;" d="M 11.410156 23.296875 C 10.882812 22.761719 11.25 21.953125 12.023438 21.953125 C 12.675781 21.953125 12.992188 22.378906 12.816406 23.003906 C 12.714844 23.371094 12.464844 23.539062 12.015625 23.539062 C 11.726562 23.539062 11.609375 23.488281 11.410156 23.296875 Z M 12.316406 23.019531 C 12.457031 22.878906 12.441406 22.621094 12.273438 22.4375 C 12.109375 22.253906 11.964844 22.242188 11.800781 22.417969 C 11.535156 22.679688 11.683594 23.121094 12.042969 23.121094 C 12.140625 23.121094 12.257812 23.078125 12.316406 23.019531 Z M 12.316406 23.019531 "/>
<path style=" stroke:none;fill-rule:nonzero;fill:rgb(100%,100%,100%);fill-opacity:1;" d="M 18.816406 23.289062 C 18.589844 23.054688 18.566406 22.988281 18.609375 22.679688 C 18.675781 22.195312 18.964844 21.953125 19.492188 21.953125 C 20.035156 21.953125 20.292969 22.21875 20.285156 22.769531 C 20.273438 23.277344 19.992188 23.539062 19.449219 23.539062 C 19.140625 23.539062 19.023438 23.496094 18.816406 23.289062 Z M 19.734375 23.019531 C 19.875 22.878906 19.859375 22.621094 19.691406 22.4375 C 19.523438 22.253906 19.382812 22.242188 19.214844 22.417969 C 18.949219 22.679688 19.101562 23.121094 19.457031 23.121094 C 19.558594 23.121094 19.675781 23.078125 19.734375 23.019531 Z M 19.734375 23.019531 "/>
<path style=" stroke:none;fill-rule:nonzero;fill:rgb(100%,100%,100%);fill-opacity:1;" d="M 20.75 22.746094 C 20.75 21.953125 20.75 21.953125 20.957031 21.953125 C 21.117188 21.953125 21.167969 21.992188 21.167969 22.128906 L 21.167969 22.292969 L 21.382812 22.128906 C 21.675781 21.902344 21.75 21.910156 21.75 22.160156 C 21.75 22.277344 21.707031 22.371094 21.667969 22.371094 C 21.617188 22.371094 21.484375 22.460938 21.375 22.578125 C 21.214844 22.726562 21.167969 22.871094 21.167969 23.164062 C 21.167969 23.503906 21.148438 23.539062 20.957031 23.539062 C 20.75 23.539062 20.75 23.539062 20.75 22.746094 Z M 20.75 22.746094 "/>
<path style=" stroke:none;fill-rule:nonzero;fill:rgb(100%,100%,100%);fill-opacity:1;" d="M 22.167969 22.203125 L 22.167969 20.867188 L 22.582031 20.867188 L 22.582031 23.539062 L 22.167969 23.539062 Z M 22.167969 22.203125 "/>
<path style=" stroke:none;fill-rule:nonzero;fill:rgb(100%,100%,100%);fill-opacity:1;" d="M 23.351562 23.480469 C 23.199219 23.421875 23 23.003906 23 22.746094 C 23 22.417969 23.226562 22.042969 23.464844 21.984375 C 23.582031 21.953125 23.824219 21.953125 24.007812 21.976562 L 24.332031 22.019531 L 24.332031 21.441406 C 24.332031 20.882812 24.339844 20.867188 24.542969 20.867188 L 24.75 20.867188 L 24.75 23.539062 L 24.542969 23.539062 C 24.425781 23.539062 24.332031 23.496094 24.332031 23.453125 C 24.332031 23.394531 24.285156 23.394531 24.175781 23.453125 C 24.007812 23.539062 23.542969 23.554688 23.351562 23.480469 Z M 24.234375 23.019531 C 24.464844 22.785156 24.25 22.285156 23.917969 22.285156 C 23.582031 22.285156 23.367188 22.785156 23.601562 23.019531 C 23.660156 23.078125 23.800781 23.121094 23.917969 23.121094 C 24.035156 23.121094 24.175781 23.078125 24.234375 23.019531 Z M 24.234375 23.019531 "/>
<path style=" stroke:none;fill-rule:nonzero;fill:rgb(100%,100%,100%);fill-opacity:1;" d="M 25.332031 23.289062 C 25.332031 23.085938 25.390625 22.996094 25.625 22.863281 C 25.949219 22.660156 25.949219 22.601562 25.582031 22.453125 C 25.375 22.371094 25.332031 22.300781 25.332031 22.058594 C 25.332031 21.902344 25.359375 21.792969 25.398438 21.808594 C 26.242188 22.285156 26.832031 22.636719 26.832031 22.652344 C 26.832031 22.6875 25.925781 23.238281 25.609375 23.402344 L 25.332031 23.546875 Z M 25.332031 23.289062 "/>
<path style=" stroke:none;fill-rule:nonzero;fill:rgb(100%,100%,100%);fill-opacity:1;" d="M 18.042969 19.664062 C 16.949219 19.324219 16.234375 18.238281 16.367188 17.128906 C 16.464844 16.285156 16.859375 15.707031 17.617188 15.265625 C 17.992188 15.058594 18.125 15.023438 18.714844 15.023438 C 19.265625 15.023438 19.457031 15.058594 19.816406 15.242188 C 20.667969 15.660156 21.074219 16.367188 21.082031 17.386719 C 21.082031 17.910156 21.042969 18.113281 20.875 18.4375 C 20.351562 19.480469 19.132812 20.007812 18.042969 19.664062 Z M 19.5 18.238281 C 20.042969 17.71875 20.015625 16.910156 19.464844 16.484375 C 18.933594 16.074219 18.308594 16.140625 17.824219 16.660156 C 17.667969 16.828125 17.632812 16.960938 17.625 17.371094 C 17.625 17.855469 17.632812 17.886719 17.984375 18.210938 C 18.332031 18.539062 18.367188 18.546875 18.800781 18.511719 C 19.160156 18.480469 19.308594 18.421875 19.5 18.238281 Z M 19.5 18.238281 "/>
<path style=" stroke:none;fill-rule:nonzero;fill:rgb(100%,100%,100%);fill-opacity:1;" d="M 47.464844 17.21875 C 47.824219 16.808594 48.25 16.335938 48.425781 16.152344 C 48.589844 15.96875 49.066406 15.433594 49.464844 14.972656 C 49.875 14.507812 50.957031 13.289062 51.875 12.269531 C 52.792969 11.242188 53.898438 10 54.332031 9.507812 C 55.792969 7.863281 57.550781 5.882812 57.875 5.527344 C 58.308594 5.050781 58.523438 5.066406 58.109375 5.542969 C 57.933594 5.742188 57.042969 6.746094 56.125 7.769531 C 55.207031 8.789062 54.140625 9.992188 53.75 10.433594 C 53.359375 10.875 52.574219 11.761719 52 12.402344 C 51.425781 13.046875 50.492188 14.097656 49.925781 14.730469 C 47.648438 17.292969 47.050781 17.945312 46.933594 17.945312 C 46.875 17.945312 47.109375 17.621094 47.464844 17.21875 Z M 47.464844 17.21875 "/>
<path style=" stroke:none;fill-rule:nonzero;fill:rgb(100%,100%,100%);fill-opacity:1;" d="M 40.023438 14.671875 C 39.800781 14.246094 39.449219 13.570312 39.25 13.171875 C 39.015625 12.71875 38.851562 12.46875 38.792969 12.511719 C 38.75 12.554688 38.410156 12.746094 38.042969 12.9375 C 37.675781 13.136719 37.050781 13.480469 36.640625 13.695312 C 36.242188 13.921875 35.882812 14.105469 35.851562 14.105469 C 35.800781 14.105469 34.832031 12.253906 34.832031 12.152344 C 34.832031 12.136719 35.382812 11.8125 36.066406 11.433594 C 37.957031 10.375 37.851562 10.449219 37.714844 10.242188 C 37.339844 9.632812 36.417969 7.730469 36.476562 7.671875 C 36.609375 7.535156 38.601562 6.511719 38.714844 6.511719 C 38.757812 6.511719 39.066406 7.042969 39.398438 7.703125 C 39.726562 8.355469 40.035156 8.9375 40.074219 9.007812 C 40.132812 9.097656 40.390625 8.988281 41.351562 8.445312 C 42 8.078125 42.582031 7.761719 42.640625 7.746094 C 42.691406 7.730469 43 8.128906 43.332031 8.621094 C 43.925781 9.53125 44.007812 9.808594 43.683594 9.867188 C 43.609375 9.882812 43.007812 10.183594 42.359375 10.550781 L 41.175781 11.203125 L 41.933594 12.703125 C 42.339844 13.53125 42.648438 14.230469 42.617188 14.273438 C 42.507812 14.363281 40.558594 15.441406 40.492188 15.441406 C 40.457031 15.441406 40.25 15.089844 40.023438 14.671875 Z M 40.023438 14.671875 "/>
<path style=" stroke:none;fill-rule:nonzero;fill:rgb(100%,100%,100%);fill-opacity:1;" d="M 26.542969 12.503906 C 26.574219 12.304688 26.648438 11.917969 26.707031 11.644531 C 27.023438 10.234375 27.339844 8.8125 27.507812 7.996094 C 27.617188 7.496094 27.707031 7.277344 27.792969 7.363281 C 27.816406 7.386719 27.765625 7.761719 27.667969 8.1875 C 27.367188 9.546875 27.183594 10.375 27.050781 10.976562 C 26.714844 12.511719 26.632812 12.855469 26.558594 12.855469 C 26.515625 12.855469 26.507812 12.695312 26.542969 12.503906 Z M 26.542969 12.503906 "/>
</g>
</svg>
