<?xml version="1.0" encoding="UTF-8"?>
<svg xmlns="http://www.w3.org/2000/svg" xmlns:xlink="http://www.w3.org/1999/xlink" width="100pt" height="52pt" viewBox="0 0 100 52" version="1.1">
<g id="surface1">
<path style=" stroke:none;fill-rule:nonzero;fill:rgb(13.72549%,13.72549%,13.72549%);fill-opacity:1;" d="M 0 26 L 0 0 L 100 0 L 100 52 L 0 52 Z M 0 26 "/>
<path style=" stroke:none;fill-rule:nonzero;fill:rgb(16.862745%,16.862745%,16.862745%);fill-opacity:1;" d="M 0 45.449219 L 0 38.894531 L 0.558594 39.304688 C 0.875 39.53125 5.058594 42.460938 9.875 45.816406 L 18.617188 51.917969 L 18.917969 51.734375 C 19.199219 51.566406 20.925781 50.5625 21.5 50.230469 C 21.660156 50.140625 22.410156 49.703125 23.167969 49.261719 C 23.925781 48.828125 25.125 48.128906 25.832031 47.71875 C 26.542969 47.308594 27.332031 46.851562 27.582031 46.699219 C 27.832031 46.550781 28.175781 46.347656 28.332031 46.257812 C 29.117188 45.816406 30.359375 45.097656 31.832031 44.238281 C 32.726562 43.71875 33.667969 43.167969 33.917969 43.027344 C 34.667969 42.59375 37.035156 41.214844 38.375 40.441406 C 39.066406 40.039062 39.773438 39.621094 39.957031 39.523438 C 40.140625 39.414062 40.609375 39.144531 41 38.921875 C 45.675781 36.199219 46.867188 35.507812 47.667969 35.054688 C 48.007812 34.863281 48.589844 34.523438 48.957031 34.304688 C 49.324219 34.089844 50.714844 33.277344 52.042969 32.511719 C 53.375 31.734375 55.023438 30.78125 55.707031 30.382812 C 56.398438 29.980469 57.214844 29.503906 57.523438 29.332031 C 57.839844 29.15625 58.214844 28.9375 58.359375 28.847656 C 59.023438 28.460938 62.332031 26.542969 62.648438 26.367188 L 63.007812 26.167969 L 63.191406 26.417969 C 63.550781 26.917969 64.808594 28.121094 65.433594 28.5625 C 66.160156 29.078125 67.375 29.707031 68.140625 29.949219 C 69.265625 30.316406 69.992188 30.421875 71.375 30.421875 C 73.226562 30.421875 74.449219 30.140625 75.976562 29.371094 C 78.582031 28.046875 80.542969 25.667969 81.308594 22.921875 C 81.882812 20.832031 81.726562 18.128906 80.925781 16.242188 L 80.75 15.84375 L 80.484375 16.007812 C 80.332031 16.09375 79.839844 16.382812 79.390625 16.644531 C 78.765625 17.011719 78.574219 17.160156 78.609375 17.261719 C 79.023438 18.539062 79.089844 18.886719 79.140625 19.824219 C 79.207031 21.394531 79 22.476562 78.367188 23.746094 C 77.066406 26.332031 74.417969 27.960938 71.5 27.960938 C 69.882812 27.960938 68.390625 27.492188 67.015625 26.550781 C 66.558594 26.234375 65.550781 25.273438 65.398438 25.007812 C 65.359375 24.929688 65.292969 24.875 65.257812 24.875 C 65.226562 24.875 64.707031 25.15625 64.117188 25.5 L 63.042969 26.125 L 62.851562 25.890625 C 62.390625 25.332031 61.734375 23.847656 61.417969 22.660156 C 60.660156 19.808594 61.339844 16.382812 63.132812 14.003906 C 65.824219 10.425781 70.390625 8.988281 74.625 10.390625 C 77.089844 11.210938 79.199219 12.980469 80.441406 15.273438 C 80.601562 15.574219 80.765625 15.808594 80.800781 15.800781 C 80.867188 15.792969 83.375 14.347656 83.75 14.105469 C 83.816406 14.0625 84.332031 13.765625 84.898438 13.4375 C 86.882812 12.292969 88.015625 11.644531 88.273438 11.484375 C 88.425781 11.402344 89.382812 10.84375 90.417969 10.242188 C 91.449219 9.640625 92.816406 8.847656 93.457031 8.472656 C 94.101562 8.097656 94.832031 7.671875 95.082031 7.535156 C 95.332031 7.394531 95.976562 7.027344 96.5 6.71875 C 97.023438 6.410156 98.007812 5.84375 98.683594 5.449219 L 99.917969 4.75 L 99.941406 2.355469 C 99.949219 1.035156 99.964844 11.667969 99.984375 25.984375 L 100 52 L 0 52 Z M 87.832031 49.996094 C 88.410156 49.945312 89.425781 49.871094 90.109375 49.8125 L 91.332031 49.722656 L 91.292969 48.960938 C 91.265625 48.542969 91.207031 47.691406 91.167969 47.074219 C 91.023438 45.171875 90.882812 42.476562 90.875 41.734375 L 90.875 41.023438 L 91.792969 40.964844 C 92.300781 40.933594 93.308594 40.867188 94.042969 40.824219 C 97.066406 40.613281 97.925781 40.574219 98.898438 40.566406 L 99.917969 40.566406 L 99.917969 35.375 L 98.609375 35.414062 C 97.375 35.457031 93.515625 35.648438 91.324219 35.773438 C 90.734375 35.808594 90.339844 35.800781 90.308594 35.75 C 90.285156 35.707031 90.234375 35.222656 90.199219 34.671875 C 90.167969 34.128906 90.109375 33.664062 90.074219 33.636719 C 90.042969 33.613281 89.964844 32.503906 89.917969 31.175781 C 89.867188 29.839844 89.792969 28.527344 89.75 28.253906 C 89.707031 27.976562 89.667969 27.59375 89.667969 27.410156 C 89.667969 27.160156 89.625 27.042969 89.523438 27.011719 C 89.398438 26.960938 84.992188 27.183594 84.601562 27.261719 C 84.417969 27.300781 84.410156 27.320312 84.457031 28.070312 C 84.484375 28.496094 84.542969 29.457031 84.582031 30.214844 C 84.667969 31.632812 84.773438 32.984375 84.917969 34.429688 C 84.957031 34.890625 84.992188 35.472656 85 35.730469 L 85 36.199219 L 84.523438 36.214844 C 83.984375 36.234375 81.199219 36.449219 80.042969 36.566406 C 79.632812 36.609375 78.792969 36.667969 78.191406 36.691406 C 77.582031 36.726562 77.082031 36.777344 77.082031 36.808594 C 77.082031 36.84375 76.582031 36.902344 75.984375 36.925781 C 74.417969 37.007812 74.464844 36.992188 74.535156 37.511719 C 74.558594 37.742188 74.640625 38.503906 74.707031 39.1875 C 74.773438 39.878906 74.867188 40.589844 74.917969 40.773438 C 74.957031 40.957031 75 41.28125 75 41.507812 L 75 41.902344 L 75.859375 41.902344 C 76.324219 41.890625 76.992188 41.859375 77.332031 41.816406 C 77.675781 41.773438 79.242188 41.660156 80.816406 41.566406 C 82.390625 41.476562 83.707031 41.382812 83.742188 41.367188 C 83.773438 41.339844 84.160156 41.316406 84.589844 41.308594 L 85.375 41.292969 L 85.476562 42.785156 C 85.535156 43.601562 85.617188 44.714844 85.660156 45.238281 C 85.707031 45.765625 85.800781 46.96875 85.875 47.910156 C 85.941406 48.851562 86.015625 49.738281 86.050781 49.878906 C 86.101562 50.128906 86.117188 50.140625 86.441406 50.113281 C 86.632812 50.089844 87.257812 50.039062 87.832031 49.996094 Z M 65.808594 24.515625 C 67.207031 23.703125 68.550781 22.929688 68.625 22.871094 C 68.675781 22.835938 68.875 22.71875 69.082031 22.601562 C 69.5 22.371094 70.882812 21.566406 71.082031 21.441406 C 71.464844 21.210938 78.160156 17.328125 78.316406 17.253906 C 78.566406 17.136719 78.550781 17.011719 78.191406 16.410156 C 77.75 15.675781 77.523438 15.382812 76.957031 14.808594 C 75.464844 13.304688 73.601562 12.519531 71.5 12.519531 C 68.507812 12.519531 65.851562 14.1875 64.542969 16.902344 C 64.035156 17.945312 63.816406 18.847656 63.773438 20.074219 C 63.742188 20.976562 63.757812 21.167969 63.984375 22.042969 C 64.214844 22.960938 64.617188 23.90625 65.023438 24.515625 C 65.125 24.664062 65.234375 24.789062 65.265625 24.789062 C 65.292969 24.789062 65.535156 24.664062 65.808594 24.515625 Z M 65.808594 24.515625 "/>
<path style=" stroke:none;fill-rule:nonzero;fill:rgb(16.862745%,16.862745%,16.862745%);fill-opacity:1;" d="M 18.042969 19.664062 C 17.617188 19.53125 17.074219 19.171875 16.859375 18.878906 C 16.457031 18.335938 16.382812 18.085938 16.382812 17.359375 C 16.382812 16.566406 16.515625 16.199219 17.007812 15.707031 C 17.484375 15.222656 17.984375 15.023438 18.707031 15.023438 C 19.660156 15.023438 20.257812 15.347656 20.765625 16.132812 C 20.976562 16.46875 21.035156 16.652344 21.066406 17.136719 C 21.109375 17.878906 20.992188 18.328125 20.640625 18.796875 C 20.015625 19.625 18.984375 19.964844 18.042969 19.664062 Z M 18.042969 19.664062 "/>
<path style=" stroke:none;fill-rule:nonzero;fill:rgb(16.862745%,16.862745%,16.862745%);fill-opacity:1;" d="M 46.933594 17.796875 C 47.023438 17.660156 47.566406 17.042969 48.332031 16.199219 C 48.449219 16.074219 48.667969 15.824219 48.824219 15.640625 C 48.984375 15.464844 49.433594 14.957031 49.824219 14.523438 C 50.226562 14.089844 50.976562 13.246094 51.5 12.644531 C 52.023438 12.050781 52.632812 11.375 52.839844 11.144531 C 53.050781 10.917969 53.667969 10.214844 54.214844 9.597656 C 54.757812 8.980469 55.226562 8.457031 55.25 8.429688 C 55.285156 8.40625 55.75 7.878906 56.292969 7.261719 C 57.625 5.726562 58.167969 5.160156 58.273438 5.199219 C 58.351562 5.226562 57.5 6.210938 55.332031 8.597656 C 54.984375 8.988281 54.25 9.816406 53.707031 10.433594 C 53.167969 11.050781 52.699219 11.578125 52.667969 11.601562 C 52.640625 11.628906 52.175781 12.152344 51.632812 12.769531 C 51.082031 13.386719 50.464844 14.089844 50.257812 14.316406 C 50.042969 14.546875 49.441406 15.222656 48.925781 15.816406 C 47.589844 17.335938 47.015625 17.945312 46.917969 17.945312 C 46.859375 17.945312 46.859375 17.894531 46.933594 17.796875 Z M 46.933594 17.796875 "/>
<path style=" stroke:none;fill-rule:nonzero;fill:rgb(16.862745%,16.862745%,16.862745%);fill-opacity:1;" d="M 40.359375 15.339844 C 40.308594 15.28125 39.957031 14.625 39.574219 13.878906 C 39.191406 13.128906 38.851562 12.519531 38.800781 12.519531 C 38.757812 12.519531 38.441406 12.6875 38.089844 12.878906 C 37.742188 13.078125 37.160156 13.40625 36.792969 13.605469 C 36.425781 13.804688 36.074219 14.023438 36.015625 14.082031 C 35.957031 14.140625 35.882812 14.1875 35.851562 14.1875 C 35.785156 14.1875 34.832031 12.269531 34.832031 12.136719 C 34.832031 12.09375 34.976562 11.996094 35.148438 11.910156 C 35.316406 11.835938 35.574219 11.703125 35.707031 11.617188 C 35.851562 11.542969 36.339844 11.257812 36.816406 10.984375 C 37.285156 10.71875 37.683594 10.464844 37.707031 10.433594 C 37.734375 10.390625 37.449219 9.78125 37.082031 9.074219 C 36.714844 8.363281 36.417969 7.761719 36.417969 7.738281 C 36.417969 7.679688 37.75 6.910156 38.292969 6.667969 C 38.523438 6.558594 38.734375 6.460938 38.773438 6.445312 C 38.808594 6.425781 38.832031 6.476562 38.832031 6.550781 C 38.832031 6.675781 39.941406 8.90625 40.074219 9.039062 C 40.109375 9.074219 40.707031 8.78125 41.410156 8.378906 C 42.109375 7.988281 42.683594 7.679688 42.699219 7.695312 C 43.265625 8.503906 43.917969 9.566406 43.882812 9.640625 C 43.867188 9.699219 43.648438 9.839844 43.398438 9.972656 C 42.226562 10.582031 41.167969 11.183594 41.167969 11.242188 C 41.167969 11.269531 41.507812 11.945312 41.917969 12.746094 C 42.507812 13.898438 42.648438 14.230469 42.574219 14.324219 C 42.523438 14.390625 42.441406 14.441406 42.398438 14.441406 C 42.359375 14.441406 41.917969 14.664062 41.425781 14.941406 C 40.933594 15.214844 40.507812 15.441406 40.484375 15.441406 C 40.457031 15.441406 40.398438 15.390625 40.359375 15.339844 Z M 40.359375 15.339844 "/>
<path style=" stroke:none;fill-rule:nonzero;fill:rgb(16.862745%,16.862745%,16.862745%);fill-opacity:1;" d="M 26.449219 12.710938 C 26.476562 12.628906 26.535156 12.378906 26.574219 12.144531 C 26.625 11.917969 26.734375 11.375 26.832031 10.960938 C 27.359375 8.554688 27.582031 7.503906 27.582031 7.410156 C 27.582031 7.371094 27.640625 7.34375 27.707031 7.34375 C 27.867188 7.34375 27.875 7.261719 27.625 8.414062 C 27.507812 8.949219 27.351562 9.65625 27.285156 9.972656 C 27.214844 10.300781 27.089844 10.859375 27.007812 11.226562 C 26.917969 11.59375 26.800781 12.109375 26.742188 12.378906 C 26.675781 12.679688 26.601562 12.855469 26.523438 12.855469 C 26.449219 12.855469 26.425781 12.796875 26.449219 12.710938 Z M 26.449219 12.710938 "/>
<path style=" stroke:none;fill-rule:nonzero;fill:rgb(88.627451%,90.588235%,28.627451%);fill-opacity:1;" d="M 0 45.449219 L 0 38.894531 L 0.558594 39.304688 C 0.875 39.53125 5.058594 42.460938 9.875 45.816406 L 18.617188 51.917969 L 18.917969 51.734375 C 19.199219 51.566406 20.925781 50.5625 21.5 50.230469 C 21.660156 50.140625 22.410156 49.703125 23.167969 49.261719 C 23.925781 48.828125 25.125 48.128906 25.832031 47.71875 C 26.542969 47.308594 27.332031 46.851562 27.582031 46.699219 C 27.832031 46.550781 28.175781 46.347656 28.332031 46.257812 C 29.117188 45.816406 30.359375 45.097656 31.832031 44.238281 C 32.726562 43.71875 33.667969 43.167969 33.917969 43.027344 C 34.667969 42.59375 37.035156 41.214844 38.375 40.441406 C 39.066406 40.039062 39.773438 39.621094 39.957031 39.523438 C 40.140625 39.414062 40.609375 39.144531 41 38.921875 C 45.675781 36.199219 46.867188 35.507812 47.667969 35.054688 C 48.007812 34.863281 48.589844 34.523438 48.957031 34.304688 C 49.324219 34.089844 50.714844 33.277344 52.042969 32.511719 C 53.375 31.734375 55.023438 30.78125 55.707031 30.382812 C 56.398438 29.980469 57.214844 29.503906 57.523438 29.332031 C 57.839844 29.15625 58.214844 28.9375 58.359375 28.847656 C 59.023438 28.460938 62.332031 26.542969 62.648438 26.367188 L 63.007812 26.167969 L 63.191406 26.417969 C 63.285156 26.558594 63.667969 26.976562 64.023438 27.351562 C 68.050781 31.515625 74.742188 31.507812 78.75 27.328125 C 80.140625 25.867188 80.925781 24.457031 81.425781 22.484375 C 81.589844 21.835938 81.617188 21.535156 81.617188 20.117188 C 81.617188 18.621094 81.601562 18.421875 81.398438 17.695312 C 81.160156 16.828125 80.859375 15.96875 80.765625 15.910156 C 80.734375 15.890625 80.226562 16.160156 79.640625 16.5 C 79.050781 16.84375 78.558594 17.109375 78.558594 17.09375 C 77.417969 14.699219 75.351562 13.085938 72.875 12.636719 C 69.441406 12.019531 66.058594 13.746094 64.542969 16.902344 C 64.035156 17.945312 63.816406 18.847656 63.773438 20.074219 C 63.742188 20.976562 63.757812 21.167969 63.984375 22.042969 C 64.226562 22.976562 64.742188 24.179688 65.089844 24.613281 L 65.257812 24.816406 L 65.609375 24.621094 C 66.015625 24.398438 67.757812 23.386719 68.417969 22.996094 C 68.667969 22.84375 69.007812 22.644531 69.167969 22.5625 C 69.425781 22.410156 70.542969 21.769531 71.273438 21.335938 C 76.800781 18.113281 78.292969 17.253906 78.410156 17.21875 C 78.515625 17.195312 78.582031 17.253906 78.648438 17.417969 C 79.292969 19.121094 79.332031 21.066406 78.773438 22.703125 C 78.339844 23.972656 77.824219 24.789062 76.839844 25.757812 C 73.765625 28.8125 68.667969 28.652344 65.785156 25.425781 C 65.515625 25.125 65.265625 24.875 65.242188 24.875 C 65.214844 24.875 64.707031 25.15625 64.117188 25.5 L 63.042969 26.125 L 62.851562 25.890625 C 62.390625 25.332031 61.734375 23.847656 61.417969 22.660156 C 60.660156 19.808594 61.339844 16.382812 63.132812 14.003906 C 65.824219 10.425781 70.390625 8.988281 74.625 10.390625 C 77.089844 11.210938 79.199219 12.980469 80.441406 15.273438 C 80.601562 15.574219 80.765625 15.808594 80.800781 15.800781 C 80.867188 15.792969 83.375 14.347656 83.75 14.105469 C 83.816406 14.0625 84.332031 13.765625 84.898438 13.4375 C 86.882812 12.292969 88.015625 11.644531 88.273438 11.484375 C 88.425781 11.402344 89.382812 10.84375 90.417969 10.242188 C 91.449219 9.640625 92.816406 8.847656 93.457031 8.472656 C 94.101562 8.097656 94.832031 7.671875 95.082031 7.535156 C 95.332031 7.394531 95.976562 7.027344 96.5 6.71875 C 97.023438 6.410156 98.007812 5.84375 98.683594 5.449219 L 99.917969 4.75 L 99.941406 2.355469 C 99.949219 1.035156 99.964844 11.667969 99.984375 25.984375 L 100 52 L 0 52 Z M 87.832031 49.996094 C 88.410156 49.945312 89.425781 49.871094 90.109375 49.8125 L 91.332031 49.722656 L 91.292969 48.960938 C 91.265625 48.542969 91.207031 47.691406 91.167969 47.074219 C 91.023438 45.171875 90.882812 42.476562 90.875 41.734375 L 90.875 41.023438 L 91.792969 40.964844 C 92.300781 40.933594 93.308594 40.867188 94.042969 40.824219 C 97.066406 40.613281 97.925781 40.574219 98.898438 40.566406 L 99.917969 40.566406 L 99.917969 35.375 L 98.609375 35.414062 C 97.375 35.457031 93.515625 35.648438 91.324219 35.773438 C 90.734375 35.808594 90.339844 35.800781 90.308594 35.75 C 90.285156 35.707031 90.234375 35.222656 90.199219 34.671875 C 90.167969 34.128906 90.109375 33.664062 90.074219 33.636719 C 90.042969 33.613281 89.964844 32.503906 89.917969 31.175781 C 89.867188 29.839844 89.792969 28.527344 89.75 28.253906 C 89.707031 27.976562 89.667969 27.59375 89.667969 27.402344 C 89.667969 27.101562 89.632812 27.042969 89.484375 27 C 89.242188 26.941406 84.523438 27.234375 84.449219 27.320312 C 84.417969 27.34375 84.433594 28.019531 84.492188 28.8125 C 84.542969 29.605469 84.625 30.875 84.675781 31.632812 C 84.726562 32.394531 84.792969 33.253906 84.832031 33.554688 C 84.875 33.855469 84.933594 34.570312 84.964844 35.148438 L 85.023438 36.199219 L 84.535156 36.214844 C 83.992188 36.234375 81.214844 36.449219 80.042969 36.566406 C 79.632812 36.609375 78.792969 36.667969 78.191406 36.691406 C 77.582031 36.726562 77.082031 36.777344 77.082031 36.808594 C 77.082031 36.84375 76.582031 36.902344 75.984375 36.925781 C 74.417969 37.007812 74.464844 36.992188 74.535156 37.511719 C 74.558594 37.742188 74.640625 38.503906 74.707031 39.1875 C 74.773438 39.878906 74.867188 40.589844 74.917969 40.773438 C 74.957031 40.957031 75 41.28125 75 41.507812 C 75 41.757812 75.035156 41.902344 75.109375 41.910156 C 75.542969 41.925781 76.800781 41.875 77.324219 41.816406 C 77.675781 41.765625 79.242188 41.660156 80.816406 41.566406 C 82.390625 41.476562 83.707031 41.382812 83.742188 41.367188 C 83.773438 41.339844 84.160156 41.316406 84.589844 41.308594 L 85.375 41.292969 L 85.476562 42.785156 C 85.535156 43.601562 85.617188 44.714844 85.660156 45.238281 C 85.707031 45.765625 85.800781 46.96875 85.875 47.910156 C 85.941406 48.851562 86.015625 49.738281 86.050781 49.878906 C 86.101562 50.128906 86.117188 50.140625 86.441406 50.113281 C 86.632812 50.089844 87.257812 50.039062 87.832031 49.996094 Z M 87.832031 49.996094 "/>
<path style=" stroke:none;fill-rule:nonzero;fill:rgb(99.215686%,99.215686%,99.215686%);fill-opacity:1;" d="M 62.765625 25.773438 C 61.566406 24.011719 60.925781 21.394531 61.160156 19.1875 C 61.332031 17.628906 61.648438 16.578125 62.367188 15.234375 C 64.101562 11.960938 67.632812 9.847656 71.375 9.847656 C 75.132812 9.847656 78.675781 11.976562 80.441406 15.292969 L 80.742188 15.851562 L 80.140625 16.199219 C 79.808594 16.394531 79.324219 16.675781 79.058594 16.835938 C 78.792969 17.003906 78.566406 17.117188 78.558594 17.101562 C 78.550781 17.085938 78.449219 16.902344 78.339844 16.695312 C 77.207031 14.539062 75.207031 13.0625 72.875 12.636719 C 69.441406 12.019531 66.058594 13.746094 64.542969 16.902344 C 64.035156 17.945312 63.816406 18.847656 63.773438 20.074219 C 63.742188 20.984375 63.757812 21.167969 63.984375 22.050781 C 64.226562 22.976562 64.734375 24.148438 65.089844 24.613281 C 65.242188 24.804688 65.242188 24.824219 65.109375 24.914062 C 64.992188 24.988281 63.660156 25.765625 63.066406 26.101562 C 63.035156 26.117188 62.898438 25.964844 62.765625 25.773438 Z M 62.765625 25.773438 "/>
<path style=" stroke:none;fill-rule:nonzero;fill:rgb(99.215686%,99.215686%,99.215686%);fill-opacity:1;" d="M 18.042969 19.664062 C 17.617188 19.53125 17.074219 19.171875 16.859375 18.878906 C 16.457031 18.335938 16.382812 18.085938 16.382812 17.359375 C 16.382812 16.566406 16.515625 16.199219 17.007812 15.707031 C 17.484375 15.222656 17.984375 15.023438 18.707031 15.023438 C 19.660156 15.023438 20.257812 15.347656 20.765625 16.132812 C 20.976562 16.46875 21.035156 16.652344 21.066406 17.136719 C 21.109375 17.878906 20.992188 18.328125 20.640625 18.796875 C 20.015625 19.625 18.984375 19.964844 18.042969 19.664062 Z M 19.308594 18.363281 C 19.699219 18.128906 19.851562 17.84375 19.851562 17.359375 C 19.839844 16.925781 19.714844 16.683594 19.351562 16.410156 C 18.632812 15.867188 17.582031 16.460938 17.582031 17.402344 C 17.582031 18.261719 18.574219 18.8125 19.308594 18.363281 Z M 19.308594 18.363281 "/>
<path style=" stroke:none;fill-rule:nonzero;fill:rgb(99.215686%,99.215686%,99.215686%);fill-opacity:1;" d="M 46.933594 17.785156 C 46.992188 17.703125 47.339844 17.300781 47.714844 16.894531 C 48.417969 16.117188 49.933594 14.421875 51.199219 12.988281 C 51.609375 12.519531 52.226562 11.828125 52.574219 11.433594 C 52.933594 11.042969 53.667969 10.214844 54.207031 9.597656 C 54.757812 8.980469 55.226562 8.457031 55.25 8.429688 C 55.285156 8.40625 55.75 7.878906 56.292969 7.261719 C 57.625 5.726562 58.167969 5.160156 58.273438 5.199219 C 58.351562 5.226562 57.5 6.210938 55.332031 8.597656 C 54.984375 8.988281 54.25 9.816406 53.707031 10.433594 C 53.167969 11.050781 52.699219 11.578125 52.667969 11.601562 C 52.640625 11.628906 52.175781 12.152344 51.632812 12.769531 C 51.082031 13.386719 50.464844 14.089844 50.257812 14.316406 C 50.042969 14.546875 49.441406 15.222656 48.925781 15.816406 C 47.589844 17.335938 47.015625 17.945312 46.917969 17.945312 C 46.859375 17.945312 46.859375 17.886719 46.933594 17.785156 Z M 46.933594 17.785156 "/>
<path style=" stroke:none;fill-rule:nonzero;fill:rgb(99.215686%,99.215686%,99.215686%);fill-opacity:1;" d="M 40.359375 15.339844 C 40.308594 15.28125 39.957031 14.625 39.574219 13.878906 C 39.191406 13.128906 38.851562 12.519531 38.800781 12.519531 C 38.757812 12.519531 38.441406 12.6875 38.089844 12.878906 C 37.742188 13.078125 37.160156 13.40625 36.792969 13.605469 C 36.425781 13.804688 36.050781 14.015625 35.964844 14.074219 C 35.816406 14.179688 35.773438 14.121094 35.316406 13.203125 C 35.050781 12.671875 34.832031 12.1875 34.832031 12.144531 C 34.832031 12.09375 34.976562 11.996094 35.148438 11.910156 C 35.316406 11.835938 35.574219 11.703125 35.707031 11.617188 C 35.851562 11.542969 36.339844 11.257812 36.816406 10.984375 C 37.285156 10.71875 37.683594 10.464844 37.707031 10.433594 C 37.734375 10.390625 37.449219 9.78125 37.082031 9.074219 C 36.714844 8.363281 36.417969 7.761719 36.417969 7.738281 C 36.417969 7.613281 38.714844 6.417969 38.773438 6.519531 C 38.785156 6.535156 39.074219 7.113281 39.417969 7.789062 C 39.757812 8.472656 40.066406 9.039062 40.089844 9.066406 C 40.125 9.082031 40.726562 8.773438 41.417969 8.378906 C 42.109375 7.988281 42.683594 7.679688 42.699219 7.695312 C 43.265625 8.503906 43.917969 9.566406 43.882812 9.640625 C 43.867188 9.699219 43.648438 9.839844 43.398438 9.972656 C 42.226562 10.582031 41.167969 11.183594 41.167969 11.242188 C 41.167969 11.269531 41.507812 11.945312 41.917969 12.746094 C 42.332031 13.546875 42.667969 14.214844 42.667969 14.230469 C 42.667969 14.265625 40.535156 15.441406 40.476562 15.441406 C 40.457031 15.441406 40.398438 15.390625 40.359375 15.339844 Z M 40.359375 15.339844 "/>
<path style=" stroke:none;fill-rule:nonzero;fill:rgb(99.215686%,99.215686%,99.215686%);fill-opacity:1;" d="M 26.449219 12.710938 C 26.523438 12.453125 26.742188 11.46875 27.132812 9.640625 C 27.199219 9.324219 27.332031 8.746094 27.425781 8.371094 C 27.507812 7.996094 27.582031 7.613281 27.582031 7.511719 C 27.582031 7.410156 27.640625 7.34375 27.714844 7.34375 C 27.800781 7.34375 27.832031 7.394531 27.808594 7.460938 C 27.785156 7.527344 27.699219 7.863281 27.632812 8.195312 C 27.5 8.824219 27.300781 9.765625 26.992188 11.125 C 26.898438 11.542969 26.785156 12.109375 26.734375 12.378906 C 26.675781 12.695312 26.609375 12.855469 26.523438 12.855469 C 26.449219 12.855469 26.425781 12.804688 26.449219 12.710938 Z M 26.449219 12.710938 "/>
</g>
</svg>
