<?xml version="1.0" encoding="UTF-8"?>
<svg xmlns="http://www.w3.org/2000/svg" xmlns:xlink="http://www.w3.org/1999/xlink" width="100pt" height="52pt" viewBox="0 0 100 52" version="1.1">
<g id="surface1">
<path style=" stroke:none;fill-rule:nonzero;fill:rgb(13.72549%,13.72549%,13.72549%);fill-opacity:1;" d="M 0 26 L 0 0 L 100 0 L 100 52 L 0 52 Z M 0 26 "/>
<path style=" stroke:none;fill-rule:nonzero;fill:rgb(16.862745%,16.862745%,16.862745%);fill-opacity:1;" d="M 0 27.378906 L 0 2.753906 L 100 2.753906 L 100 52 L 0 52 Z M 73.292969 30.347656 C 75.757812 29.90625 78.015625 28.539062 79.574219 26.558594 C 80.167969 25.808594 80.167969 25.808594 80.632812 24.90625 C 81.882812 22.484375 82.140625 19.648438 81.332031 17.152344 C 80.933594 15.902344 80.882812 15.800781 80.734375 15.933594 C 80.660156 16.007812 80.449219 16.140625 80.273438 16.234375 C 80.101562 16.324219 79.683594 16.558594 79.351562 16.761719 C 79.015625 16.953125 78.699219 17.09375 78.648438 17.0625 C 78.601562 17.027344 78.609375 17.078125 78.667969 17.1875 C 78.882812 17.601562 79.160156 18.65625 79.25 19.472656 C 79.484375 21.433594 78.890625 23.503906 77.675781 25.039062 C 76.324219 26.726562 74.640625 27.667969 72.476562 27.960938 C 71.199219 28.128906 69.699219 27.902344 68.390625 27.34375 C 67.574219 26.992188 66.316406 26.035156 65.75 25.332031 C 65.589844 25.132812 65.410156 24.964844 65.339844 24.964844 C 65.234375 24.957031 64.332031 25.441406 63.523438 25.949219 C 63.324219 26.066406 63.167969 26.21875 63.167969 26.277344 C 63.167969 26.460938 65.089844 28.335938 65.667969 28.710938 C 67.023438 29.605469 68.5 30.183594 69.957031 30.382812 C 70.375 30.433594 70.765625 30.492188 70.832031 30.507812 C 71.074219 30.566406 72.632812 30.464844 73.292969 30.347656 Z M 62.417969 25.007812 C 62.417969 24.980469 62.375 24.941406 62.316406 24.90625 C 62.257812 24.875 62.25 24.882812 62.285156 24.941406 C 62.339844 25.039062 62.417969 25.074219 62.417969 25.007812 Z M 65.316406 24.707031 C 65.257812 24.621094 65.199219 24.5625 65.175781 24.582031 C 65.140625 24.613281 65.324219 24.875 65.382812 24.875 C 65.398438 24.875 65.375 24.796875 65.316406 24.707031 Z M 64.832031 23.921875 C 64.832031 23.898438 64.792969 23.855469 64.734375 23.820312 C 64.675781 23.789062 64.667969 23.796875 64.699219 23.855469 C 64.757812 23.953125 64.832031 23.988281 64.832031 23.921875 Z M 61.640625 23.230469 C 61.609375 23.203125 61.582031 23.230469 61.582031 23.289062 C 61.582031 23.347656 61.609375 23.371094 61.640625 23.347656 C 61.667969 23.3125 61.667969 23.261719 61.640625 23.230469 Z M 61.558594 22.976562 C 61.523438 22.953125 61.5 22.976562 61.5 23.035156 C 61.5 23.09375 61.523438 23.121094 61.558594 23.09375 C 61.582031 23.0625 61.582031 23.011719 61.558594 22.976562 Z M 61.476562 22.5625 C 61.441406 22.535156 61.417969 22.5625 61.417969 22.621094 C 61.417969 22.679688 61.441406 22.703125 61.476562 22.679688 C 61.5 22.644531 61.5 22.59375 61.476562 22.5625 Z M 64.226562 22.476562 C 64.191406 22.453125 64.167969 22.476562 64.167969 22.535156 C 64.167969 22.59375 64.191406 22.621094 64.226562 22.59375 C 64.25 22.5625 64.25 22.511719 64.226562 22.476562 Z M 61.390625 22.226562 C 61.359375 22.203125 61.332031 22.226562 61.332031 22.285156 C 61.332031 22.34375 61.359375 22.371094 61.390625 22.34375 C 61.417969 22.3125 61.417969 22.261719 61.390625 22.226562 Z M 61.308594 21.851562 C 61.285156 21.785156 61.257812 21.808594 61.257812 21.902344 C 61.25 21.992188 61.273438 22.042969 61.300781 22.011719 C 61.324219 21.984375 61.332031 21.910156 61.308594 21.851562 Z M 63.976562 21.265625 C 63.949219 21.199219 63.925781 21.226562 63.925781 21.316406 C 63.917969 21.410156 63.941406 21.460938 63.964844 21.425781 C 63.992188 21.402344 64 21.324219 63.976562 21.265625 Z M 61.226562 20.890625 C 61.199219 20.808594 61.183594 20.875 61.183594 21.035156 C 61.183594 21.191406 61.199219 21.257812 61.226562 21.183594 C 61.242188 21.101562 61.242188 20.96875 61.226562 20.890625 Z M 63.890625 20.015625 C 63.875 19.863281 63.859375 19.980469 63.859375 20.28125 C 63.859375 20.582031 63.875 20.699219 63.890625 20.558594 C 63.910156 20.40625 63.910156 20.15625 63.890625 20.015625 Z M 61.226562 19.222656 C 61.199219 19.140625 61.183594 19.1875 61.183594 19.324219 C 61.183594 19.464844 61.199219 19.523438 61.226562 19.472656 C 61.242188 19.414062 61.242188 19.296875 61.226562 19.222656 Z M 63.976562 19.179688 C 63.949219 19.113281 63.925781 19.140625 63.925781 19.230469 C 63.917969 19.324219 63.941406 19.371094 63.964844 19.339844 C 63.992188 19.3125 64 19.238281 63.976562 19.179688 Z M 61.308594 18.386719 C 61.273438 18.363281 61.25 18.386719 61.25 18.445312 C 61.25 18.503906 61.273438 18.53125 61.308594 18.503906 C 61.332031 18.472656 61.332031 18.421875 61.308594 18.386719 Z M 61.390625 17.96875 C 61.359375 17.945312 61.332031 17.96875 61.332031 18.027344 C 61.332031 18.085938 61.359375 18.113281 61.390625 18.085938 C 61.417969 18.054688 61.417969 18.003906 61.390625 17.96875 Z M 61.808594 16.550781 C 61.773438 16.527344 61.75 16.550781 61.75 16.609375 C 61.75 16.667969 61.773438 16.695312 61.808594 16.667969 C 61.832031 16.636719 61.832031 16.585938 61.808594 16.550781 Z M 78 15.910156 C 78 15.882812 77.957031 15.84375 77.898438 15.808594 C 77.839844 15.773438 77.832031 15.785156 77.867188 15.84375 C 77.925781 15.941406 78 15.976562 78 15.910156 Z M 65.375 15.773438 C 65.398438 15.734375 65.410156 15.691406 65.382812 15.691406 C 65.359375 15.691406 65.316406 15.734375 65.292969 15.773438 C 65.265625 15.824219 65.257812 15.859375 65.285156 15.859375 C 65.308594 15.859375 65.351562 15.824219 65.375 15.773438 Z M 65.625 15.441406 C 65.648438 15.398438 65.660156 15.359375 65.632812 15.359375 C 65.609375 15.359375 65.566406 15.398438 65.542969 15.441406 C 65.515625 15.492188 65.507812 15.523438 65.535156 15.523438 C 65.558594 15.523438 65.601562 15.492188 65.625 15.441406 Z M 80.640625 15.300781 C 80.609375 15.273438 80.582031 15.300781 80.582031 15.359375 C 80.582031 15.417969 80.609375 15.441406 80.640625 15.417969 C 80.667969 15.382812 80.667969 15.332031 80.640625 15.300781 Z M 80.582031 15.15625 C 80.582031 15.132812 80.542969 15.089844 80.484375 15.058594 C 80.425781 15.023438 80.417969 15.03125 80.449219 15.089844 C 80.507812 15.191406 80.582031 15.222656 80.582031 15.15625 Z M 77.167969 14.90625 C 77.167969 14.882812 77.125 14.839844 77.066406 14.808594 C 77.007812 14.773438 77 14.78125 77.035156 14.839844 C 77.089844 14.941406 77.167969 14.972656 77.167969 14.90625 Z M 66.207031 14.773438 C 66.234375 14.730469 66.242188 14.691406 66.214844 14.691406 C 66.191406 14.691406 66.148438 14.730469 66.125 14.773438 C 66.101562 14.824219 66.089844 14.855469 66.117188 14.855469 C 66.140625 14.855469 66.183594 14.824219 66.207031 14.773438 Z M 80.332031 14.742188 C 80.332031 14.714844 80.292969 14.671875 80.234375 14.640625 C 80.175781 14.605469 80.167969 14.613281 80.199219 14.671875 C 80.257812 14.773438 80.332031 14.808594 80.332031 14.742188 Z M 62.875 14.523438 C 62.898438 14.480469 62.910156 14.441406 62.882812 14.441406 C 62.859375 14.441406 62.816406 14.480469 62.792969 14.523438 C 62.765625 14.574219 62.757812 14.605469 62.785156 14.605469 C 62.808594 14.605469 62.851562 14.574219 62.875 14.523438 Z M 66.792969 14.273438 C 66.816406 14.230469 66.824219 14.1875 66.800781 14.1875 C 66.773438 14.1875 66.734375 14.230469 66.707031 14.273438 C 66.683594 14.324219 66.675781 14.355469 66.699219 14.355469 C 66.726562 14.355469 66.765625 14.324219 66.792969 14.273438 Z M 80 14.238281 C 80 14.222656 79.933594 14.15625 79.859375 14.097656 C 79.726562 13.988281 79.714844 13.996094 79.824219 14.132812 C 79.933594 14.265625 80 14.304688 80 14.238281 Z M 67.125 14.023438 C 67.148438 13.980469 67.160156 13.9375 67.132812 13.9375 C 67.109375 13.9375 67.066406 13.980469 67.042969 14.023438 C 67.015625 14.074219 67.007812 14.105469 67.035156 14.105469 C 67.058594 14.105469 67.101562 14.074219 67.125 14.023438 Z M 76.082031 13.988281 C 76.082031 13.964844 76.042969 13.921875 75.984375 13.890625 C 75.925781 13.855469 75.917969 13.863281 75.949219 13.921875 C 76.007812 14.023438 76.082031 14.054688 76.082031 13.988281 Z M 79.75 13.90625 C 79.75 13.878906 79.707031 13.839844 79.648438 13.804688 C 79.589844 13.773438 79.582031 13.78125 79.617188 13.839844 C 79.675781 13.9375 79.75 13.972656 79.75 13.90625 Z M 63.507812 13.628906 C 63.617188 13.496094 63.609375 13.488281 63.484375 13.597656 C 63.398438 13.65625 63.332031 13.722656 63.332031 13.738281 C 63.332031 13.804688 63.398438 13.765625 63.507812 13.628906 Z M 75.582031 13.65625 C 75.582031 13.628906 75.542969 13.589844 75.484375 13.554688 C 75.425781 13.523438 75.417969 13.53125 75.449219 13.589844 C 75.507812 13.6875 75.582031 13.722656 75.582031 13.65625 Z M 79.5 13.582031 C 79.5 13.5625 79.417969 13.480469 79.316406 13.386719 L 79.125 13.230469 L 79.285156 13.421875 C 79.433594 13.597656 79.5 13.648438 79.5 13.582031 Z M 63.957031 13.105469 C 63.984375 13.0625 63.992188 13.019531 63.964844 13.019531 C 63.941406 13.019531 63.898438 13.0625 63.875 13.105469 C 63.851562 13.15625 63.839844 13.1875 63.867188 13.1875 C 63.890625 13.1875 63.933594 13.15625 63.957031 13.105469 Z M 68.890625 13.046875 C 68.859375 13.019531 68.808594 13.019531 68.773438 13.046875 C 68.75 13.078125 68.773438 13.105469 68.832031 13.105469 C 68.890625 13.105469 68.917969 13.078125 68.890625 13.046875 Z M 69.976562 12.710938 C 69.941406 12.6875 69.890625 12.6875 69.859375 12.710938 C 69.832031 12.746094 69.859375 12.769531 69.917969 12.769531 C 69.976562 12.769531 70 12.746094 69.976562 12.710938 Z M 73.308594 12.710938 C 73.273438 12.6875 73.226562 12.6875 73.191406 12.710938 C 73.167969 12.746094 73.191406 12.769531 73.25 12.769531 C 73.308594 12.769531 73.332031 12.746094 73.308594 12.710938 Z M 64.542969 12.519531 C 64.566406 12.476562 64.574219 12.4375 64.550781 12.4375 C 64.523438 12.4375 64.484375 12.476562 64.457031 12.519531 C 64.433594 12.570312 64.425781 12.605469 64.449219 12.605469 C 64.476562 12.605469 64.515625 12.570312 64.542969 12.519531 Z M 71.859375 12.546875 C 71.707031 12.527344 71.457031 12.527344 71.316406 12.546875 C 71.167969 12.5625 71.285156 12.578125 71.582031 12.578125 C 71.882812 12.578125 72 12.5625 71.859375 12.546875 Z M 78.332031 12.402344 C 78.332031 12.386719 78.265625 12.320312 78.191406 12.261719 C 78.058594 12.152344 78.050781 12.160156 78.160156 12.292969 C 78.265625 12.429688 78.332031 12.46875 78.332031 12.402344 Z M 77.917969 12.070312 C 77.917969 12.042969 77.875 12.003906 77.816406 11.96875 C 77.757812 11.9375 77.75 11.945312 77.785156 12.003906 C 77.839844 12.101562 77.917969 12.136719 77.917969 12.070312 Z M 77.582031 11.820312 C 77.582031 11.800781 77.515625 11.734375 77.441406 11.675781 C 77.308594 11.570312 77.300781 11.578125 77.410156 11.710938 C 77.515625 11.84375 77.582031 11.886719 77.582031 11.820312 Z M 65.625 11.683594 C 65.648438 11.644531 65.660156 11.601562 65.632812 11.601562 C 65.609375 11.601562 65.566406 11.644531 65.542969 11.683594 C 65.515625 11.734375 65.507812 11.769531 65.535156 11.769531 C 65.558594 11.769531 65.601562 11.734375 65.625 11.683594 Z M 65.875 11.519531 C 65.898438 11.476562 65.910156 11.433594 65.882812 11.433594 C 65.859375 11.433594 65.816406 11.476562 65.792969 11.519531 C 65.765625 11.570312 65.757812 11.601562 65.785156 11.601562 C 65.808594 11.601562 65.851562 11.570312 65.875 11.519531 Z M 76.667969 11.234375 C 76.667969 11.210938 76.625 11.167969 76.566406 11.132812 C 76.507812 11.101562 76.5 11.109375 76.535156 11.167969 C 76.589844 11.269531 76.667969 11.300781 76.667969 11.234375 Z M 66.542969 11.101562 C 66.566406 11.058594 66.574219 11.019531 66.550781 11.019531 C 66.523438 11.019531 66.484375 11.058594 66.457031 11.101562 C 66.433594 11.152344 66.425781 11.183594 66.449219 11.183594 C 66.476562 11.183594 66.515625 11.152344 66.542969 11.101562 Z M 74.640625 10.292969 C 74.609375 10.265625 74.558594 10.265625 74.523438 10.292969 C 74.5 10.324219 74.523438 10.351562 74.582031 10.351562 C 74.640625 10.351562 74.667969 10.324219 74.640625 10.292969 Z M 74.390625 10.207031 C 74.359375 10.183594 74.308594 10.183594 74.273438 10.207031 C 74.25 10.242188 74.273438 10.265625 74.332031 10.265625 C 74.390625 10.265625 74.417969 10.242188 74.390625 10.207031 Z M 68.976562 10.125 C 68.941406 10.097656 68.890625 10.097656 68.859375 10.125 C 68.832031 10.15625 68.859375 10.183594 68.917969 10.183594 C 68.976562 10.183594 69 10.15625 68.976562 10.125 Z M 74.140625 10.125 C 74.109375 10.097656 74.058594 10.097656 74.023438 10.125 C 74 10.15625 74.023438 10.183594 74.082031 10.183594 C 74.140625 10.183594 74.167969 10.15625 74.140625 10.125 Z M 69.390625 10.042969 C 69.359375 10.015625 69.308594 10.015625 69.273438 10.042969 C 69.25 10.074219 69.273438 10.097656 69.332031 10.097656 C 69.390625 10.097656 69.417969 10.074219 69.390625 10.042969 Z M 73.640625 10.042969 C 73.609375 10.015625 73.558594 10.015625 73.523438 10.042969 C 73.5 10.074219 73.523438 10.097656 73.582031 10.097656 C 73.640625 10.097656 73.667969 10.074219 73.640625 10.042969 Z M 69.808594 9.957031 C 69.773438 9.933594 69.726562 9.933594 69.691406 9.957031 C 69.667969 9.992188 69.691406 10.015625 69.75 10.015625 C 69.808594 10.015625 69.832031 9.992188 69.808594 9.957031 Z M 73.308594 9.964844 C 73.285156 9.941406 73.207031 9.933594 73.148438 9.957031 C 73.082031 9.984375 73.109375 10.007812 73.199219 10.007812 C 73.292969 10.015625 73.339844 9.992188 73.308594 9.964844 Z M 70.359375 9.875 C 70.300781 9.859375 70.199219 9.859375 70.148438 9.875 C 70.089844 9.898438 70.132812 9.914062 70.25 9.914062 C 70.367188 9.914062 70.410156 9.898438 70.359375 9.875 Z M 72.808594 9.882812 C 72.785156 9.859375 72.707031 9.847656 72.648438 9.875 C 72.582031 9.898438 72.609375 9.925781 72.699219 9.925781 C 72.792969 9.933594 72.839844 9.90625 72.808594 9.882812 Z M 72.808594 9.882812 "/>
<path style=" stroke:none;fill-rule:nonzero;fill:rgb(21.176471%,21.176471%,21.176471%);fill-opacity:1;" d="M 18.675781 51.964844 C 18.691406 51.949219 19.082031 51.714844 19.542969 51.449219 C 20.957031 50.640625 22.417969 49.796875 22.691406 49.628906 C 22.984375 49.460938 25.214844 48.167969 27.417969 46.890625 C 28.175781 46.449219 28.910156 46.023438 29.058594 45.941406 C 29.199219 45.847656 29.742188 45.539062 30.265625 45.238281 C 30.785156 44.945312 31.398438 44.589844 31.625 44.445312 C 31.859375 44.296875 32.359375 44.003906 32.75 43.785156 C 33.140625 43.570312 33.589844 43.320312 33.75 43.21875 C 33.910156 43.128906 34.882812 42.558594 35.917969 41.96875 C 36.949219 41.367188 38.089844 40.699219 38.457031 40.480469 C 38.824219 40.265625 39.765625 39.722656 40.542969 39.269531 C 41.324219 38.820312 42.390625 38.203125 42.917969 37.894531 C 43.441406 37.585938 44.066406 37.226562 44.292969 37.09375 C 44.523438 36.960938 44.785156 36.808594 44.875 36.75 C 44.964844 36.691406 45.101562 36.625 45.167969 36.59375 C 45.234375 36.558594 45.457031 36.425781 45.667969 36.308594 C 45.875 36.183594 46.683594 35.714844 47.457031 35.265625 C 48.242188 34.8125 49.625 34.003906 50.542969 33.46875 C 51.457031 32.9375 52.882812 32.109375 53.707031 31.632812 C 54.535156 31.167969 55.339844 30.691406 55.5 30.589844 C 55.660156 30.492188 55.851562 30.382812 55.917969 30.347656 C 55.984375 30.316406 56.117188 30.25 56.207031 30.191406 C 56.300781 30.132812 56.566406 29.980469 56.792969 29.847656 C 57.023438 29.714844 57.640625 29.355469 58.167969 29.046875 C 58.691406 28.738281 60.015625 27.96875 61.109375 27.335938 L 63.089844 26.183594 L 63.226562 26.382812 C 63.5 26.785156 64.890625 28.152344 65.375 28.503906 C 67.234375 29.839844 69.265625 30.5 71.5 30.5 C 76.140625 30.5 80.167969 27.410156 81.441406 22.871094 C 81.949219 21.042969 81.890625 18.761719 81.285156 16.992188 C 81.167969 16.667969 81.035156 16.277344 80.984375 16.132812 C 80.933594 15.984375 80.910156 15.851562 80.925781 15.832031 C 80.941406 15.816406 81.351562 15.582031 81.824219 15.308594 C 82.308594 15.039062 82.851562 14.722656 83.035156 14.613281 C 83.226562 14.507812 83.617188 14.28125 83.917969 14.105469 C 84.214844 13.9375 85.640625 13.113281 87.082031 12.269531 C 88.523438 11.425781 90.175781 10.464844 90.75 10.132812 C 91.324219 9.808594 92.257812 9.265625 92.832031 8.929688 C 93.410156 8.597656 94.042969 8.230469 94.25 8.113281 C 94.457031 7.996094 95.148438 7.59375 95.792969 7.21875 C 98.191406 5.816406 99.757812 4.917969 99.875 4.875 C 99.984375 4.832031 100 6.644531 100 20.148438 L 100 35.472656 L 98.417969 35.472656 C 97.417969 35.472656 96.832031 35.507812 96.832031 35.558594 C 96.832031 35.605469 96.382812 35.640625 95.648438 35.640625 C 94.324219 35.640625 91.316406 35.773438 90.773438 35.859375 L 90.433594 35.90625 L 90.382812 35.421875 C 90.359375 35.148438 90.273438 34.421875 90.207031 33.804688 C 90.140625 33.1875 90.082031 32.269531 90.082031 31.757812 C 90.082031 31.257812 90.042969 30.40625 90 29.882812 C 89.839844 27.96875 89.75 27.101562 89.699219 27.050781 C 89.640625 26.984375 89.339844 27 86.851562 27.160156 C 85.734375 27.234375 84.75 27.335938 84.660156 27.386719 C 84.535156 27.453125 84.5 27.527344 84.535156 27.734375 C 84.558594 27.886719 84.617188 28.664062 84.667969 29.464844 C 84.714844 30.265625 84.792969 31.390625 84.832031 31.96875 C 84.964844 33.664062 85 34.121094 85.050781 35.207031 L 85.101562 36.226562 L 84.824219 36.226562 C 84.667969 36.234375 84.167969 36.265625 83.707031 36.308594 C 83.25 36.359375 82.183594 36.449219 81.332031 36.515625 C 78.441406 36.757812 77.042969 36.882812 76 36.976562 C 75.425781 37.035156 74.875 37.074219 74.765625 37.085938 C 74.648438 37.09375 74.601562 37.144531 74.625 37.210938 C 74.648438 37.277344 74.683594 37.652344 74.707031 38.042969 C 74.734375 38.445312 74.808594 39.1875 74.882812 39.6875 C 74.949219 40.199219 75.035156 40.898438 75.074219 41.257812 C 75.117188 41.617188 75.175781 41.933594 75.199219 41.957031 C 75.242188 42 77.042969 41.902344 79.332031 41.734375 C 81.324219 41.582031 84.648438 41.367188 85.042969 41.367188 L 85.457031 41.359375 L 85.515625 42.027344 C 85.550781 42.394531 85.617188 43.085938 85.667969 43.570312 C 85.707031 44.054688 85.75 44.796875 85.75 45.222656 C 85.75 45.648438 85.785156 45.992188 85.824219 45.992188 C 85.898438 45.992188 85.957031 46.734375 86.050781 48.703125 C 86.074219 49.304688 86.132812 49.886719 86.175781 50.003906 C 86.25 50.207031 86.285156 50.214844 86.734375 50.1875 C 86.992188 50.171875 87.492188 50.121094 87.832031 50.082031 C 88.175781 50.039062 89.148438 49.964844 89.992188 49.90625 L 91.515625 49.804688 L 91.464844 49.335938 C 91.433594 49.078125 91.367188 48.269531 91.324219 47.535156 C 91.273438 46.800781 91.207031 45.671875 91.160156 45.03125 C 91.117188 44.386719 91.058594 43.246094 91.035156 42.476562 L 90.976562 41.097656 L 91.933594 41 C 92.464844 40.941406 93.300781 40.898438 93.800781 40.898438 C 94.300781 40.898438 95.234375 40.839844 95.875 40.773438 C 96.515625 40.707031 97.707031 40.648438 98.523438 40.648438 L 100 40.648438 L 100 52 L 59.316406 52 C 36.941406 52 18.660156 51.984375 18.675781 51.964844 Z M 18.675781 51.964844 "/>
<path style=" stroke:none;fill-rule:nonzero;fill:rgb(21.176471%,21.176471%,21.176471%);fill-opacity:1;" d="M 71 28.003906 C 70.933594 27.988281 70.589844 27.929688 70.25 27.878906 C 69.074219 27.6875 68.089844 27.277344 67.117188 26.585938 C 66.601562 26.207031 65.5 25.15625 65.5 25.023438 C 65.5 24.855469 65.160156 25 64.191406 25.550781 C 62.964844 26.25 63.074219 26.285156 62.433594 25.058594 C 61.042969 22.386719 60.824219 19.691406 61.757812 16.820312 C 62.699219 13.9375 65.117188 11.492188 68.042969 10.457031 C 69.226562 10.042969 70.050781 9.90625 71.5 9.90625 C 72.898438 9.90625 73.574219 10.007812 74.792969 10.410156 C 76.660156 11.019531 78.640625 12.496094 79.824219 14.164062 C 80.300781 14.824219 80.882812 15.851562 80.816406 15.890625 C 80.800781 15.902344 80.632812 16.007812 80.441406 16.132812 C 80.242188 16.257812 80.066406 16.359375 80.050781 16.359375 C 80.035156 16.359375 79.726562 16.527344 79.375 16.734375 C 79.023438 16.945312 78.699219 17.09375 78.648438 17.0625 C 78.601562 17.027344 78.609375 17.078125 78.667969 17.1875 C 78.882812 17.59375 79.148438 18.628906 79.25 19.429688 C 79.441406 21.042969 79.058594 22.863281 78.234375 24.230469 C 77.257812 25.839844 75.609375 27.144531 73.917969 27.652344 C 72.964844 27.9375 71.542969 28.113281 71 28.003906 Z M 65.316406 24.707031 C 65.257812 24.621094 65.199219 24.5625 65.175781 24.582031 C 65.140625 24.613281 65.324219 24.875 65.382812 24.875 C 65.398438 24.875 65.375 24.796875 65.316406 24.707031 Z M 64.832031 23.921875 C 64.832031 23.898438 64.792969 23.855469 64.734375 23.820312 C 64.675781 23.789062 64.667969 23.796875 64.699219 23.855469 C 64.757812 23.953125 64.832031 23.988281 64.832031 23.921875 Z M 64.390625 22.976562 C 64.359375 22.953125 64.332031 22.976562 64.332031 23.035156 C 64.332031 23.09375 64.359375 23.121094 64.390625 23.09375 C 64.417969 23.0625 64.417969 23.011719 64.390625 22.976562 Z M 64.226562 22.476562 C 64.191406 22.453125 64.167969 22.476562 64.167969 22.535156 C 64.167969 22.59375 64.191406 22.621094 64.226562 22.59375 C 64.25 22.5625 64.25 22.511719 64.226562 22.476562 Z M 64.058594 21.726562 C 64.023438 21.703125 64 21.726562 64 21.785156 C 64 21.84375 64.023438 21.867188 64.058594 21.84375 C 64.082031 21.808594 64.082031 21.761719 64.058594 21.726562 Z M 63.976562 21.265625 C 63.949219 21.199219 63.925781 21.226562 63.925781 21.316406 C 63.917969 21.410156 63.941406 21.460938 63.964844 21.425781 C 63.992188 21.402344 64 21.324219 63.976562 21.265625 Z M 63.890625 20.015625 C 63.875 19.863281 63.859375 19.980469 63.859375 20.28125 C 63.859375 20.582031 63.875 20.699219 63.890625 20.558594 C 63.910156 20.40625 63.910156 20.15625 63.890625 20.015625 Z M 63.976562 19.179688 C 63.949219 19.113281 63.925781 19.140625 63.925781 19.230469 C 63.917969 19.324219 63.941406 19.371094 63.964844 19.339844 C 63.992188 19.3125 64 19.238281 63.976562 19.179688 Z M 64.058594 18.722656 C 64.023438 18.695312 64 18.722656 64 18.78125 C 64 18.839844 64.023438 18.863281 64.058594 18.839844 C 64.082031 18.804688 64.082031 18.753906 64.058594 18.722656 Z M 78.441406 16.652344 C 78.417969 16.578125 78.375 16.535156 78.359375 16.558594 C 78.332031 16.585938 78.339844 16.636719 78.375 16.683594 C 78.449219 16.820312 78.5 16.792969 78.441406 16.652344 Z M 78 15.910156 C 78 15.882812 77.957031 15.84375 77.898438 15.808594 C 77.839844 15.773438 77.832031 15.785156 77.867188 15.84375 C 77.925781 15.941406 78 15.976562 78 15.910156 Z M 65.375 15.773438 C 65.398438 15.734375 65.410156 15.691406 65.382812 15.691406 C 65.359375 15.691406 65.316406 15.734375 65.292969 15.773438 C 65.265625 15.824219 65.257812 15.859375 65.285156 15.859375 C 65.308594 15.859375 65.351562 15.824219 65.375 15.773438 Z M 65.625 15.441406 C 65.648438 15.398438 65.660156 15.359375 65.632812 15.359375 C 65.609375 15.359375 65.566406 15.398438 65.542969 15.441406 C 65.515625 15.492188 65.507812 15.523438 65.535156 15.523438 C 65.558594 15.523438 65.601562 15.492188 65.625 15.441406 Z M 77.667969 15.492188 C 77.667969 15.464844 77.625 15.425781 77.566406 15.390625 C 77.507812 15.359375 77.5 15.367188 77.535156 15.425781 C 77.589844 15.523438 77.667969 15.558594 77.667969 15.492188 Z M 77.167969 14.90625 C 77.167969 14.890625 77.101562 14.824219 77.023438 14.765625 C 76.890625 14.65625 76.882812 14.664062 76.992188 14.796875 C 77.101562 14.933594 77.167969 14.972656 77.167969 14.90625 Z M 66.207031 14.773438 C 66.234375 14.730469 66.242188 14.691406 66.214844 14.691406 C 66.191406 14.691406 66.148438 14.730469 66.125 14.773438 C 66.101562 14.824219 66.089844 14.855469 66.117188 14.855469 C 66.140625 14.855469 66.183594 14.824219 66.207031 14.773438 Z M 66.792969 14.273438 C 66.816406 14.230469 66.824219 14.1875 66.800781 14.1875 C 66.773438 14.1875 66.734375 14.230469 66.707031 14.273438 C 66.683594 14.324219 66.675781 14.355469 66.699219 14.355469 C 66.726562 14.355469 66.765625 14.324219 66.792969 14.273438 Z M 76.5 14.324219 C 76.5 14.304688 76.433594 14.238281 76.359375 14.179688 C 76.226562 14.074219 76.214844 14.082031 76.324219 14.214844 C 76.433594 14.347656 76.5 14.390625 76.5 14.324219 Z M 67.125 14.023438 C 67.148438 13.980469 67.160156 13.9375 67.132812 13.9375 C 67.109375 13.9375 67.066406 13.980469 67.042969 14.023438 C 67.015625 14.074219 67.007812 14.105469 67.035156 14.105469 C 67.058594 14.105469 67.101562 14.074219 67.125 14.023438 Z M 76.167969 14.074219 C 76.167969 14.054688 76.101562 13.988281 76.023438 13.929688 C 75.890625 13.820312 75.882812 13.832031 75.992188 13.964844 C 76.101562 14.097656 76.167969 14.140625 76.167969 14.074219 Z M 75.582031 13.65625 C 75.582031 13.628906 75.542969 13.589844 75.484375 13.554688 C 75.425781 13.523438 75.417969 13.53125 75.449219 13.589844 C 75.507812 13.6875 75.582031 13.722656 75.582031 13.65625 Z M 68.890625 13.046875 C 68.859375 13.019531 68.808594 13.019531 68.773438 13.046875 C 68.75 13.078125 68.773438 13.105469 68.832031 13.105469 C 68.890625 13.105469 68.917969 13.078125 68.890625 13.046875 Z M 69.390625 12.878906 C 69.359375 12.855469 69.308594 12.855469 69.273438 12.878906 C 69.25 12.914062 69.273438 12.9375 69.332031 12.9375 C 69.390625 12.9375 69.417969 12.914062 69.390625 12.878906 Z M 69.976562 12.710938 C 69.941406 12.6875 69.890625 12.6875 69.859375 12.710938 C 69.832031 12.746094 69.859375 12.769531 69.917969 12.769531 C 69.976562 12.769531 70 12.746094 69.976562 12.710938 Z M 73.308594 12.710938 C 73.273438 12.6875 73.226562 12.6875 73.191406 12.710938 C 73.167969 12.746094 73.191406 12.769531 73.25 12.769531 C 73.308594 12.769531 73.332031 12.746094 73.308594 12.710938 Z M 70.640625 12.636719 C 70.617188 12.613281 70.542969 12.605469 70.484375 12.628906 C 70.417969 12.652344 70.441406 12.679688 70.535156 12.679688 C 70.625 12.6875 70.675781 12.660156 70.640625 12.636719 Z M 72.726562 12.636719 C 72.699219 12.613281 72.625 12.605469 72.566406 12.628906 C 72.5 12.652344 72.523438 12.679688 72.617188 12.679688 C 72.707031 12.6875 72.757812 12.660156 72.726562 12.636719 Z M 71.859375 12.546875 C 71.707031 12.527344 71.457031 12.527344 71.316406 12.546875 C 71.167969 12.5625 71.285156 12.578125 71.582031 12.578125 C 71.882812 12.578125 72 12.5625 71.859375 12.546875 Z M 71.859375 12.546875 "/>
<path style=" stroke:none;fill-rule:nonzero;fill:rgb(21.176471%,21.176471%,21.176471%);fill-opacity:1;" d="M 47.007812 17.804688 C 47.074219 17.71875 47.300781 17.46875 47.507812 17.234375 C 47.726562 17.011719 48.023438 16.667969 48.175781 16.484375 C 48.464844 16.132812 48.714844 15.859375 49.550781 14.941406 C 49.816406 14.640625 50.308594 14.097656 50.625 13.730469 C 50.949219 13.363281 51.566406 12.671875 52 12.179688 C 52.433594 11.695312 53.058594 11 53.375 10.632812 C 53.699219 10.273438 54.167969 9.75 54.425781 9.472656 C 54.675781 9.199219 55.292969 8.503906 55.792969 7.929688 C 56.292969 7.351562 56.910156 6.660156 57.160156 6.386719 C 57.417969 6.109375 57.765625 5.726562 57.941406 5.527344 C 58.117188 5.324219 58.300781 5.175781 58.351562 5.191406 C 58.398438 5.207031 57.957031 5.765625 57.367188 6.425781 C 56.207031 7.710938 55.398438 8.628906 53.507812 10.777344 C 52.851562 11.527344 52.265625 12.1875 52.207031 12.226562 C 52.160156 12.277344 51.558594 12.945312 50.875 13.730469 C 50.183594 14.507812 49.535156 15.242188 49.425781 15.359375 C 49.316406 15.476562 48.757812 16.101562 48.183594 16.761719 C 47.609375 17.410156 47.082031 17.945312 47.015625 17.945312 C 46.917969 17.945312 46.917969 17.921875 47.007812 17.804688 Z M 47.007812 17.804688 "/>
<path style=" stroke:none;fill-rule:nonzero;fill:rgb(21.176471%,21.176471%,21.176471%);fill-opacity:1;" d="M 39.992188 14.589844 C 39.199219 13.039062 38.992188 12.644531 38.933594 12.585938 C 38.867188 12.519531 38.75 12.578125 37.667969 13.164062 C 36.792969 13.636719 36.390625 13.878906 36.175781 14.039062 C 36.066406 14.121094 35.949219 14.1875 35.917969 14.1875 C 35.824219 14.1875 34.917969 12.363281 34.917969 12.179688 C 34.917969 12.085938 34.957031 12.019531 35.007812 12.019531 C 35.082031 12.019531 37.707031 10.574219 37.816406 10.476562 C 37.832031 10.457031 37.523438 9.832031 37.132812 9.074219 L 36.417969 7.695312 L 36.726562 7.535156 C 38.042969 6.84375 38.867188 6.425781 38.890625 6.425781 C 38.910156 6.425781 38.910156 6.460938 38.882812 6.503906 C 38.851562 6.550781 40.007812 8.957031 40.132812 9.089844 C 40.175781 9.132812 40.359375 9.039062 41.042969 8.65625 C 41.316406 8.496094 41.765625 8.246094 42.042969 8.097656 C 42.316406 7.945312 42.582031 7.789062 42.640625 7.746094 C 42.707031 7.695312 42.933594 7.960938 43.375 8.640625 C 43.890625 9.421875 43.992188 9.632812 43.917969 9.730469 C 43.859375 9.800781 43.785156 9.847656 43.742188 9.847656 C 43.699219 9.847656 43.285156 10.066406 42.808594 10.332031 C 42.339844 10.59375 41.816406 10.882812 41.632812 10.976562 C 41.457031 11.066406 41.300781 11.183594 41.285156 11.234375 C 41.257812 11.277344 41.582031 11.976562 41.992188 12.777344 C 42.566406 13.898438 42.726562 14.265625 42.648438 14.339844 C 42.589844 14.398438 42.515625 14.441406 42.464844 14.441406 C 42.425781 14.441406 41.992188 14.664062 41.5 14.941406 C 41.007812 15.214844 40.566406 15.441406 40.523438 15.441406 C 40.476562 15.441406 40.234375 15.058594 39.992188 14.589844 Z M 39.992188 14.589844 "/>
<path style=" stroke:none;fill-rule:nonzero;fill:rgb(21.176471%,21.176471%,21.176471%);fill-opacity:1;" d="M 26.542969 12.546875 C 26.566406 12.320312 26.667969 11.84375 26.75 11.476562 C 26.832031 11.109375 26.964844 10.550781 27.035156 10.226562 C 27.234375 9.289062 27.515625 7.996094 27.601562 7.664062 C 27.640625 7.488281 27.714844 7.34375 27.765625 7.34375 C 27.875 7.34375 27.824219 7.6875 27.457031 9.347656 C 27.300781 10.058594 27.074219 11.09375 26.957031 11.644531 C 26.691406 12.894531 26.675781 12.9375 26.566406 12.9375 C 26.507812 12.9375 26.5 12.796875 26.542969 12.546875 Z M 26.542969 12.546875 "/>
<path style=" stroke:none;fill-rule:nonzero;fill:rgb(88.627451%,90.588235%,28.627451%);fill-opacity:1;" d="M 0 45.480469 C 0 40.296875 0.0234375 38.980469 0.109375 39.027344 C 0.160156 39.0625 0.285156 39.15625 0.375 39.230469 C 0.464844 39.3125 4.574219 42.183594 9.5 45.613281 C 14.425781 49.046875 18.492188 51.882812 18.535156 51.925781 C 18.582031 51.964844 14.707031 52 9.308594 52 L 0 52 Z M 0 45.480469 "/>
<path style=" stroke:none;fill-rule:nonzero;fill:rgb(88.627451%,90.588235%,28.627451%);fill-opacity:1;" d="M 18.675781 51.964844 C 18.691406 51.949219 19.082031 51.714844 19.542969 51.449219 C 20.957031 50.640625 22.417969 49.796875 22.691406 49.628906 C 22.984375 49.460938 25.214844 48.167969 27.417969 46.890625 C 28.175781 46.449219 28.910156 46.023438 29.058594 45.941406 C 29.199219 45.847656 29.742188 45.539062 30.265625 45.238281 C 30.785156 44.945312 31.398438 44.589844 31.625 44.445312 C 31.859375 44.296875 32.359375 44.003906 32.75 43.785156 C 33.140625 43.570312 33.589844 43.320312 33.75 43.21875 C 33.910156 43.128906 34.882812 42.558594 35.917969 41.96875 C 36.949219 41.367188 38.089844 40.699219 38.457031 40.480469 C 38.824219 40.265625 39.765625 39.722656 40.542969 39.269531 C 41.324219 38.820312 42.390625 38.203125 42.917969 37.894531 C 43.441406 37.585938 44.066406 37.226562 44.292969 37.09375 C 44.523438 36.960938 44.785156 36.808594 44.875 36.75 C 44.964844 36.691406 45.101562 36.625 45.167969 36.59375 C 45.234375 36.558594 45.457031 36.425781 45.667969 36.308594 C 45.875 36.183594 46.683594 35.714844 47.457031 35.265625 C 48.242188 34.8125 49.625 34.003906 50.542969 33.46875 C 51.457031 32.9375 52.882812 32.109375 53.707031 31.632812 C 54.535156 31.167969 55.339844 30.691406 55.5 30.589844 C 55.660156 30.492188 55.851562 30.382812 55.917969 30.347656 C 55.984375 30.316406 56.117188 30.25 56.207031 30.191406 C 56.300781 30.132812 56.566406 29.980469 56.792969 29.847656 C 57.023438 29.714844 57.640625 29.355469 58.167969 29.046875 C 63.242188 26.101562 63.101562 26.175781 63.183594 26.324219 C 63.390625 26.691406 64.300781 27.652344 64.890625 28.128906 C 66.660156 29.554688 68.300781 30.230469 70.574219 30.472656 C 72.125 30.632812 73.898438 30.367188 75.382812 29.757812 C 77.5 28.878906 79.375 27.21875 80.476562 25.25 C 81.984375 22.542969 82.214844 19.441406 81.125 16.460938 C 81 16.125 80.917969 15.84375 80.933594 15.824219 C 80.941406 15.816406 81.351562 15.582031 81.824219 15.308594 C 82.308594 15.039062 82.851562 14.722656 83.035156 14.613281 C 83.226562 14.507812 83.617188 14.28125 83.917969 14.105469 C 84.214844 13.9375 85.640625 13.113281 87.082031 12.269531 C 88.523438 11.425781 90.175781 10.464844 90.75 10.132812 C 91.324219 9.808594 92.257812 9.265625 92.832031 8.929688 C 93.410156 8.597656 94.042969 8.230469 94.25 8.113281 C 94.457031 7.996094 95.148438 7.59375 95.792969 7.21875 C 98.191406 5.816406 99.757812 4.917969 99.875 4.875 C 99.984375 4.832031 100 6.644531 100 20.148438 L 100 35.472656 L 98.417969 35.472656 C 97.417969 35.472656 96.832031 35.507812 96.832031 35.558594 C 96.832031 35.605469 96.382812 35.640625 95.648438 35.640625 C 94.324219 35.640625 91.316406 35.773438 90.773438 35.859375 L 90.433594 35.90625 L 90.382812 35.421875 C 90.359375 35.148438 90.273438 34.421875 90.207031 33.804688 C 90.140625 33.1875 90.082031 32.269531 90.082031 31.757812 C 90.082031 31.257812 90.042969 30.40625 90 29.882812 C 89.839844 27.96875 89.75 27.101562 89.699219 27.050781 C 89.640625 26.984375 89.324219 27 86.875 27.160156 C 85.773438 27.234375 84.792969 27.320312 84.683594 27.34375 C 84.515625 27.394531 84.5 27.4375 84.535156 27.746094 C 84.558594 27.929688 84.617188 28.703125 84.667969 29.464844 C 84.742188 30.734375 84.851562 32.277344 84.957031 33.636719 C 84.984375 33.9375 85.023438 34.640625 85.050781 35.207031 L 85.101562 36.226562 L 84.824219 36.226562 C 84.667969 36.234375 84.167969 36.265625 83.707031 36.308594 C 83.25 36.359375 82.183594 36.449219 81.332031 36.515625 C 78.441406 36.757812 77.042969 36.882812 76 36.976562 C 75.425781 37.035156 74.875 37.074219 74.773438 37.085938 C 74.640625 37.101562 74.601562 37.144531 74.625 37.234375 C 74.648438 37.308594 74.707031 37.835938 74.75 38.402344 C 74.792969 38.972656 74.859375 39.628906 74.910156 39.855469 C 74.949219 40.089844 75.015625 40.65625 75.042969 41.132812 L 75.109375 41.984375 L 75.492188 41.984375 C 75.859375 41.984375 77.023438 41.910156 79.332031 41.734375 C 81.359375 41.582031 84.632812 41.375 85.042969 41.367188 L 85.457031 41.359375 L 85.515625 42.027344 C 85.550781 42.394531 85.617188 43.085938 85.667969 43.570312 C 85.707031 44.054688 85.75 44.796875 85.75 45.222656 C 85.75 45.648438 85.785156 45.992188 85.824219 45.992188 C 85.898438 45.992188 85.957031 46.734375 86.050781 48.703125 C 86.074219 49.304688 86.132812 49.886719 86.175781 50.003906 C 86.25 50.207031 86.285156 50.214844 86.734375 50.1875 C 86.992188 50.171875 87.492188 50.121094 87.832031 50.082031 C 88.175781 50.039062 89.148438 49.964844 89.992188 49.90625 L 91.515625 49.804688 L 91.464844 49.335938 C 91.433594 49.078125 91.367188 48.269531 91.324219 47.535156 C 91.273438 46.800781 91.207031 45.671875 91.160156 45.03125 C 91.117188 44.386719 91.058594 43.246094 91.035156 42.476562 L 90.976562 41.097656 L 91.933594 41 C 92.464844 40.941406 93.300781 40.898438 93.800781 40.898438 C 94.300781 40.898438 95.234375 40.839844 95.875 40.773438 C 96.515625 40.707031 97.707031 40.648438 98.523438 40.648438 L 100 40.648438 L 100 52 L 59.316406 52 C 36.941406 52 18.660156 51.984375 18.675781 51.964844 Z M 18.675781 51.964844 "/>
<path style=" stroke:none;fill-rule:nonzero;fill:rgb(88.627451%,90.588235%,28.627451%);fill-opacity:1;" d="M 70.875 27.996094 C 69.308594 27.761719 68.339844 27.402344 67.191406 26.609375 C 66.640625 26.226562 65.417969 25.046875 65.417969 24.898438 C 65.417969 24.855469 65.515625 24.773438 65.648438 24.699219 C 66.082031 24.449219 68.714844 22.921875 69.707031 22.335938 C 70.75 21.726562 71.964844 21.023438 73.691406 20.023438 C 74.25 19.699219 74.824219 19.363281 74.957031 19.28125 C 75.101562 19.207031 75.558594 18.9375 75.984375 18.6875 C 76.410156 18.4375 76.824219 18.203125 76.898438 18.152344 C 78.089844 17.453125 78.609375 17.1875 78.660156 17.246094 C 78.765625 17.378906 78.992188 18.054688 79.132812 18.695312 C 79.324219 19.546875 79.324219 20.976562 79.132812 21.851562 C 78.492188 24.863281 76.199219 27.167969 73.191406 27.828125 C 72.558594 27.96875 71.308594 28.0625 70.875 27.996094 Z M 70.875 27.996094 "/>
<path style=" stroke:none;fill-rule:nonzero;fill:rgb(100%,100%,100%);fill-opacity:1;" d="M 62.933594 25.917969 C 62.699219 25.625 62.050781 24.339844 61.839844 23.789062 C 60.882812 21.152344 61 18.296875 62.175781 15.773438 C 63.316406 13.328125 65.492188 11.359375 68.042969 10.457031 C 69.226562 10.042969 70.050781 9.90625 71.5 9.90625 C 72.898438 9.90625 73.574219 10.007812 74.792969 10.410156 C 76.660156 11.019531 78.640625 12.496094 79.824219 14.164062 C 80.300781 14.824219 80.882812 15.851562 80.816406 15.890625 C 80.410156 16.152344 80.101562 16.335938 79.191406 16.835938 L 78.675781 17.117188 L 78.449219 16.675781 C 78.140625 16.066406 77.441406 15.148438 76.910156 14.640625 C 75.476562 13.296875 73.523438 12.519531 71.601562 12.519531 C 69.582031 12.519531 67.648438 13.320312 66.214844 14.757812 C 65.183594 15.773438 64.699219 16.542969 64.242188 17.902344 C 63.523438 20.015625 63.867188 22.703125 65.082031 24.488281 C 65.214844 24.671875 65.300781 24.855469 65.285156 24.890625 C 65.242188 24.957031 63.214844 26.125 63.140625 26.125 C 63.117188 26.125 63.023438 26.035156 62.933594 25.917969 Z M 62.933594 25.917969 "/>
<path style=" stroke:none;fill-rule:nonzero;fill:rgb(100%,100%,100%);fill-opacity:1;" d="M 17.859375 19.640625 C 17.398438 19.480469 16.792969 18.886719 16.558594 18.378906 C 16.273438 17.761719 16.308594 16.945312 16.625 16.316406 C 17.050781 15.484375 17.808594 15.023438 18.765625 15.023438 C 19.773438 15.023438 20.632812 15.617188 20.992188 16.566406 C 21.449219 17.785156 20.792969 19.230469 19.582031 19.65625 C 19.140625 19.816406 18.316406 19.808594 17.859375 19.640625 Z M 19.433594 18.328125 C 20.125 17.878906 20.035156 16.769531 19.273438 16.367188 C 19.042969 16.25 18.457031 16.25 18.226562 16.367188 C 17.535156 16.726562 17.382812 17.628906 17.925781 18.179688 C 18.351562 18.613281 18.917969 18.671875 19.433594 18.328125 Z M 19.433594 18.328125 "/>
<path style=" stroke:none;fill-rule:nonzero;fill:rgb(100%,100%,100%);fill-opacity:1;" d="M 47.007812 17.804688 C 47.066406 17.71875 47.160156 17.621094 47.207031 17.570312 C 47.257812 17.527344 47.75 16.976562 48.292969 16.359375 C 48.839844 15.734375 50.042969 14.382812 50.957031 13.355469 C 54.007812 9.941406 54.285156 9.625 55.492188 8.253906 C 56.160156 7.503906 56.910156 6.660156 57.160156 6.386719 C 57.417969 6.109375 57.765625 5.726562 57.941406 5.527344 C 58.117188 5.324219 58.300781 5.175781 58.351562 5.191406 C 58.398438 5.207031 57.957031 5.765625 57.367188 6.425781 C 56.207031 7.710938 55.398438 8.628906 53.507812 10.777344 C 52.851562 11.527344 52.265625 12.1875 52.207031 12.226562 C 52.160156 12.277344 51.558594 12.945312 50.875 13.730469 C 50.183594 14.507812 49.535156 15.242188 49.425781 15.359375 C 49.316406 15.476562 48.757812 16.101562 48.183594 16.761719 C 47.609375 17.410156 47.082031 17.945312 47.015625 17.945312 C 46.917969 17.945312 46.917969 17.921875 47.007812 17.804688 Z M 47.007812 17.804688 "/>
<path style=" stroke:none;fill-rule:nonzero;fill:rgb(100%,100%,100%);fill-opacity:1;" d="M 39.992188 14.589844 C 39.199219 13.039062 38.992188 12.644531 38.933594 12.585938 C 38.898438 12.554688 38.714844 12.605469 38.542969 12.695312 C 37.800781 13.085938 37.089844 13.480469 36.574219 13.78125 C 36.273438 13.957031 35.984375 14.105469 35.933594 14.121094 C 35.824219 14.148438 34.917969 12.410156 34.917969 12.179688 C 34.917969 12.085938 34.957031 12.019531 35.007812 12.019531 C 35.082031 12.019531 37.707031 10.574219 37.816406 10.476562 C 37.832031 10.457031 37.523438 9.832031 37.132812 9.074219 L 36.417969 7.695312 L 36.726562 7.535156 C 37.75 6.996094 38.714844 6.511719 38.757812 6.511719 C 38.792969 6.511719 39.109375 7.09375 39.464844 7.804688 C 39.824219 8.511719 40.160156 9.097656 40.207031 9.097656 C 40.257812 9.097656 40.367188 9.046875 40.457031 8.988281 C 40.617188 8.882812 40.824219 8.765625 42.042969 8.097656 C 42.316406 7.945312 42.582031 7.789062 42.640625 7.746094 C 42.707031 7.695312 42.933594 7.960938 43.375 8.640625 C 43.890625 9.421875 43.992188 9.632812 43.917969 9.730469 C 43.859375 9.800781 43.785156 9.847656 43.742188 9.847656 C 43.699219 9.847656 43.285156 10.066406 42.808594 10.332031 C 42.339844 10.59375 41.816406 10.882812 41.632812 10.976562 C 41.457031 11.066406 41.300781 11.183594 41.285156 11.234375 C 41.257812 11.277344 41.582031 11.976562 42 12.789062 L 42.75 14.257812 L 41.675781 14.847656 C 41.082031 15.175781 40.558594 15.441406 40.515625 15.441406 C 40.464844 15.441406 40.234375 15.058594 39.992188 14.589844 Z M 39.992188 14.589844 "/>
<path style=" stroke:none;fill-rule:nonzero;fill:rgb(100%,100%,100%);fill-opacity:1;" d="M 26.523438 12.636719 C 26.714844 11.71875 27.023438 10.332031 27.332031 8.914062 C 27.433594 8.488281 27.542969 7.980469 27.574219 7.777344 C 27.648438 7.402344 27.714844 7.285156 27.800781 7.363281 C 27.851562 7.410156 27.808594 7.605469 27.160156 10.601562 C 26.964844 11.492188 26.785156 12.351562 26.757812 12.511719 C 26.734375 12.671875 26.660156 12.8125 26.589844 12.835938 C 26.5 12.871094 26.484375 12.820312 26.523438 12.636719 Z M 26.523438 12.636719 "/>
</g>
</svg>
