<!DOCTYPE svg PUBLIC "-//W3C//DTD SVG 20010904//EN" "http://www.w3.org/TR/2001/REC-SVG-20010904/DTD/svg10.dtd">
<svg version="1.0" xmlns="http://www.w3.org/2000/svg" width="1200px" height="623px" viewBox="0 0 12000 6230" preserveAspectRatio="xMidYMid meet">
<g id="layer101" fill="#232323" stroke="none">
<path d="M0 3115 l0 -3115 6000 0 6000 0 0 3115 0 3115 -6000 0 -6000 0 0 -3115z"/>
</g>
<g id="layer102" fill="#2b2b2b" stroke="none">
<path d="M0 3280 l0 -2950 6000 0 6000 0 0 2950 0 2950 -6000 0 -6000 0 0 -2950z m8795 356 c296 -53 567 -217 754 -454 71 -90 71 -90 127 -198 150 -290 181 -630 84 -929 -48 -150 -54 -162 -72 -146 -9 9 -34 25 -55 36 -21 11 -71 39 -111 63 -40 23 -78 40 -84 36 -6 -4 -5 2 2 15 26 50 59 176 70 274 28 235 -43 483 -189 667 -162 202 -364 315 -624 350 -153 20 -333 -7 -490 -74 -98 -42 -249 -157 -317 -241 -19 -24 -41 -44 -49 -44 -13 -1 -121 57 -218 118 -24 14 -43 32 -43 39 0 22 231 247 300 292 163 107 340 176 515 200 50 6 97 13 105 15 29 7 216 -5 295 -19z m-1305 -640 c0 -3 -5 -8 -12 -12 -7 -4 -8 -3 -4 4 7 12 16 16 16 8z m348 -36 c-7 -10 -14 -17 -17 -15 -4 4 18 35 25 35 2 0 -1 -9 -8 -20z m-58 -94 c0 -3 -5 -8 -12 -12 -7 -4 -8 -3 -4 4 7 12 16 16 16 8z m-383 -83 c-4 -3 -7 0 -7 7 0 7 3 10 7 7 3 -4 3 -10 0 -14z m-10 -30 c-4 -3 -7 0 -7 7 0 7 3 10 7 7 3 -4 3 -10 0 -14z m-10 -50 c-4 -3 -7 0 -7 7 0 7 3 10 7 7 3 -4 3 -10 0 -14z m330 -10 c-4 -3 -7 0 -7 7 0 7 3 10 7 7 3 -4 3 -10 0 -14z m-340 -30 c-4 -3 -7 0 -7 7 0 7 3 10 7 7 3 -4 3 -10 0 -14z m-10 -45 c-3 -8 -6 -5 -6 6 -1 11 2 17 5 13 3 -3 4 -12 1 -19z m320 -70 c-3 -8 -6 -5 -6 6 -1 11 2 17 5 13 3 -3 4 -12 1 -19z m-330 -45 c-3 -10 -5 -2 -5 17 0 19 2 27 5 18 2 -10 2 -26 0 -35z m320 -105 c-2 -18 -4 -4 -4 32 0 36 2 50 4 33 2 -18 2 -48 0 -65z m-320 -95 c-3 -10 -5 -4 -5 12 0 17 2 24 5 18 2 -7 2 -21 0 -30z m330 -5 c-3 -8 -6 -5 -6 6 -1 11 2 17 5 13 3 -3 4 -12 1 -19z m-320 -95 c-4 -3 -7 0 -7 7 0 7 3 10 7 7 3 -4 3 -10 0 -14z m10 -50 c-4 -3 -7 0 -7 7 0 7 3 10 7 7 3 -4 3 -10 0 -14z m50 -170 c-4 -3 -7 0 -7 7 0 7 3 10 7 7 3 -4 3 -10 0 -14z m1943 -77 c0 -3 -5 -8 -12 -12 -7 -4 -8 -3 -4 4 7 12 16 16 16 8z m-1515 -16 c3 -5 4 -10 1 -10 -3 0 -8 5 -11 10 -3 6 -4 10 -1 10 3 0 8 -4 11 -10z m30 -40 c3 -5 4 -10 1 -10 -3 0 -8 5 -11 10 -3 6 -4 10 -1 10 3 0 8 -4 11 -10z m1802 -17 c-4 -3 -7 0 -7 7 0 7 3 10 7 7 3 -4 3 -10 0 -14z m-7 -17 c0 -3 -5 -8 -12 -12 -7 -4 -8 -3 -4 4 7 12 16 16 16 8z m-410 -30 c0 -3 -5 -8 -12 -12 -7 -4 -8 -3 -4 4 7 12 16 16 16 8z m-1315 -16 c3 -5 4 -10 1 -10 -3 0 -8 5 -11 10 -3 6 -4 10 -1 10 3 0 8 -4 11 -10z m1695 -4 c0 -3 -5 -8 -12 -12 -7 -4 -8 -3 -4 4 7 12 16 16 16 8z m-2095 -26 c3 -5 4 -10 1 -10 -3 0 -8 5 -11 10 -3 6 -4 10 -1 10 3 0 8 -4 11 -10z m470 -30 c3 -5 4 -10 1 -10 -3 0 -8 5 -11 10 -3 6 -4 10 -1 10 3 0 8 -4 11 -10z m1585 -4 c0 -2 -8 -10 -17 -17 -16 -13 -17 -12 -4 4 13 16 21 21 21 13z m-1545 -26 c3 -5 4 -10 1 -10 -3 0 -8 5 -11 10 -3 6 -4 10 -1 10 3 0 8 -4 11 -10z m1075 -4 c0 -3 -5 -8 -12 -12 -7 -4 -8 -3 -4 4 7 12 16 16 16 8z m440 -10 c0 -3 -5 -8 -12 -12 -7 -4 -8 -3 -4 4 7 12 16 16 16 8z m-1949 -33 c13 -16 12 -17 -3 -4 -10 7 -18 15 -18 17 0 8 8 3 21 -13z m1449 3 c0 -3 -5 -8 -12 -12 -7 -4 -8 -3 -4 4 7 12 16 16 16 8z m470 -9 c0 -2 -10 -12 -22 -23 l-23 -19 19 23 c18 21 26 27 26 19z m-1865 -57 c3 -5 4 -10 1 -10 -3 0 -8 5 -11 10 -3 6 -4 10 -1 10 3 0 8 -4 11 -10z m592 -7 c-4 -3 -10 -3 -14 0 -3 4 0 7 7 7 7 0 10 -3 7 -7z m130 -40 c-4 -3 -10 -3 -14 0 -3 4 0 7 7 7 7 0 10 -3 7 -7z m400 0 c-4 -3 -10 -3 -14 0 -3 4 0 7 7 7 7 0 10 -3 7 -7z m-1052 -23 c3 -5 4 -10 1 -10 -3 0 -8 5 -11 10 -3 6 -4 10 -1 10 3 0 8 -4 11 -10z m878 3 c-18 -2 -48 -2 -65 0 -18 2 -4 4 32 4 36 0 50 -2 33 -4z m777 -17 c0 -2 -8 -10 -17 -17 -16 -13 -17 -12 -4 4 13 16 21 21 21 13z m-50 -40 c0 -3 -5 -8 -12 -12 -7 -4 -8 -3 -4 4 7 12 16 16 16 8z m-40 -30 c0 -2 -8 -10 -17 -17 -16 -13 -17 -12 -4 4 13 16 21 21 21 13z m-1435 -16 c3 -5 4 -10 1 -10 -3 0 -8 5 -11 10 -3 6 -4 10 -1 10 3 0 8 -4 11 -10z m30 -20 c3 -5 4 -10 1 -10 -3 0 -8 5 -11 10 -3 6 -4 10 -1 10 3 0 8 -4 11 -10z m1295 -34 c0 -3 -5 -8 -12 -12 -7 -4 -8 -3 -4 4 7 12 16 16 16 8z m-1215 -16 c3 -5 4 -10 1 -10 -3 0 -8 5 -11 10 -3 6 -4 10 -1 10 3 0 8 -4 11 -10z m972 -97 c-4 -3 -10 -3 -14 0 -3 4 0 7 7 7 7 0 10 -3 7 -7z m-30 -10 c-4 -3 -10 -3 -14 0 -3 4 0 7 7 7 7 0 10 -3 7 -7z m-650 -10 c-4 -3 -10 -3 -14 0 -3 4 0 7 7 7 7 0 10 -3 7 -7z m620 0 c-4 -3 -10 -3 -14 0 -3 4 0 7 7 7 7 0 10 -3 7 -7z m-570 -10 c-4 -3 -10 -3 -14 0 -3 4 0 7 7 7 7 0 10 -3 7 -7z m510 0 c-4 -3 -10 -3 -14 0 -3 4 0 7 7 7 7 0 10 -3 7 -7z m-460 -10 c-4 -3 -10 -3 -14 0 -3 4 0 7 7 7 7 0 10 -3 7 -7z m420 1 c-3 -3 -12 -4 -19 -1 -8 3 -5 6 6 6 11 1 17 -2 13 -5z m-354 -11 c-7 -2 -19 -2 -25 0 -7 3 -2 5 12 5 14 0 19 -2 13 -5z m294 1 c-3 -3 -12 -4 -19 -1 -8 3 -5 6 6 6 11 1 17 -2 13 -5z"/>
</g>
<g id="layer103" fill="#363636" stroke="none">
<path d="M2241 6226 c2 -2 49 -30 104 -62 170 -97 345 -198 378 -218 35 -20 303 -175 567 -328 91 -53 179 -104 197 -114 17 -11 82 -48 145 -84 62 -35 136 -78 163 -95 28 -18 88 -53 135 -79 47 -26 101 -56 120 -68 19 -11 136 -79 260 -150 124 -72 261 -152 305 -178 44 -26 157 -91 250 -145 94 -54 222 -128 285 -165 63 -37 138 -80 165 -96 28 -16 59 -34 70 -41 11 -7 27 -15 35 -19 8 -4 35 -20 60 -34 25 -15 122 -71 215 -125 94 -54 260 -151 370 -215 110 -64 281 -163 380 -220 99 -56 196 -113 215 -125 19 -12 42 -25 50 -29 8 -4 24 -12 35 -19 11 -7 43 -25 70 -41 28 -16 102 -59 165 -96 63 -37 222 -129 353 -205 l238 -138 16 24 c33 48 200 212 258 254 223 160 467 239 735 239 557 0 1040 -370 1193 -914 61 -219 54 -492 -19 -704 -14 -39 -30 -86 -36 -103 -6 -18 -9 -34 -7 -36 2 -2 51 -30 108 -63 58 -32 123 -70 145 -83 23 -13 70 -40 106 -61 36 -20 207 -119 380 -220 173 -101 371 -216 440 -256 69 -39 181 -104 250 -144 69 -40 145 -84 170 -98 25 -14 108 -62 185 -107 288 -168 476 -276 490 -281 13 -5 15 212 15 1830 l0 1836 -190 0 c-120 0 -190 4 -190 10 0 6 -54 10 -142 10 -159 0 -520 16 -585 26 l-41 6 -6 -58 c-3 -33 -13 -120 -21 -194 -8 -74 -15 -184 -15 -245 0 -60 -5 -162 -10 -225 -19 -229 -30 -333 -36 -339 -7 -8 -43 -6 -342 13 -134 9 -252 21 -263 27 -15 8 -19 17 -15 42 3 18 10 111 16 207 6 96 15 231 20 300 16 203 20 258 26 388 l6 122 -33 0 c-19 1 -79 5 -134 10 -55 6 -183 17 -285 25 -347 29 -515 44 -640 55 -69 7 -135 12 -148 13 -14 1 -20 7 -17 15 3 8 7 53 10 100 3 48 12 137 21 197 8 61 18 145 23 188 5 43 12 81 15 84 5 5 221 -7 496 -27 239 -18 638 -44 685 -44 l50 -1 7 80 c4 44 12 127 18 185 5 58 10 147 10 198 0 51 4 92 9 92 9 0 16 89 27 325 3 72 10 142 15 156 9 24 13 25 67 22 31 -2 91 -8 132 -13 41 -5 158 -14 259 -21 l183 -12 -6 -56 c-4 -31 -12 -128 -17 -216 -6 -88 -14 -223 -20 -300 -5 -77 -12 -214 -15 -306 l-7 -165 115 -12 c64 -7 164 -12 224 -12 60 0 172 -7 249 -15 77 -8 220 -15 318 -15 l177 0 0 680 0 680 -4882 0 c-2685 0 -4879 -2 -4877 -4z"/>
<path d="M8520 3355 c-8 -2 -49 -9 -90 -15 -141 -23 -259 -72 -376 -155 -62 -45 -194 -171 -194 -187 0 -20 -41 -3 -157 63 -147 84 -134 88 -211 -59 -167 -320 -193 -643 -81 -987 113 -345 403 -638 754 -762 142 -50 241 -66 415 -66 168 0 249 12 395 60 224 73 462 250 604 450 57 79 127 202 119 207 -2 1 -22 14 -45 29 -24 15 -45 27 -47 27 -2 0 -39 20 -81 45 -42 25 -81 43 -87 39 -6 -4 -5 2 2 15 26 49 58 173 70 269 23 193 -23 411 -122 575 -117 193 -315 349 -518 410 -114 34 -285 55 -350 42z m-682 -395 c-7 -10 -14 -17 -17 -15 -4 4 18 35 25 35 2 0 -1 -9 -8 -20z m-58 -94 c0 -3 -5 -8 -12 -12 -7 -4 -8 -3 -4 4 7 12 16 16 16 8z m-53 -113 c-4 -3 -7 0 -7 7 0 7 3 10 7 7 3 -4 3 -10 0 -14z m-20 -60 c-4 -3 -7 0 -7 7 0 7 3 10 7 7 3 -4 3 -10 0 -14z m-20 -90 c-4 -3 -7 0 -7 7 0 7 3 10 7 7 3 -4 3 -10 0 -14z m-10 -55 c-3 -8 -6 -5 -6 6 -1 11 2 17 5 13 3 -3 4 -12 1 -19z m-10 -150 c-2 -18 -4 -4 -4 32 0 36 2 50 4 33 2 -18 2 -48 0 -65z m10 -100 c-3 -8 -6 -5 -6 6 -1 11 2 17 5 13 3 -3 4 -12 1 -19z m10 -55 c-4 -3 -7 0 -7 7 0 7 3 10 7 7 3 -4 3 -10 0 -14z m1726 -248 c-3 -9 -8 -14 -10 -11 -3 3 -2 9 2 15 9 16 15 13 8 -4z m-53 -89 c0 -3 -5 -8 -12 -12 -7 -4 -8 -3 -4 4 7 12 16 16 16 8z m-1515 -16 c3 -5 4 -10 1 -10 -3 0 -8 5 -11 10 -3 6 -4 10 -1 10 3 0 8 -4 11 -10z m30 -40 c3 -5 4 -10 1 -10 -3 0 -8 5 -11 10 -3 6 -4 10 -1 10 3 0 8 -4 11 -10z m1445 6 c0 -3 -5 -8 -12 -12 -7 -4 -8 -3 -4 4 7 12 16 16 16 8z m-60 -70 c0 -2 -8 -10 -17 -17 -16 -13 -17 -12 -4 4 13 16 21 21 21 13z m-1315 -16 c3 -5 4 -10 1 -10 -3 0 -8 5 -11 10 -3 6 -4 10 -1 10 3 0 8 -4 11 -10z m70 -60 c3 -5 4 -10 1 -10 -3 0 -8 5 -11 10 -3 6 -4 10 -1 10 3 0 8 -4 11 -10z m1165 6 c0 -2 -8 -10 -17 -17 -16 -13 -17 -12 -4 4 13 16 21 21 21 13z m-1125 -36 c3 -5 4 -10 1 -10 -3 0 -8 5 -11 10 -3 6 -4 10 -1 10 3 0 8 -4 11 -10z m1085 6 c0 -2 -8 -10 -17 -17 -16 -13 -17 -12 -4 4 13 16 21 21 21 13z m-70 -50 c0 -3 -5 -8 -12 -12 -7 -4 -8 -3 -4 4 7 12 16 16 16 8z m-803 -73 c-4 -3 -10 -3 -14 0 -3 4 0 7 7 7 7 0 10 -3 7 -7z m60 -20 c-4 -3 -10 -3 -14 0 -3 4 0 7 7 7 7 0 10 -3 7 -7z m70 -20 c-4 -3 -10 -3 -14 0 -3 4 0 7 7 7 7 0 10 -3 7 -7z m400 0 c-4 -3 -10 -3 -14 0 -3 4 0 7 7 7 7 0 10 -3 7 -7z m-320 -9 c-3 -3 -12 -4 -19 -1 -8 3 -5 6 6 6 11 1 17 -2 13 -5z m250 0 c-3 -3 -12 -4 -19 -1 -8 3 -5 6 6 6 11 1 17 -2 13 -5z m-104 -11 c-18 -2 -48 -2 -65 0 -18 2 -4 4 32 4 36 0 50 -2 33 -4z"/>
<path d="M5641 2133 c8 -10 35 -40 60 -68 26 -27 62 -68 80 -90 35 -42 65 -75 165 -185 32 -36 91 -101 129 -145 39 -44 113 -127 165 -186 52 -58 127 -141 165 -185 39 -43 95 -106 126 -139 30 -33 104 -116 164 -185 60 -69 134 -152 164 -185 31 -33 73 -79 94 -103 21 -24 43 -42 49 -40 6 2 -47 69 -118 148 -139 154 -236 264 -463 521 -79 90 -149 169 -156 174 -6 6 -78 86 -160 180 -83 93 -161 181 -174 195 -13 14 -80 89 -149 168 -69 78 -132 142 -140 142 -12 0 -12 -3 -1 -17z"/>
<path d="M4799 1748 c-95 -186 -120 -233 -127 -240 -8 -8 -22 -1 -152 69 -105 57 -153 86 -179 105 -13 10 -27 18 -31 18 -11 0 -120 -219 -120 -241 0 -11 5 -19 11 -19 9 0 324 -173 337 -185 2 -2 -35 -77 -82 -168 l-86 -165 37 -19 c158 -83 257 -133 260 -133 2 0 2 4 -1 9 -4 6 135 294 150 310 5 5 27 -6 109 -52 33 -19 87 -49 120 -67 33 -18 65 -37 72 -42 8 -6 35 26 88 107 62 94 74 119 65 131 -7 8 -16 14 -21 14 -5 0 -55 26 -112 58 -56 31 -119 66 -141 77 -21 11 -40 25 -42 31 -3 5 36 89 85 185 69 134 88 178 79 187 -7 7 -16 12 -22 12 -5 0 -57 27 -116 60 -59 33 -112 60 -117 60 -6 0 -35 -46 -64 -102z"/>
<path d="M3185 1503 c3 -27 15 -84 25 -128 10 -44 26 -111 34 -150 24 -112 58 -267 68 -307 5 -21 14 -38 20 -38 13 0 7 41 -37 240 -19 85 -46 209 -60 275 -32 150 -34 155 -47 155 -7 0 -8 -17 -3 -47z"/>
</g>
<g id="layer104" fill="#e2e749" stroke="none">
<path d="M0 5449 c0 -621 3 -779 13 -773 6 4 21 15 32 24 11 10 504 354 1095 765 591 411 1079 751 1084 756 6 5 -459 9 -1107 9 l-1117 0 0 -781z"/>
<path d="M2241 6226 c2 -2 49 -30 104 -62 170 -97 345 -198 378 -218 35 -20 303 -175 567 -328 91 -53 179 -104 197 -114 17 -11 82 -48 145 -84 62 -35 136 -78 163 -95 28 -18 88 -53 135 -79 47 -26 101 -56 120 -68 19 -11 136 -79 260 -150 124 -72 261 -152 305 -178 44 -26 157 -91 250 -145 94 -54 222 -128 285 -165 63 -37 138 -80 165 -96 28 -16 59 -34 70 -41 11 -7 27 -15 35 -19 8 -4 35 -20 60 -34 25 -15 122 -71 215 -125 94 -54 260 -151 370 -215 110 -64 281 -163 380 -220 99 -56 196 -113 215 -125 19 -12 42 -25 50 -29 8 -4 24 -12 35 -19 11 -7 43 -25 70 -41 28 -16 102 -59 165 -96 609 -353 592 -344 602 -326 25 44 134 159 205 216 212 171 409 252 682 281 186 19 399 -13 577 -86 254 -105 479 -304 611 -540 181 -324 209 -696 78 -1053 -15 -40 -25 -74 -23 -76 1 -1 50 -29 107 -62 58 -32 123 -70 145 -83 23 -13 70 -40 106 -61 36 -20 207 -119 380 -220 173 -101 371 -216 440 -256 69 -39 181 -104 250 -144 69 -40 145 -84 170 -98 25 -14 108 -62 185 -107 288 -168 476 -276 490 -281 13 -5 15 212 15 1830 l0 1836 -190 0 c-120 0 -190 4 -190 10 0 6 -54 10 -142 10 -159 0 -520 16 -585 26 l-41 6 -6 -58 c-3 -33 -13 -120 -21 -194 -8 -74 -15 -184 -15 -245 0 -60 -5 -162 -10 -225 -19 -229 -30 -333 -36 -339 -7 -8 -45 -6 -339 13 -132 9 -250 19 -263 22 -20 6 -22 11 -18 48 3 22 10 115 16 206 9 152 22 337 35 500 3 36 8 120 11 188 l6 122 -33 0 c-19 1 -79 5 -134 10 -55 6 -183 17 -285 25 -347 29 -515 44 -640 55 -69 7 -135 12 -147 13 -16 2 -21 7 -18 18 3 9 10 72 15 140 5 68 13 147 19 174 5 28 13 96 16 153 l8 102 46 0 c44 0 184 -9 461 -30 243 -18 636 -43 685 -44 l50 -1 7 80 c4 44 12 127 18 185 5 58 10 147 10 198 0 51 4 92 9 92 9 0 16 89 27 325 3 72 10 142 15 156 9 24 13 25 67 22 31 -2 91 -8 132 -13 41 -5 158 -14 259 -21 l183 -12 -6 -56 c-4 -31 -12 -128 -17 -216 -6 -88 -14 -223 -20 -300 -5 -77 -12 -214 -15 -306 l-7 -165 115 -12 c64 -7 164 -12 224 -12 60 0 172 -7 249 -15 77 -8 220 -15 318 -15 l177 0 0 680 0 680 -4882 0 c-2685 0 -4879 -2 -4877 -4z"/>
<path d="M8505 3354 c-188 -28 -304 -71 -442 -166 -66 -46 -213 -187 -213 -205 0 -5 12 -15 28 -24 52 -30 368 -213 487 -283 125 -73 271 -157 478 -277 67 -39 136 -79 152 -89 17 -9 72 -41 123 -71 51 -30 101 -58 110 -64 143 -84 205 -116 211 -109 13 16 40 97 57 174 23 102 23 273 0 378 -77 361 -352 637 -713 716 -76 17 -226 28 -278 20z"/>
</g>
<g id="layer105" fill="#ffffff" stroke="none">
<path d="M7552 3105 c-28 -35 -106 -189 -131 -255 -115 -316 -101 -658 40 -960 137 -293 398 -529 704 -637 142 -50 241 -66 415 -66 168 0 249 12 395 60 224 73 462 250 604 450 57 79 127 202 119 207 -49 31 -86 53 -195 113 l-62 34 -27 -53 c-37 -73 -121 -183 -185 -244 -172 -161 -406 -254 -637 -254 -242 0 -474 96 -646 268 -124 122 -182 214 -237 377 -86 253 -45 575 101 789 16 22 26 44 24 48 -5 8 -248 148 -257 148 -3 0 -14 -11 -25 -25z"/>
<path d="M2143 2353 c-55 -19 -128 -90 -156 -151 -34 -74 -30 -172 8 -247 51 -100 142 -155 257 -155 121 0 224 71 267 185 55 146 -24 319 -169 370 -53 19 -152 18 -207 -2z m189 -157 c83 -54 72 -187 -19 -235 -28 -14 -98 -14 -126 0 -83 43 -101 151 -36 217 51 52 119 59 181 18z"/>
<path d="M5641 2133 c7 -10 18 -22 24 -28 6 -5 65 -71 130 -145 66 -75 210 -237 320 -360 366 -409 399 -447 544 -611 80 -90 170 -191 200 -224 31 -33 73 -79 94 -103 21 -24 43 -42 49 -40 6 2 -47 69 -118 148 -139 154 -236 264 -463 521 -79 90 -149 169 -156 174 -6 6 -78 86 -160 180 -83 93 -161 181 -174 195 -13 14 -80 89 -149 168 -69 78 -132 142 -140 142 -12 0 -12 -3 -1 -17z"/>
<path d="M4799 1748 c-95 -186 -120 -233 -127 -240 -4 -4 -26 2 -47 13 -89 47 -174 94 -236 130 -36 21 -71 39 -77 41 -13 3 -122 -205 -122 -233 0 -11 5 -19 11 -19 9 0 324 -173 337 -185 2 -2 -35 -77 -82 -168 l-86 -165 37 -19 c123 -65 239 -123 244 -123 4 0 42 70 85 155 43 85 83 155 89 155 6 0 19 -6 30 -13 19 -13 44 -27 190 -107 33 -18 65 -37 72 -42 8 -6 35 26 88 107 62 94 74 119 65 131 -7 8 -16 14 -21 14 -5 0 -55 26 -112 58 -56 31 -119 66 -141 77 -21 11 -40 25 -42 31 -3 5 36 89 86 186 l90 176 -129 71 c-71 39 -134 71 -139 71 -6 0 -34 -46 -63 -102z"/>
<path d="M3183 1514 c23 -110 60 -276 97 -446 12 -51 25 -112 29 -136 9 -45 17 -59 27 -50 6 6 1 29 -77 388 -23 107 -45 210 -48 229 -3 19 -12 36 -20 39 -11 4 -13 -2 -8 -24z"/>
</g>


</svg>